<svg version="1.1" id="Layer_1" xmlns="http://www.w3.org/2000/svg" xmlns:xlink="http://www.w3.org/1999/xlink" x="0px" y="0px"
	 width="100%" viewBox="0 0 600 424" enable-background="new 0 0 600 424" xml:space="preserve">
<path fill="#FFFFFF" opacity="1.000000" stroke="none" 
	d="
M359.000000,425.000000 
	C239.362411,425.000000 120.224808,425.000000 1.043608,425.000000 
	C1.043608,283.730225 1.043608,142.460449 1.043608,1.095328 
	C200.887619,1.095328 400.775299,1.095328 600.831482,1.095328 
	C600.831482,142.333176 600.831482,283.666565 600.831482,425.000000 
	C520.460388,425.000000 439.980194,425.000000 359.000000,425.000000 
M132.944824,94.741295 
	C134.300766,97.825859 135.656708,100.910416 137.075165,104.693390 
	C141.247208,110.486206 145.738602,115.895744 153.501770,118.168205 
	C153.667450,118.230553 153.833130,118.292900 153.998459,119.130302 
	C153.844391,120.106148 153.792068,121.111305 153.520660,122.053345 
	C150.509094,132.505798 146.722198,142.801132 144.609970,153.430099 
	C141.802521,167.557617 146.659119,176.462692 162.898926,176.088730 
	C179.221100,175.712860 190.430847,166.893738 200.563934,154.916840 
	C201.159500,154.960739 201.755081,155.004654 202.723206,155.685135 
	C205.036423,158.831772 207.349655,161.978394 209.269714,165.753464 
	C201.488693,183.494690 193.707687,201.235916 185.571625,219.465668 
	C185.535980,219.846481 185.500351,220.227310 185.486908,220.662155 
	C185.486908,220.662155 185.537415,220.691483 184.942352,220.952408 
	C183.408310,226.170441 179.601913,228.216660 174.491028,228.851624 
	C171.607330,229.209900 168.804581,230.219925 165.130783,230.941635 
	C164.444336,231.847565 163.252090,232.710297 163.170319,233.667877 
	C162.960175,236.128571 163.242493,238.631317 163.193481,242.030045 
	C163.128174,253.019577 163.062881,264.009125 162.116455,274.962616 
	C148.708572,276.777771 135.300674,278.592896 121.131790,280.427277 
	C117.135994,284.651611 113.140198,288.875977 108.577507,293.699646 
	C112.231171,296.539612 115.119270,298.784515 118.857124,301.056305 
	C125.066345,300.039459 131.281357,299.056610 137.483734,297.999664 
	C159.679214,294.217407 181.870438,290.409973 204.865189,286.633087 
	C208.316208,286.607361 211.836197,286.122681 215.207199,286.629333 
	C239.819351,290.328308 264.401581,294.226440 289.317474,298.780731 
	C290.221466,305.492401 291.353943,312.183197 291.968536,318.921265 
	C292.653503,326.430786 292.049652,333.871643 288.721161,341.472107 
	C288.497528,341.979828 288.273895,342.487549 287.769989,343.657013 
	C287.473145,344.757019 287.176270,345.856995 286.577820,347.653473 
	C286.449310,349.428192 286.320831,351.202942 285.900818,353.703918 
	C284.990540,357.505737 284.080261,361.307587 282.955017,365.772797 
	C283.578308,368.340790 283.646271,372.779388 284.919708,373.157379 
	C290.869354,374.923706 293.729187,379.975494 297.974335,383.525024 
	C300.835175,385.917175 304.172211,389.000458 307.523590,389.309509 
	C317.694092,390.247345 327.975677,390.133484 338.212769,390.095642 
	C340.989227,390.085358 343.287445,388.457336 343.163483,384.245361 
	C341.883972,381.806122 340.968964,379.065094 339.250397,376.989380 
	C335.479645,372.434967 331.414825,368.105896 327.255127,363.897247 
	C323.895111,360.497711 322.855408,356.732239 325.095795,352.152283 
	C333.640045,350.192169 342.194611,348.275787 350.726257,346.262146 
	C364.840118,342.930939 378.939240,339.537018 393.783752,336.301056 
	C394.870941,336.544403 395.958099,336.787750 396.892456,337.670685 
	C395.588684,343.403534 400.730408,348.128113 406.333618,348.968079 
	C409.572754,349.453674 413.003052,349.451477 416.244843,348.973663 
	C423.806915,347.859161 431.102478,348.446442 438.290924,351.020721 
	C442.808655,352.638611 447.317627,354.363800 451.957428,355.540527 
	C461.301331,357.910278 470.220642,357.342804 477.288055,349.783844 
	C480.179047,346.691803 482.497589,343.093079 478.841248,338.108887 
	C477.245392,337.331573 475.691437,336.448456 474.045776,335.796967 
	C469.371094,333.946533 464.536743,332.452057 459.994263,330.327759 
	C454.945526,327.966675 450.260590,324.827209 445.210083,322.470642 
	C440.729462,320.380096 438.559509,317.417877 438.818634,312.358063 
	C438.910034,310.573303 437.628418,308.718201 436.907898,306.290985 
	C436.253845,305.507019 435.029480,304.720367 435.033203,303.939545 
	C435.074127,295.315491 434.118530,286.464600 435.720276,278.113922 
	C439.681152,257.463806 443.841919,237.041946 443.319275,215.737305 
	C443.007172,203.016998 436.192780,196.220688 426.579559,191.968185 
	C420.228119,189.158554 414.015900,186.023285 407.815491,182.887207 
	C404.182465,181.049683 400.695007,178.924347 396.896729,176.260254 
	C394.929688,175.520340 392.962646,174.780426 390.316376,173.905396 
	C389.209167,173.624649 388.101990,173.343903 386.389740,172.951111 
	C385.659302,172.612030 384.928894,172.272934 383.470367,171.713150 
	C379.479065,170.894440 375.498505,170.017822 371.493073,169.275345 
	C368.285522,168.680786 364.987640,168.487640 361.836731,167.692688 
	C356.294281,166.294403 350.866730,164.441910 345.326752,163.032364 
	C341.700104,162.109650 337.960236,161.632095 334.199677,160.241837 
	C332.799530,158.637711 331.429779,157.005844 329.993683,155.434570 
	C325.301453,150.300644 320.585052,145.188797 315.934113,139.457932 
	C315.549622,139.050781 315.165131,138.643646 314.759888,138.181549 
	C314.759888,138.181549 314.725372,138.134048 314.907227,137.237152 
	C315.241302,130.158829 315.816467,123.081436 315.843903,116.001915 
	C315.873291,108.422722 315.386749,100.841545 315.969604,93.346985 
	C318.655609,93.255386 321.341614,93.163795 324.748871,93.120888 
	C326.524292,91.878532 328.299683,90.636177 330.793121,89.237785 
	C332.203766,87.945206 333.969116,86.879021 334.963593,85.320831 
	C339.250153,78.604309 339.646301,71.158279 337.803009,63.694771 
	C333.800598,47.489056 316.387543,39.651375 306.303070,44.023251 
	C303.420593,46.920010 300.538116,49.816772 296.956116,52.869305 
	C291.403839,50.884243 285.843384,49.114044 279.443970,52.370968 
	C273.687042,57.563168 269.680695,63.609413 268.978424,71.646927 
	C268.230988,80.201653 270.326447,87.915321 274.207520,95.378136 
	C265.833679,93.954948 257.459808,92.531761 248.279648,90.977142 
	C245.485260,89.657013 242.690872,88.336884 239.966736,86.324852 
	C240.265656,85.233253 240.564590,84.141663 240.978149,82.226677 
	C240.588135,79.820671 240.198105,77.414665 239.838440,74.272804 
	C238.878204,71.654266 238.042358,68.981102 236.923035,66.432449 
	C235.785858,63.843182 234.369110,61.376698 233.057083,58.232708 
	C232.989349,57.822731 232.921600,57.412750 232.834045,56.293526 
	C231.925156,54.792122 231.016266,53.290714 230.106506,51.389042 
	C230.106506,51.389042 230.047424,50.993160 230.076614,50.492981 
	C229.922134,50.047890 229.767654,49.602798 229.280334,48.472824 
	C227.621918,46.494728 226.010544,44.474609 224.291779,42.550419 
	C222.591919,40.647362 220.783646,38.841156 218.888870,36.285408 
	C215.854630,31.351210 211.660614,30.394306 206.915756,33.517235 
	C204.172546,35.322739 201.192383,36.831177 198.678635,38.908642 
	C194.148117,42.652840 187.657532,44.676609 186.086716,52.032310 
	C184.307037,52.862152 182.527344,53.691990 180.703613,54.579407 
	C180.703613,54.579407 180.643890,54.538326 180.017700,54.549332 
	C179.595856,55.013844 179.174011,55.478355 178.107758,56.117569 
	C173.132202,61.032547 171.283020,67.207909 170.305481,74.099182 
	C169.538391,74.739258 168.771317,75.379333 167.494659,75.538422 
	C164.950790,72.420631 162.487549,69.232613 159.845978,66.199928 
	C154.616150,60.195789 148.850647,59.239670 141.386780,63.281437 
	C134.685059,68.557999 133.719955,76.262787 131.914398,83.875755 
	C130.632126,85.432442 128.628693,86.821617 128.219971,88.581207 
	C127.406700,92.082382 130.434387,93.062790 132.944824,94.741295 
z"/>
<path fill="#F48C20" opacity="1.000000" stroke="none" 
	d="
M249.085953,91.108582 
	C257.459808,92.531761 265.833679,93.954948 274.671082,95.515961 
	C276.054321,96.125053 276.974060,96.596306 278.109131,97.328590 
	C280.514099,98.763634 282.703735,99.937645 284.919006,101.110580 
	C284.944702,101.109505 284.918335,101.065376 284.994324,101.314316 
	C285.374634,101.707710 285.678925,101.852150 285.989197,102.001724 
	C285.995148,102.006844 286.009338,102.013496 286.178101,102.278290 
	C287.256042,103.073334 288.165192,103.603577 289.181641,104.440140 
	C290.586334,105.504898 291.883759,106.263336 293.284485,106.988693 
	C293.387817,106.955620 293.579559,107.057167 293.730225,107.377625 
	C301.957275,114.243721 308.436615,121.918266 311.613586,132.067062 
	C312.282715,134.204636 313.669342,136.117599 314.725372,138.134048 
	C314.725372,138.134048 314.759888,138.181549 314.779724,138.497925 
	C315.159027,139.232376 315.518463,139.650421 315.877930,140.068466 
	C320.585052,145.188797 325.301453,150.300644 329.993683,155.434570 
	C331.429779,157.005844 332.799530,158.637711 333.802734,160.702423 
	C330.267090,161.411530 327.116180,161.969437 323.992004,161.846848 
	C316.523651,161.553757 309.538300,162.685791 302.855743,166.375854 
	C300.076477,167.910538 296.388428,169.009689 293.329498,168.618637 
	C279.929382,166.905533 266.342224,176.462936 261.661255,191.123291 
	C256.855011,187.456421 252.416229,183.740967 247.791809,179.747742 
	C241.475189,174.898254 235.344208,170.326523 229.122711,165.826599 
	C229.032227,165.898422 229.238663,165.794601 229.152649,165.487762 
	C228.154266,164.348312 227.241867,163.515717 226.262726,162.712311 
	C226.195969,162.741501 226.339142,162.768585 226.304352,162.471436 
	C225.847275,161.776489 225.425018,161.378693 224.999771,160.990753 
	C224.996780,161.000595 225.016968,160.998184 224.951828,160.666016 
	C223.659576,159.451935 222.432465,158.570053 221.179337,157.777344 
	C221.153336,157.866516 221.269669,157.721680 221.147247,157.414581 
	C219.026337,156.070969 217.027863,155.034454 215.146545,153.684418 
	C221.948166,147.415588 226.554367,140.339767 224.638992,131.040298 
	C222.182175,119.112175 216.731567,108.664337 206.913147,100.681931 
	C206.682693,100.633316 206.218796,100.570915 206.293549,100.303856 
	C206.914078,99.086769 207.459869,98.136742 208.393311,97.234062 
	C216.335129,97.794151 223.913269,98.924995 231.436127,98.632652 
	C237.971634,98.378700 245.407501,98.717949 249.085953,91.108582 
z"/>
<path fill="#F9C7B4" opacity="1.000000" stroke="none" 
	d="
M397.142059,176.928467 
	C400.695007,178.924347 404.182465,181.049683 407.815491,182.887207 
	C414.015900,186.023285 420.228119,189.158554 426.579559,191.968185 
	C436.192780,196.220688 443.007172,203.016998 443.319275,215.737305 
	C443.841919,237.041946 439.681152,257.463806 435.720276,278.113922 
	C434.118530,286.464600 435.074127,295.315491 435.033203,303.939545 
	C435.029480,304.720367 436.253845,305.507019 436.621582,306.767822 
	C435.135284,309.748962 433.534790,312.149017 432.848053,314.786987 
	C432.163025,317.418427 420.923248,326.473053 418.158630,326.556488 
	C413.299377,326.703125 410.989014,324.296295 409.757477,319.944580 
	C409.345306,318.488220 408.050903,317.281555 407.122284,315.641846 
	C407.039215,314.897705 406.993683,314.472412 407.241730,313.754517 
	C409.207489,297.178406 410.934845,280.892029 405.278809,264.734344 
	C405.068268,260.644379 404.566650,256.829193 404.046234,252.613129 
	C404.075745,251.144852 404.124115,250.077438 404.505981,248.932144 
	C404.931122,247.254929 405.022797,245.655594 405.090454,243.674408 
	C405.148590,242.535187 405.230652,241.777832 405.643066,241.004517 
	C406.948517,237.610916 407.923584,234.233276 408.887634,230.527679 
	C408.247681,229.132217 407.618774,228.064728 406.922852,226.631989 
	C404.897247,226.196259 402.938629,226.125778 400.554565,226.071533 
	C391.412781,226.349030 382.696472,226.610275 373.705383,226.613708 
	C370.832642,225.899933 368.155792,225.694214 365.661621,224.908661 
	C363.674286,224.282761 360.430847,223.041428 360.360474,221.910538 
	C360.222595,219.694580 361.305084,216.693436 362.955078,215.211487 
	C367.491974,211.136597 371.456116,206.378983 372.666595,200.723358 
	C374.955170,190.030594 380.835510,181.557114 386.994781,173.063156 
	C388.101990,173.343903 389.209167,173.624649 390.718506,174.328583 
	C393.127808,175.477325 395.134918,176.202896 397.142059,176.928467 
z"/>
<path fill="#F8C7B4" opacity="1.000000" stroke="none" 
	d="
M289.024170,340.935303 
	C292.049652,333.871643 292.653503,326.430786 291.968536,318.921265 
	C291.353943,312.183197 290.221466,305.492401 289.218140,298.016510 
	C288.697693,295.159210 288.276611,293.066101 287.874756,290.560303 
	C287.216858,282.865295 286.539734,275.582977 285.808289,267.839752 
	C285.758820,264.445953 285.763672,261.513062 286.058838,258.406372 
	C286.557861,258.147186 286.766663,258.061798 287.333527,257.928040 
	C290.754791,253.627182 292.095337,248.563583 294.320984,243.966354 
	C296.860748,238.720337 295.419708,234.782242 291.813538,232.209076 
	C284.987854,227.338638 283.080475,221.212631 283.870667,213.324615 
	C284.167725,210.359421 284.839172,208.345276 287.508301,206.935211 
	C289.958588,205.640762 293.321838,204.579071 294.396759,202.458694 
	C297.547760,196.242889 302.445831,196.664917 307.886444,197.401352 
	C309.539856,197.625137 311.283325,197.183624 313.290192,197.021713 
	C314.073822,197.292007 314.552826,197.587402 315.201385,198.179901 
	C316.664948,199.498566 317.829041,200.783310 319.274963,201.497086 
	C326.346344,204.987778 328.454468,211.299927 328.954071,218.427673 
	C329.198914,221.921341 328.887024,225.454025 328.755371,229.378128 
	C328.525665,233.223862 328.367706,236.660538 328.033264,240.411530 
	C327.236206,244.509872 326.615631,248.293900 326.080231,252.483246 
	C326.443939,254.839890 326.847229,256.782776 326.979828,258.743927 
	C327.631042,268.376770 326.898468,277.873291 323.647339,287.288177 
	C321.201782,292.802032 318.723969,298.051361 317.019592,303.540833 
	C315.781677,307.527893 315.566895,311.832581 314.613586,316.252930 
	C314.172577,322.638947 314.013855,328.767670 313.854614,335.255035 
	C313.898407,336.088837 313.942749,336.564056 313.599548,337.022705 
	C306.030182,335.495972 303.314941,337.143677 300.107147,343.825958 
	C299.226532,345.660461 296.722778,346.715820 294.732147,348.053345 
	C294.500458,347.977966 294.023834,348.079407 293.821045,348.021851 
	C293.618286,347.964264 293.196716,347.958160 293.067017,347.704163 
	C292.643463,347.217621 292.349640,346.985107 291.923218,346.447449 
	C291.561646,345.099854 291.332642,344.057404 291.124695,342.656036 
	C290.438568,341.843201 289.731354,341.389252 289.024170,340.935303 
z"/>
<path fill="#F8C7B3" opacity="1.000000" stroke="none" 
	d="
M207.143585,100.730545 
	C216.731567,108.664337 222.182175,119.112175 224.638992,131.040298 
	C226.554367,140.339767 221.948166,147.415588 214.879562,153.675964 
	C214.337204,153.899506 214.179001,153.817963 213.947113,153.418182 
	C213.145370,152.856827 212.417313,152.613678 211.704407,152.305923 
	C211.719589,152.241302 211.777237,152.360886 211.692352,152.005569 
	C209.274857,149.541031 207.046005,146.195099 203.496948,148.884537 
	C201.783585,150.182922 201.107895,152.850647 199.962357,154.898346 
	C190.430847,166.893738 179.221100,175.712860 162.898926,176.088730 
	C146.659119,176.462692 141.802521,167.557617 144.609970,153.430099 
	C146.722198,142.801132 150.509094,132.505798 153.520660,122.053345 
	C153.792068,121.111305 153.844391,120.106148 154.409973,118.679214 
	C158.752014,116.415527 164.380722,115.646172 166.266113,112.577171 
	C170.427917,105.802689 172.696045,97.817909 171.238708,89.522842 
	C170.439301,84.972725 169.100082,80.517448 168.004242,76.019409 
	C168.771317,75.379333 169.538391,74.739258 170.919632,74.239197 
	C176.092285,74.875160 180.761368,74.908180 185.185806,75.965263 
	C193.879807,78.042404 196.473846,86.416122 190.642166,93.292137 
	C187.371002,97.149117 183.584778,100.569283 179.748993,104.323799 
	C178.535629,105.329659 177.603851,106.197968 176.328598,107.130661 
	C169.989960,115.258598 174.562775,124.109413 172.926178,132.497665 
	C173.608719,132.745514 174.291275,132.993378 174.973831,133.241226 
	C176.618423,130.857513 178.263000,128.473801 180.164047,126.055145 
	C180.590408,125.990143 180.760330,125.960083 181.284988,125.904251 
	C182.717468,123.536278 183.795197,121.194077 184.891296,118.918167 
	C184.909668,118.984459 184.824402,118.876488 185.192841,118.889557 
	C187.374969,117.602585 189.188660,116.302544 191.365524,114.934860 
	C193.372513,113.905556 195.188660,113.145203 196.612381,111.926453 
	C198.080093,110.670059 199.165741,108.967331 200.470825,107.474083 
	C200.523117,107.488281 200.538788,107.381073 200.932892,107.552856 
	C202.124649,106.711800 202.922318,105.698952 203.803711,104.784134 
	C203.887421,104.882164 203.679901,104.729134 204.061066,104.767723 
	C204.897614,103.801666 205.353012,102.797020 205.852905,101.854210 
	C205.897385,101.916046 205.761948,101.846268 206.061859,101.765869 
	C206.622375,101.367165 206.882980,101.048851 207.143585,100.730545 
M175.991852,157.090515 
	C175.665390,150.720016 175.338928,144.349518 175.012466,137.979019 
	C174.906723,137.997452 174.800995,138.015884 174.695251,138.034302 
	C174.695251,145.474457 174.695251,152.914612 174.695251,160.354767 
	C175.002228,160.347595 175.309219,160.340424 175.616196,160.333252 
	C175.739563,159.543701 175.862930,158.754150 175.991852,157.090515 
z"/>
<path fill="#050406" opacity="1.000000" stroke="none" 
	d="
M315.031830,197.882797 
	C314.552826,197.587402 314.073822,197.292007 312.952148,196.845642 
	C311.173370,196.452454 310.029297,196.242264 308.902405,195.962753 
	C301.854767,194.214615 295.799469,195.044937 291.450104,201.788620 
	C290.506927,203.250992 287.944794,203.568771 286.561310,204.873016 
	C284.829376,206.505737 282.408051,208.531998 282.266296,210.529037 
	C281.697540,218.544281 280.637451,226.985718 288.758484,232.567261 
	C289.412903,233.017044 289.815277,233.838882 290.321625,234.497925 
	C294.113464,239.433350 292.541229,248.161850 286.798859,252.028473 
	C284.348724,250.128952 282.244476,248.351868 280.112854,246.417664 
	C279.979675,246.046616 279.807587,245.933533 279.454041,245.668243 
	C279.208252,245.283737 279.077576,245.152298 278.862823,244.749359 
	C278.271790,243.925262 277.764862,243.372635 277.134644,242.499664 
	C269.648834,232.818008 261.531281,223.846146 260.972900,210.664780 
	C260.957031,209.888718 260.895355,209.446457 260.852936,208.560898 
	C260.792542,205.762070 260.712891,203.406525 260.745789,200.713837 
	C260.865662,199.905029 260.872955,199.433380 260.948730,198.572998 
	C260.976196,197.135330 260.935242,196.086411 260.914124,194.714417 
	C260.910095,193.961563 260.886261,193.531754 261.042358,192.863998 
	C261.491089,192.108948 261.759888,191.591843 262.028717,191.074738 
	C266.342224,176.462936 279.929382,166.905533 293.329498,168.618637 
	C296.388428,169.009689 300.076477,167.910538 302.855743,166.375854 
	C309.538300,162.685791 316.523651,161.553757 323.992004,161.846848 
	C327.116180,161.969437 330.267090,161.411530 333.838440,161.059082 
	C337.960236,161.632095 341.700104,162.109650 345.326752,163.032364 
	C350.866730,164.441910 356.294281,166.294403 361.836731,167.692688 
	C364.987640,168.487640 368.285522,168.680786 371.493073,169.275345 
	C375.498505,170.017822 379.479065,170.894440 383.905701,172.192230 
	C380.832916,178.879684 376.695892,184.825729 373.970459,191.360504 
	C370.277130,200.216019 367.735168,209.444931 359.153595,215.379303 
	C357.602722,216.451752 356.856842,220.350510 357.492096,222.401596 
	C358.009857,224.073364 361.061249,225.115799 363.148224,226.100052 
	C365.027069,226.986160 367.121979,227.414093 368.897156,228.328369 
	C361.944397,232.536377 356.157104,230.175095 350.560303,226.009155 
	C348.153503,224.217697 345.562531,222.673630 343.185852,220.698792 
	C345.311401,216.971542 347.458344,213.641342 349.270782,210.138092 
	C353.584198,201.800842 357.739502,193.381790 361.946716,184.641022 
	C359.940063,181.518433 358.442474,178.112640 355.859467,176.099670 
	C347.350189,169.468231 330.921875,171.888931 323.990021,180.679642 
	C320.298920,185.360519 317.501129,190.607101 319.000122,197.246704 
	C318.972809,197.479996 318.992798,197.949371 318.596863,197.976822 
	C317.144592,197.963791 316.088196,197.923294 315.031830,197.882797 
z"/>
<path fill="#656668" opacity="1.000000" stroke="none" 
	d="
M407.159790,315.960724 
	C408.050903,317.281555 409.345306,318.488220 409.757477,319.944580 
	C410.989014,324.296295 413.299377,326.703125 418.158630,326.556488 
	C420.923248,326.473053 432.163025,317.418427 432.848053,314.786987 
	C433.534790,312.149017 435.135284,309.748962 436.654480,307.069946 
	C437.628418,308.718201 438.910034,310.573303 438.818634,312.358063 
	C438.559509,317.417877 440.729462,320.380096 445.210083,322.470642 
	C450.260590,324.827209 454.945526,327.966675 459.994263,330.327759 
	C464.536743,332.452057 469.371094,333.946533 474.045776,335.796967 
	C475.691437,336.448456 477.245392,337.331573 478.950684,338.861389 
	C479.177063,344.526215 476.500885,347.700317 472.512939,350.006409 
	C467.387390,352.970276 461.769196,353.963745 456.119049,352.566284 
	C449.203827,350.855988 442.362793,348.712921 435.675629,346.251770 
	C429.292877,343.902649 423.031158,342.678802 416.170654,343.798645 
	C408.761169,345.008026 401.489014,344.719330 397.045288,337.031097 
	C395.958099,336.787750 394.870941,336.544403 393.450623,335.897644 
	C394.736115,333.708466 396.354736,331.922760 398.249115,330.093506 
	C398.707062,330.087738 398.889313,330.125519 399.302795,330.365417 
	C400.692169,327.766724 402.322357,325.055450 402.875702,322.139862 
	C403.428711,319.225891 403.379730,316.425507 407.159790,315.960724 
z"/>
<path fill="#656668" opacity="1.000000" stroke="none" 
	d="
M294.963837,348.128693 
	C296.722778,346.715820 299.226532,345.660461 300.107147,343.825958 
	C303.314941,337.143677 306.030182,335.495972 313.801239,337.288574 
	C315.593872,339.401947 316.797302,341.232941 318.017273,343.431946 
	C320.123016,346.608643 322.212189,349.417389 324.301392,352.226105 
	C322.855408,356.732239 323.895111,360.497711 327.255127,363.897247 
	C331.414825,368.105896 335.479645,372.434967 339.250397,376.989380 
	C340.968964,379.065094 341.883972,381.806122 342.746765,384.764343 
	C339.549164,386.171875 336.753357,387.846893 333.990356,387.794373 
	C327.058167,387.662537 320.129333,386.857086 313.220612,386.120300 
	C305.495331,385.296356 298.781616,382.712158 294.694366,375.355377 
	C293.812103,373.767426 291.637726,372.933044 290.169464,371.626892 
	C287.788086,369.508575 285.498383,367.287262 283.169983,365.109406 
	C284.080261,361.307587 284.990540,357.505737 286.399231,353.255310 
	C286.891602,350.856812 286.885498,348.906921 286.879425,346.957001 
	C287.176270,345.856995 287.473145,344.757019 288.291168,343.332306 
	C289.576111,343.010040 290.339844,343.012482 291.103607,343.014893 
	C291.332642,344.057404 291.561646,345.099854 292.019897,346.725739 
	C292.564972,347.525482 292.880859,347.741821 293.196716,347.958160 
	C293.196716,347.958160 293.618286,347.964264 293.899902,348.177734 
	C294.442261,348.303711 294.703064,348.216187 294.963837,348.128693 
z"/>
<path fill="#747675" opacity="1.000000" stroke="none" 
	d="
M287.855530,290.973022 
	C288.276611,293.066101 288.697693,295.159210 289.056030,297.656982 
	C264.401581,294.226440 239.819351,290.328308 215.207199,286.629333 
	C211.836197,286.122681 208.316208,286.607361 204.383041,286.272827 
	C200.595413,284.943878 197.308182,283.906464 193.980164,283.022644 
	C188.978882,281.694427 183.949020,280.473816 179.275330,279.001221 
	C181.444992,278.532928 183.270584,278.270844 185.509964,277.990173 
	C189.674271,277.573578 193.433105,277.240997 197.173889,276.766205 
	C212.129257,274.867920 227.079010,272.925415 242.418518,270.997467 
	C243.584076,270.983032 244.361984,270.970367 245.365448,270.970886 
	C245.591034,270.984100 246.017700,271.133057 246.060364,271.434998 
	C247.064728,271.185455 248.026428,270.633972 249.307892,269.962372 
	C250.079086,269.861084 250.530518,269.879913 251.031006,270.253540 
	C253.726074,272.725220 255.581482,271.777039 257.397949,268.958862 
	C259.520721,268.852570 261.232635,268.872162 263.106323,269.132355 
	C263.842560,268.933533 264.416931,268.494141 265.321686,267.937927 
	C266.103485,267.893768 266.554962,267.966431 267.066406,268.389771 
	C269.968048,271.208801 271.700928,269.871704 273.364746,266.910095 
	C274.494598,266.898499 275.255219,267.007080 276.102081,267.491394 
	C278.789795,268.248199 281.391235,268.629303 283.994049,269.472351 
	C284.335541,275.605560 284.505981,281.295746 285.133789,286.934967 
	C285.292938,288.364288 286.908936,289.631378 287.855530,290.973022 
z"/>
<path fill="#808485" opacity="1.000000" stroke="none" 
	d="
M280.140228,246.574799 
	C282.244476,248.351868 284.348724,250.128952 286.955078,252.330307 
	C287.296631,254.495209 287.136017,256.235809 286.975433,257.976440 
	C286.766663,258.061798 286.557861,258.147186 285.640167,258.295166 
	C277.022552,257.238647 269.110931,256.139709 261.205719,254.996674 
	C236.002151,251.352463 210.800949,247.691879 185.135803,244.015396 
	C181.800003,243.689514 178.927231,243.385849 175.631226,243.040710 
	C171.835022,242.634521 168.462036,242.269821 164.940399,241.696259 
	C164.303818,241.364014 163.815903,241.240631 163.328003,241.117264 
	C163.242493,238.631317 162.960175,236.128571 163.170319,233.667877 
	C163.252090,232.710297 164.444336,231.847565 165.784851,231.245850 
	C170.959274,232.035004 175.479645,232.519943 180.250992,233.283356 
	C182.580551,234.058304 184.775146,234.284668 186.709915,235.115845 
	C189.466446,236.300018 190.589569,235.043640 191.633804,232.790771 
	C196.521606,222.245743 201.454758,211.721420 206.431351,201.217972 
	C210.288864,193.076447 214.234528,184.976685 218.433548,177.025360 
	C220.158783,179.197906 221.591476,181.203430 222.999207,183.565231 
	C216.181900,199.957138 209.389557,215.992767 202.250000,232.092255 
	C199.408752,233.055679 196.914734,233.955246 193.000793,235.366943 
	C196.349823,236.138321 198.202377,236.698532 200.096344,236.979568 
	C212.150101,238.768143 224.226669,240.406525 236.269226,242.265961 
	C249.895844,244.369980 263.487152,246.704163 277.122925,248.743744 
	C278.000916,248.875076 279.128662,247.336533 280.140228,246.574799 
z"/>
<path fill="#F9C7B2" opacity="1.000000" stroke="none" 
	d="
M248.682800,91.042862 
	C245.407501,98.717949 237.971634,98.378700 231.436127,98.632652 
	C223.913269,98.924995 216.335129,97.794151 208.387878,96.976364 
	C208.174728,96.397957 208.354706,96.124596 208.956299,95.882401 
	C210.005142,95.775650 211.170197,95.672867 211.181824,95.494728 
	C211.598007,89.125580 211.907822,82.749458 212.211182,76.373291 
	C212.214539,76.302727 211.848022,76.252243 211.804825,76.136269 
	C210.681549,73.121185 209.120575,70.176109 208.592850,67.056915 
	C207.996414,63.531616 204.989822,59.923946 201.410873,59.744415 
	C201.335144,59.657578 201.224045,59.455692 201.421387,59.100262 
	C202.420868,55.171490 203.223007,51.598148 204.426605,48.010559 
	C205.776657,47.746876 206.715744,47.450310 207.675568,47.256466 
	C211.154678,46.553829 214.905472,44.797699 218.037735,45.559830 
	C220.405884,46.136047 222.196579,46.236664 224.338425,45.580887 
	C224.376373,45.608810 224.469009,45.626160 224.338013,45.989437 
	C226.153809,47.899529 228.100616,49.446346 230.047424,50.993160 
	C230.047424,50.993160 230.106506,51.389042 230.098511,51.967133 
	C231.011627,54.031075 231.932755,55.516922 232.853867,57.002773 
	C232.921600,57.412750 232.989349,57.822731 233.039810,58.955555 
	C234.472321,64.304756 235.848404,68.956955 237.451538,73.529556 
	C237.691452,74.213875 238.996017,74.524925 239.808075,75.008659 
	C240.198105,77.414665 240.588135,79.820671 240.583862,82.664017 
	C235.455795,85.621635 230.722015,88.141922 225.988235,90.662209 
	C225.996048,90.909622 226.003860,91.157036 226.011688,91.404449 
	C230.639954,89.941887 235.268219,88.479324 239.896484,87.016754 
	C242.690872,88.336884 245.485260,89.657013 248.682800,91.042862 
z"/>
<path fill="#2E4E8D" opacity="1.000000" stroke="none" 
	d="
M223.024170,183.208954 
	C221.591476,181.203430 220.158783,179.197906 218.281464,176.725204 
	C215.112198,172.547028 212.387543,168.836029 209.662872,165.125031 
	C207.349655,161.978394 205.036423,158.831772 202.636658,155.055328 
	C202.186249,150.555862 204.084488,149.892151 207.319214,151.014740 
	C208.784470,151.523239 210.289993,151.915756 211.777237,152.360886 
	C211.777237,152.360886 211.719589,152.241302 211.784363,152.519562 
	C212.093155,152.998871 212.286316,153.240585 212.484894,153.874298 
	C215.450684,155.390976 218.360168,156.556335 221.269669,157.721680 
	C221.269669,157.721680 221.153336,157.866516 221.210114,158.130463 
	C222.516922,159.262329 223.766953,160.130264 225.016968,160.998184 
	C225.016968,160.998184 224.996780,161.000595 225.009491,161.315216 
	C225.461197,162.009430 225.900177,162.389008 226.339142,162.768585 
	C226.339142,162.768585 226.195969,162.741501 226.172653,163.083939 
	C227.179108,164.215790 228.208893,165.005188 229.238663,165.794601 
	C229.238663,165.794601 229.032227,165.898422 229.063446,166.180267 
	C230.403519,168.287628 231.712372,170.113159 233.159103,172.253601 
	C235.967361,175.592422 238.479874,178.779709 241.371658,181.574554 
	C242.924622,183.075424 245.129044,183.902206 247.037048,185.354614 
	C247.039642,186.104584 247.044678,186.533142 246.730164,187.020035 
	C246.167206,187.557266 245.608444,188.345963 245.728287,188.467957 
	C247.223862,189.990143 248.767532,191.475113 250.397156,192.853424 
	C253.735001,195.676605 254.767181,201.390350 260.633240,201.050995 
	C260.712891,203.406525 260.792542,205.762070 260.663116,208.724838 
	C260.611694,209.887573 260.769348,210.443085 260.927032,210.998581 
	C261.531281,223.846146 269.648834,232.818008 276.717712,242.543884 
	C273.634094,242.448181 270.844147,241.987930 267.968933,241.161377 
	C264.203644,235.966232 260.489380,231.162994 256.850433,226.303421 
	C248.339417,214.937485 239.941803,203.485504 231.326080,192.199814 
	C228.861618,188.971664 225.807755,186.193466 223.024170,183.208954 
z"/>
<path fill="#454546" opacity="1.000000" stroke="none" 
	d="
M277.893768,97.067566 
	C276.974060,96.596306 276.054321,96.125053 274.959564,95.383286 
	C270.326447,87.915321 268.230988,80.201653 268.978424,71.646927 
	C269.680695,63.609413 273.687042,57.563168 280.020813,52.544151 
	C282.686554,52.744217 284.803314,52.560047 286.859894,52.831482 
	C302.856628,54.942783 312.081421,74.737213 307.727661,88.758469 
	C307.092773,86.105362 306.829895,83.681892 306.351593,81.301720 
	C306.063080,79.866104 305.439667,78.497787 304.966766,77.099228 
	C303.979919,78.347809 302.291351,79.518059 302.141510,80.860092 
	C301.737732,84.477112 302.576385,88.296135 301.809174,91.790672 
	C301.107208,94.987778 301.723236,97.080940 303.984863,99.382690 
	C304.005554,100.220757 304.058563,100.697548 304.081543,101.143196 
	C304.051514,101.112045 304.126312,101.068565 303.753784,101.048752 
	C302.937103,101.540482 302.492950,102.052032 301.800293,102.785736 
	C300.034454,103.359497 298.517181,103.711090 297.033142,103.698662 
	C296.925751,102.036713 297.016174,100.633987 296.503937,99.504616 
	C296.349854,99.164940 293.765686,99.262512 293.573914,99.709076 
	C291.899872,103.607552 288.736023,102.001511 286.009338,102.013496 
	C286.009338,102.013496 285.995148,102.006844 285.877197,101.780975 
	C285.542084,101.283524 285.261780,101.120285 284.918335,101.065376 
	C284.918335,101.065376 284.944702,101.109505 284.922302,100.754578 
	C283.273499,97.798233 281.561127,95.377625 277.893768,97.067566 
M283.235321,84.458191 
	C284.838379,84.031570 286.419312,83.385712 288.048828,83.221527 
	C292.106018,82.812721 292.400848,80.691849 291.368774,77.320869 
	C289.542816,71.356850 285.707672,75.225769 282.879730,75.677704 
	C281.406616,75.913109 279.444427,77.755165 279.080780,79.214706 
	C278.475952,81.642471 279.040863,84.306877 283.235321,84.458191 
M289.294250,96.949310 
	C290.133545,95.296860 291.168091,93.695976 291.630798,91.944054 
	C291.713318,91.631584 289.425171,90.693001 288.231689,90.043526 
	C287.331482,91.709412 286.282928,93.324928 285.682770,95.092682 
	C285.587006,95.374786 287.502594,96.339752 289.294250,96.949310 
M272.991364,79.036240 
	C272.991364,80.891441 272.991364,82.746635 272.991364,84.601837 
	C273.637817,84.549652 274.284302,84.497475 274.930756,84.445290 
	C275.664520,82.561874 278.072815,80.563042 272.991364,79.036240 
M277.797180,93.390739 
	C277.792938,93.785606 277.788696,94.180473 277.784485,94.575333 
	C277.948334,94.576797 278.254608,94.589264 278.255463,94.578133 
	C278.285797,94.185265 278.287537,93.790169 277.797180,93.390739 
z"/>
<path fill="#454546" opacity="1.000000" stroke="none" 
	d="
M132.649475,83.922981 
	C133.719955,76.262787 134.685059,68.557999 141.951538,63.491089 
	C145.841019,64.566483 149.727402,64.610504 152.396759,66.435051 
	C166.734512,76.235153 169.501801,96.747841 161.423294,109.783401 
	C159.423141,113.010841 155.855972,115.267159 153.009125,117.969879 
	C145.738602,115.895744 141.247208,110.486206 137.323578,104.143326 
	C138.420914,102.499725 139.269836,101.406197 140.338623,100.029465 
	C138.563034,99.212540 137.325623,98.643219 136.088211,98.073898 
	C136.000702,97.584892 135.913177,97.095886 135.825668,96.606880 
	C137.385880,96.071640 138.956955,95.565720 140.503220,94.992813 
	C142.014999,94.432671 143.501480,93.804199 145.420288,93.123749 
	C146.339920,93.016838 146.843689,92.932434 147.335892,92.976723 
	C150.312881,93.244553 152.174637,92.342995 152.088959,88.921738 
	C152.003799,85.520866 150.807266,83.694817 146.995621,83.932259 
	C142.685165,84.200775 138.346497,84.016121 133.679565,83.974564 
	C133.109177,83.921394 132.879318,83.922188 132.649475,83.922981 
z"/>
<path fill="#454545" opacity="1.000000" stroke="none" 
	d="
M297.655640,52.713539 
	C300.538116,49.816772 303.420593,46.920010 306.900024,44.339050 
	C325.228668,44.306114 336.741638,60.555916 334.860626,74.814606 
	C334.203217,79.798058 331.722931,84.541031 330.075104,89.393822 
	C328.299683,90.636177 326.524292,91.878532 324.267151,92.806015 
	C323.143463,92.037621 322.250580,91.047058 321.897583,91.211983 
	C317.373383,93.325935 316.118835,91.346306 315.871613,87.043037 
	C315.745483,84.847290 315.706177,81.823715 312.021667,81.548904 
	C312.020508,78.387909 312.020782,75.678101 312.399139,72.939781 
	C314.573883,72.031471 316.370544,71.151680 318.091034,70.309181 
	C316.879456,63.239582 313.464203,60.066952 306.938171,60.052341 
	C303.596832,57.585785 300.626221,55.149662 297.655640,52.713539 
z"/>
<path fill="#464545" opacity="1.000000" stroke="none" 
	d="
M180.030609,104.186249 
	C183.584778,100.569283 187.371002,97.149117 190.642166,93.292137 
	C196.473846,86.416122 193.879807,78.042404 185.185806,75.965263 
	C180.761368,74.908180 176.092285,74.875160 171.220703,74.178322 
	C171.283020,67.207909 173.132202,61.032547 178.790451,56.026016 
	C179.863388,55.469086 180.253647,55.003708 180.643890,54.538326 
	C180.643890,54.538326 180.703613,54.579407 181.109192,54.734459 
	C185.425125,56.495888 190.071671,57.273121 193.055695,59.922714 
	C196.624771,63.091793 199.495987,67.550949 201.403381,71.994774 
	C207.649521,86.547028 204.138016,98.771896 191.721359,108.324303 
	C191.270920,108.670837 191.169998,109.471657 190.560699,110.026901 
	C186.820358,108.057442 183.425476,106.121841 180.030609,104.186249 
z"/>
<path fill="#898D8C" opacity="1.000000" stroke="none" 
	d="
M178.931290,279.207458 
	C183.949020,280.473816 188.978882,281.694427 193.980164,283.022644 
	C197.308182,283.906464 200.595413,284.943878 203.982086,286.262329 
	C181.870438,290.409973 159.679214,294.217407 137.483734,297.999664 
	C131.281357,299.056610 125.066345,300.039459 118.471603,300.695557 
	C121.392387,295.890137 124.698700,291.445496 128.422485,286.999756 
	C144.550064,284.452545 160.260162,281.906403 176.336044,279.280273 
	C177.444992,279.202637 178.188141,279.205048 178.931290,279.207458 
z"/>
<path fill="#494C4D" opacity="1.000000" stroke="none" 
	d="
M324.698608,352.189209 
	C322.212189,349.417389 320.123016,346.608643 318.428192,343.432861 
	C327.341797,340.814484 335.861053,338.563141 344.502747,336.273987 
	C344.625214,336.236145 344.870636,336.140289 345.304901,336.130249 
	C356.148560,333.690186 366.592194,331.395081 376.951416,328.767212 
	C381.437653,327.629150 385.749908,325.804962 390.511536,324.340881 
	C393.245728,326.305267 395.609558,328.221161 397.973389,330.137054 
	C396.354736,331.922760 394.736115,333.708466 393.081024,335.831879 
	C378.939240,339.537018 364.840118,342.930939 350.726257,346.262146 
	C342.194611,348.275787 333.640045,350.192169 324.698608,352.189209 
z"/>
<path fill="#7A7E80" opacity="1.000000" stroke="none" 
	d="
M209.466293,165.439240 
	C212.387543,168.836029 215.112198,172.547028 217.988922,176.558197 
	C214.234528,184.976685 210.288864,193.076447 206.431351,201.217972 
	C201.454758,211.721420 196.521606,222.245743 191.633804,232.790771 
	C190.589569,235.043640 189.466446,236.300018 186.709915,235.115845 
	C184.775146,234.284668 182.580551,234.058304 180.289337,232.931671 
	C182.989899,228.945557 186.450653,225.847168 185.537415,220.691483 
	C185.537415,220.691483 185.486908,220.662155 185.789520,220.682556 
	C186.037003,220.127701 185.981842,219.552414 185.926682,218.977142 
	C193.707687,201.235916 201.488693,183.494690 209.466293,165.439240 
z"/>
<path fill="#F3C6B0" opacity="1.000000" stroke="none" 
	d="
M296.999878,104.062683 
	C298.517181,103.711090 300.034454,103.359497 302.106201,102.658157 
	C303.149170,101.895119 303.637726,101.481834 304.126312,101.068558 
	C304.126312,101.068565 304.051514,101.112045 304.434265,101.073471 
	C305.200684,100.797279 305.759918,100.652191 305.941254,100.308006 
	C308.306061,95.819160 310.617340,91.302116 313.259766,86.991913 
	C314.093414,89.214844 314.609375,91.238037 315.125366,93.261230 
	C315.386749,100.841545 315.873291,108.422722 315.843903,116.001915 
	C315.816467,123.081436 315.241302,130.158829 314.816284,137.685608 
	C313.669342,136.117599 312.282715,134.204636 311.613586,132.067062 
	C308.436615,121.918266 301.957275,114.243721 293.876984,107.054092 
	C294.699493,105.645897 295.525970,104.881691 296.520996,104.182861 
	C296.689545,104.248238 296.999878,104.062683 296.999878,104.062683 
z"/>
<path fill="#0E0F10" opacity="1.000000" stroke="none" 
	d="
M396.968872,337.350891 
	C401.489014,344.719330 408.761169,345.008026 416.170654,343.798645 
	C423.031158,342.678802 429.292877,343.902649 435.675629,346.251770 
	C442.362793,348.712921 449.203827,350.855988 456.119049,352.566284 
	C461.769196,353.963745 467.387390,352.970276 472.512939,350.006409 
	C476.500885,347.700317 479.177063,344.526215 479.039368,339.207336 
	C482.497589,343.093079 480.179047,346.691803 477.288055,349.783844 
	C470.220642,357.342804 461.301331,357.910278 451.957428,355.540527 
	C447.317627,354.363800 442.808655,352.638611 438.290924,351.020721 
	C431.102478,348.446442 423.806915,347.859161 416.244843,348.973663 
	C413.003052,349.451477 409.572754,349.453674 406.333618,348.968079 
	C400.730408,348.128113 395.588684,343.403534 396.968872,337.350891 
z"/>
<path fill="#1C1918" opacity="1.000000" stroke="none" 
	d="
M153.255447,118.069046 
	C155.855972,115.267159 159.423141,113.010841 161.423294,109.783401 
	C169.501801,96.747841 166.734512,76.235153 152.396759,66.435051 
	C149.727402,64.610504 145.841019,64.566483 142.285522,63.400604 
	C148.850647,59.239670 154.616150,60.195789 159.845978,66.199928 
	C162.487549,69.232613 164.950790,72.420631 167.749451,75.778915 
	C169.100082,80.517448 170.439301,84.972725 171.238708,89.522842 
	C172.696045,97.817909 170.427917,105.802689 166.266113,112.577171 
	C164.380722,115.646172 158.752014,116.415527 154.410141,118.291687 
	C153.833130,118.292900 153.667450,118.230553 153.255447,118.069046 
z"/>
<path fill="#1C1918" opacity="1.000000" stroke="none" 
	d="
M190.906174,110.060760 
	C191.169998,109.471657 191.270920,108.670837 191.721359,108.324303 
	C204.138016,98.771896 207.649521,86.547028 201.403381,71.994774 
	C199.495987,67.550949 196.624771,63.091793 193.055695,59.922714 
	C190.071671,57.273121 185.425125,56.495888 181.131226,54.705673 
	C182.527344,53.691990 184.307037,52.862152 186.825989,51.971832 
	C191.025604,53.274040 194.485947,54.636730 198.014664,56.304649 
	C199.130051,57.558483 200.177048,58.507084 201.224045,59.455688 
	C201.224045,59.455692 201.335144,59.657578 201.549988,60.034058 
	C209.315598,71.212822 211.463425,83.047165 208.534683,95.851234 
	C208.354706,96.124596 208.174728,96.397957 208.000198,96.929016 
	C207.459869,98.136742 206.914078,99.086769 206.144562,100.612274 
	C205.867859,101.407265 205.814911,101.626770 205.761948,101.846268 
	C205.761948,101.846268 205.897385,101.916046 205.588440,102.025658 
	C204.746292,102.999893 204.213104,103.864510 203.679901,104.729134 
	C203.679901,104.729134 203.887421,104.882164 203.504532,104.871490 
	C202.260696,105.700905 201.399734,106.540985 200.538788,107.381073 
	C200.538788,107.381073 200.523117,107.488281 200.150604,107.618607 
	C196.856552,108.802544 193.935013,109.856155 191.033203,110.691628 
	C191.052948,110.473488 190.906174,110.060760 190.906174,110.060760 
z"/>
<path fill="#818686" opacity="1.000000" stroke="none" 
	d="
M175.970245,279.360291 
	C160.260162,281.906403 144.550064,284.452545 128.115555,286.850891 
	C125.558350,284.604736 123.725571,282.506378 121.892792,280.408051 
	C135.300674,278.592896 148.708572,276.777771 162.783493,274.880493 
	C163.450531,274.798401 163.944626,274.763885 164.333405,274.866364 
	C168.403091,276.051056 172.084015,277.133270 175.817169,278.501526 
	C175.903000,278.978455 175.936615,279.169373 175.970245,279.360291 
z"/>
<path fill="#656668" opacity="1.000000" stroke="none" 
	d="
M197.946289,55.999420 
	C194.485947,54.636730 191.025604,53.274040 187.159653,51.853828 
	C187.657532,44.676609 194.148117,42.652840 198.678635,38.908642 
	C201.192383,36.831177 204.172546,35.322739 206.915756,33.517235 
	C211.660614,30.394306 215.854630,31.351210 218.665390,36.857964 
	C217.265656,42.938763 212.230347,41.337795 209.117142,41.574802 
	C205.528229,41.848011 204.837051,42.992218 204.851562,46.153301 
	C204.412842,46.566837 204.103882,46.741577 203.486877,46.784386 
	C202.478378,47.627651 201.777924,48.602848 201.070099,49.911747 
	C200.023926,52.163437 198.985107,54.081429 197.946289,55.999420 
z"/>
<path fill="#0E0F10" opacity="1.000000" stroke="none" 
	d="
M283.062500,365.441101 
	C285.498383,367.287262 287.788086,369.508575 290.169464,371.626892 
	C291.637726,372.933044 293.812103,373.767426 294.694366,375.355377 
	C298.781616,382.712158 305.495331,385.296356 313.220612,386.120300 
	C320.129333,386.857086 327.058167,387.662537 333.990356,387.794373 
	C336.753357,387.846893 339.549164,386.171875 342.669373,385.138062 
	C343.287445,388.457336 340.989227,390.085358 338.212769,390.095642 
	C327.975677,390.133484 317.694092,390.247345 307.523590,389.309509 
	C304.172211,389.000458 300.835175,385.917175 297.974335,383.525024 
	C293.729187,379.975494 290.869354,374.923706 284.919708,373.157379 
	C283.646271,372.779388 283.578308,368.340790 283.062500,365.441101 
z"/>
<path fill="#1B1B1B" opacity="1.000000" stroke="none" 
	d="
M330.434113,89.315804 
	C331.722931,84.541031 334.203217,79.798058 334.860626,74.814606 
	C336.741638,60.555916 325.228668,44.306114 307.252380,44.334381 
	C316.387543,39.651375 333.800598,47.489056 337.803009,63.694771 
	C339.646301,71.158279 339.250153,78.604309 334.963593,85.320831 
	C333.969116,86.879021 332.203766,87.945206 330.434113,89.315804 
z"/>
<path fill="#1C1918" opacity="1.000000" stroke="none" 
	d="
M312.942078,86.792175 
	C310.617340,91.302116 308.306061,95.819160 305.941254,100.308006 
	C305.759918,100.652191 305.200684,100.797279 304.464294,101.104622 
	C304.058563,100.697548 304.005554,100.220757 304.256927,99.157730 
	C305.710510,95.383110 306.859711,92.194725 308.008911,89.006340 
	C312.081421,74.737213 302.856628,54.942783 286.859894,52.831482 
	C284.803314,52.560047 282.686554,52.744217 280.347565,52.473232 
	C285.843384,49.114044 291.403839,50.884243 297.305878,52.791424 
	C300.626221,55.149662 303.596832,57.585785 306.751953,60.415215 
	C308.631317,64.861778 310.326202,68.915039 312.021057,72.968292 
	C312.020782,75.678101 312.020508,78.387909 312.126465,81.889114 
	C312.469147,84.051056 312.705627,85.421616 312.942078,86.792175 
z"/>
<path fill="#747675" opacity="1.000000" stroke="none" 
	d="
M121.512299,280.417664 
	C123.725571,282.506378 125.558350,284.604736 127.698067,286.851990 
	C124.698700,291.445496 121.392387,295.890137 118.046722,300.682129 
	C115.119270,298.784515 112.231171,296.539612 108.577507,293.699646 
	C113.140198,288.875977 117.135994,284.651611 121.512299,280.417664 
z"/>
<path fill="#E9CBBE" opacity="1.000000" stroke="none" 
	d="
M369.121613,228.044098 
	C367.121979,227.414093 365.027069,226.986160 363.148224,226.100052 
	C361.061249,225.115799 358.009857,224.073364 357.492096,222.401596 
	C356.856842,220.350510 357.602722,216.451752 359.153595,215.379303 
	C367.735168,209.444931 370.277130,200.216019 373.970459,191.360504 
	C376.695892,184.825729 380.832916,178.879684 384.269714,172.302582 
	C384.928894,172.272934 385.659302,172.612030 386.692261,173.007141 
	C380.835510,181.557114 374.955170,190.030594 372.666595,200.723358 
	C371.456116,206.378983 367.491974,211.136597 362.955078,215.211487 
	C361.305084,216.693436 360.222595,219.694580 360.360474,221.910538 
	C360.430847,223.041428 363.674286,224.282761 365.661621,224.908661 
	C368.155792,225.694214 370.832642,225.899933 373.544037,226.854187 
	C372.145508,227.583008 370.633545,227.813568 369.121613,228.044098 
z"/>
<path fill="#737575" opacity="1.000000" stroke="none" 
	d="
M185.239883,220.821945 
	C186.450653,225.847168 182.989899,228.945557 180.038361,232.653198 
	C175.479645,232.519943 170.959274,232.035004 166.202148,231.243210 
	C168.804581,230.219925 171.607330,229.209900 174.491028,228.851624 
	C179.601913,228.216660 183.408310,226.170441 185.239883,220.821945 
z"/>
<path fill="#494C4D" opacity="1.000000" stroke="none" 
	d="
M163.944611,274.763885 
	C163.944626,274.763885 163.450531,274.798401 163.224060,274.898529 
	C163.062881,264.009125 163.128174,253.019577 163.260742,241.573654 
	C163.815903,241.240631 164.303818,241.364014 164.907990,242.174194 
	C165.013535,251.266403 165.073837,259.672913 164.944489,268.076508 
	C164.910110,270.310242 164.293762,272.535004 163.944611,274.763885 
z"/>
<path fill="#5C5857" opacity="1.000000" stroke="none" 
	d="
M204.981308,45.914505 
	C204.837051,42.992218 205.528229,41.848011 209.117142,41.574802 
	C212.230347,41.337795 217.265656,42.938763 218.732422,37.211494 
	C220.783646,38.841156 222.591919,40.647362 224.291779,42.550419 
	C226.010544,44.474609 227.621918,46.494728 229.073700,48.757576 
	C227.401031,47.903603 225.935028,46.764881 224.469009,45.626160 
	C224.469009,45.626160 224.376373,45.608810 224.198486,45.280830 
	C221.166397,41.936222 217.890427,40.876747 213.866302,42.655006 
	C213.509506,42.664459 213.260681,42.806698 212.653656,43.058475 
	C209.857407,44.083511 207.419357,44.999008 204.981308,45.914505 
z"/>
<path fill="#737575" opacity="1.000000" stroke="none" 
	d="
M132.281937,83.899368 
	C132.879318,83.922188 133.109177,83.921394 133.699936,84.357376 
	C134.049652,87.606216 134.038437,90.418282 133.916550,93.410133 
	C133.597351,93.790741 133.351883,93.923004 133.069473,93.986725 
	C130.434387,93.062790 127.406700,92.082382 128.219971,88.581207 
	C128.628693,86.821617 130.632126,85.432442 132.281937,83.899368 
z"/>
<path fill="#464545" opacity="1.000000" stroke="none" 
	d="
M133.007141,94.364014 
	C133.351883,93.923004 133.597351,93.790741 134.370483,93.361824 
	C138.289749,93.157730 141.644409,93.181732 144.999069,93.205734 
	C143.501480,93.804199 142.014999,94.432671 140.503220,94.992813 
	C138.956955,95.565720 137.385880,96.071640 135.825668,96.606880 
	C135.913177,97.095886 136.000702,97.584892 136.088211,98.073898 
	C137.325623,98.643219 138.563034,99.212540 140.338623,100.029465 
	C139.269836,101.406197 138.420914,102.499725 137.292328,103.794113 
	C135.656708,100.910416 134.300766,97.825859 133.007141,94.364014 
z"/>
<path fill="#464545" opacity="1.000000" stroke="none" 
	d="
M313.259766,86.991913 
	C312.705627,85.421616 312.469147,84.051056 312.127869,82.340294 
	C315.706177,81.823715 315.745483,84.847290 315.871613,87.043037 
	C316.118835,91.346306 317.373383,93.325935 321.897583,91.211983 
	C322.250580,91.047058 323.143463,92.037621 323.906525,92.781677 
	C321.341614,93.163795 318.655609,93.255386 315.547485,93.304108 
	C314.609375,91.238037 314.093414,89.214844 313.259766,86.991913 
z"/>
<path fill="#E9CBBE" opacity="1.000000" stroke="none" 
	d="
M211.692352,152.005569 
	C210.289993,151.915756 208.784470,151.523239 207.319214,151.014740 
	C204.084488,149.892151 202.186249,150.555862 202.450378,154.737030 
	C201.755081,155.004654 201.159500,154.960739 200.263153,154.907593 
	C201.107895,152.850647 201.783585,150.182922 203.496948,148.884537 
	C207.046005,146.195099 209.274857,149.541031 211.692352,152.005569 
z"/>
<path fill="#E5B09C" opacity="1.000000" stroke="none" 
	d="
M239.931610,86.670807 
	C235.268219,88.479324 230.639954,89.941887 226.011688,91.404449 
	C226.003860,91.157036 225.996048,90.909622 225.988235,90.662209 
	C230.722015,88.141922 235.455795,85.621635 240.526550,83.075706 
	C240.564590,84.141663 240.265656,85.233253 239.931610,86.670807 
z"/>
<path fill="#E9CBBE" opacity="1.000000" stroke="none" 
	d="
M239.823257,74.640732 
	C238.996017,74.524925 237.691452,74.213875 237.451538,73.529556 
	C235.848404,68.956955 234.472321,64.304756 233.048676,59.267422 
	C234.369110,61.376698 235.785858,63.843182 236.923035,66.432449 
	C238.042358,68.981102 238.878204,71.654266 239.823257,74.640732 
z"/>
<path fill="#E9CBBE" opacity="1.000000" stroke="none" 
	d="
M224.338013,45.989437 
	C225.935028,46.764881 227.401031,47.903603 229.240112,49.100018 
	C229.767654,49.602798 229.922134,50.047890 230.062012,50.743073 
	C228.100616,49.446346 226.153809,47.899529 224.338013,45.989437 
z"/>
<path fill="#E9CBBE" opacity="1.000000" stroke="none" 
	d="
M397.019409,176.594360 
	C395.134918,176.202896 393.127808,175.477325 391.058136,174.396133 
	C392.962646,174.780426 394.929688,175.520340 397.019409,176.594360 
z"/>
<path fill="#5C5857" opacity="1.000000" stroke="none" 
	d="
M286.728638,347.305237 
	C286.885498,348.906921 286.891602,350.856812 286.545013,352.892212 
	C286.320831,351.202942 286.449310,349.428192 286.728638,347.305237 
z"/>
<path fill="#E9CBBE" opacity="1.000000" stroke="none" 
	d="
M232.843964,56.648148 
	C231.932755,55.516922 231.011627,54.031075 230.098938,52.167267 
	C231.016266,53.290714 231.925156,54.792122 232.843964,56.648148 
z"/>
<path fill="#5C5857" opacity="1.000000" stroke="none" 
	d="
M291.124695,342.656006 
	C290.339844,343.012482 289.576111,343.010040 288.431274,343.001434 
	C288.273895,342.487549 288.497528,341.979828 288.872681,341.203705 
	C289.731354,341.389252 290.438568,341.843201 291.124695,342.656006 
z"/>
<path fill="#1C1918" opacity="1.000000" stroke="none" 
	d="
M180.330795,54.543831 
	C180.253647,55.003708 179.863388,55.469086 179.112640,55.938667 
	C179.174011,55.478355 179.595856,55.013844 180.330795,54.543831 
z"/>
<path fill="#737575" opacity="1.000000" stroke="none" 
	d="
M185.749146,219.221405 
	C185.981842,219.552414 186.037003,220.127701 185.778442,220.655548 
	C185.500351,220.227310 185.535980,219.846481 185.749146,219.221405 
z"/>
<path fill="#F3C6B0" opacity="1.000000" stroke="none" 
	d="
M315.906006,139.763199 
	C315.518463,139.650421 315.159027,139.232376 314.790100,138.525421 
	C315.165131,138.643646 315.549622,139.050781 315.906006,139.763199 
z"/>
<path fill="#37415D" opacity="1.000000" stroke="none" 
	d="
M247.049713,186.961685 
	C247.044678,186.533142 247.039642,186.104584 247.357635,185.350601 
	C251.688965,183.501007 247.204956,181.835205 247.814514,180.196426 
	C247.868759,180.139389 247.977448,180.025513 247.977448,180.025513 
	C252.416229,183.740967 256.855011,187.456421 261.661255,191.123291 
	C261.759888,191.591843 261.491089,192.108948 260.702332,192.795776 
	C258.131927,192.847763 256.081512,192.730026 254.039017,192.612732 
	C254.541626,188.298355 252.347137,186.469833 247.049713,186.961685 
z"/>
<path fill="#37415D" opacity="1.000000" stroke="none" 
	d="
M233.021240,171.938690 
	C231.712372,170.113159 230.403519,168.287628 229.153931,166.108444 
	C235.344208,170.326523 241.475189,174.898254 247.791809,179.747742 
	C247.977448,180.025513 247.868759,180.139389 247.461014,180.117172 
	C245.090149,178.836807 243.084335,177.639755 241.174408,176.305450 
	C238.623459,174.523315 237.442352,170.227386 233.021240,171.938690 
z"/>
<path fill="#464545" opacity="1.000000" stroke="none" 
	d="
M297.033142,103.698654 
	C296.999878,104.062683 296.689545,104.248238 296.062561,104.146210 
	C294.227448,104.059753 293.019257,104.075317 291.470856,104.132797 
	C290.445190,104.161095 289.759766,104.147461 289.074341,104.133820 
	C288.165192,103.603577 287.256042,103.073334 286.178101,102.278290 
	C288.736023,102.001511 291.899872,103.607552 293.573914,99.709076 
	C293.765686,99.262512 296.349854,99.164940 296.503937,99.504616 
	C297.016174,100.633987 296.925751,102.036713 297.033142,103.698654 
z"/>
<path fill="#464545" opacity="1.000000" stroke="none" 
	d="
M278.109131,97.328590 
	C281.561127,95.377625 283.273499,97.798233 284.896606,100.755646 
	C282.703735,99.937645 280.514099,98.763634 278.109131,97.328590 
z"/>
<path fill="#37415D" opacity="1.000000" stroke="none" 
	d="
M221.147247,157.414581 
	C218.360168,156.556335 215.450684,155.390976 212.744568,153.950531 
	C213.305573,153.695770 213.663177,153.716095 214.020782,153.736420 
	C214.179001,153.817963 214.337204,153.899506 214.762390,153.989502 
	C217.027863,155.034454 219.026337,156.070969 221.147247,157.414581 
z"/>
<path fill="#454546" opacity="1.000000" stroke="none" 
	d="
M291.811096,104.090874 
	C293.019257,104.075317 294.227448,104.059753 295.894043,104.080833 
	C295.525970,104.881691 294.699493,105.645897 293.726318,106.733643 
	C293.579559,107.057167 293.387817,106.955620 293.151733,106.688782 
	C292.547455,105.644920 292.179291,104.867897 291.811096,104.090874 
z"/>
<path fill="#37415D" opacity="1.000000" stroke="none" 
	d="
M224.951828,160.666016 
	C223.766953,160.130264 222.516922,159.262329 221.236115,158.041290 
	C222.432465,158.570053 223.659576,159.451935 224.951828,160.666016 
z"/>
<path fill="#37415D" opacity="1.000000" stroke="none" 
	d="
M229.152649,165.487762 
	C228.208893,165.005188 227.179108,164.215790 226.239410,163.054749 
	C227.241867,163.515717 228.154266,164.348312 229.152649,165.487762 
z"/>
<path fill="#F3C6B0" opacity="1.000000" stroke="none" 
	d="
M291.470856,104.132797 
	C292.179291,104.867897 292.547455,105.644920 293.048401,106.721863 
	C291.883759,106.263336 290.586334,105.504898 289.181641,104.440140 
	C289.759766,104.147461 290.445190,104.161095 291.470856,104.132797 
z"/>
<path fill="#37415D" opacity="1.000000" stroke="none" 
	d="
M226.304352,162.471436 
	C225.900177,162.389008 225.461197,162.009430 225.012482,161.305374 
	C225.425018,161.378693 225.847275,161.776489 226.304352,162.471436 
z"/>
<path fill="#E9CBBE" opacity="1.000000" stroke="none" 
	d="
M206.061859,101.765869 
	C205.814911,101.626770 205.867859,101.407265 206.069809,100.879333 
	C206.218796,100.570915 206.682693,100.633316 206.913147,100.681931 
	C206.882980,101.048851 206.622375,101.367165 206.061859,101.765869 
z"/>
<path fill="#464545" opacity="1.000000" stroke="none" 
	d="
M284.994324,101.314316 
	C285.261780,101.120285 285.542084,101.283524 285.871246,101.775848 
	C285.678925,101.852150 285.374634,101.707710 284.994324,101.314316 
z"/>
<path fill="#FEFEFD" opacity="1.000000" stroke="none" 
	d="
M368.897156,228.328369 
	C370.633545,227.813568 372.145508,227.583008 373.818787,227.112000 
	C382.696472,226.610275 391.412781,226.349030 400.840790,226.321625 
	C403.364929,226.702728 405.177399,226.849991 406.989868,226.997238 
	C407.618774,228.064728 408.247681,229.132217 408.552917,230.656677 
	C407.257080,234.415924 406.284912,237.718201 405.312744,241.020462 
	C405.230652,241.777832 405.148590,242.535187 404.801788,243.909821 
	C404.415558,246.021408 404.294037,247.515717 404.172485,249.010040 
	C404.124115,250.077438 404.075745,251.144852 403.978088,252.979446 
	C404.281769,257.500824 404.634735,261.254974 404.987732,265.009155 
	C410.934845,280.892029 409.207489,297.178406 406.841736,313.717407 
	C402.830566,313.500000 401.993042,315.309082 401.594879,318.253876 
	C401.052643,322.264099 399.939758,326.197174 399.071594,330.163300 
	C398.889313,330.125519 398.707062,330.087738 398.249115,330.093506 
	C395.609558,328.221161 393.245728,326.305267 390.302887,324.076813 
	C385.066620,322.819153 380.203186,320.523590 375.793060,321.196991 
	C365.069611,322.834351 354.556671,325.850555 343.626404,328.171997 
	C342.484161,326.623810 341.572723,325.263031 340.881042,323.798431 
	C335.645599,312.712830 330.453217,301.606842 325.146118,290.220642 
	C324.678680,288.998199 324.312561,288.062378 323.946442,287.126526 
	C326.898468,277.873291 327.631042,268.376770 326.979828,258.743927 
	C326.847229,256.782776 326.443939,254.839890 326.422607,252.440247 
	C328.602600,248.447113 330.525421,244.902298 332.385529,241.260254 
	C332.322845,241.163040 332.379822,241.387268 332.611450,241.241486 
	C332.956909,240.754898 333.070740,240.414124 333.468445,239.862503 
	C334.758728,237.788956 335.824677,235.955582 336.759521,234.057617 
	C338.892212,229.727615 340.960663,225.365967 343.055237,221.017181 
	C345.562531,222.673630 348.153503,224.217697 350.560303,226.009155 
	C356.157104,230.175095 361.944397,232.536377 368.897156,228.328369 
z"/>
<path fill="#5C5857" opacity="1.000000" stroke="none" 
	d="
M399.302795,330.365417 
	C399.939758,326.197174 401.052643,322.264099 401.594879,318.253876 
	C401.993042,315.309082 402.830566,313.500000 406.548157,314.010040 
	C406.993683,314.472412 407.039215,314.897705 407.122284,315.641846 
	C403.379730,316.425507 403.428711,319.225891 402.875702,322.139862 
	C402.322357,325.055450 400.692169,327.766724 399.302795,330.365417 
z"/>
<path fill="#E9CBBE" opacity="1.000000" stroke="none" 
	d="
M405.278809,264.734344 
	C404.634735,261.254974 404.281769,257.500824 403.996948,253.380341 
	C404.566650,256.829193 405.068268,260.644379 405.278809,264.734344 
z"/>
<path fill="#E9CBBE" opacity="1.000000" stroke="none" 
	d="
M405.643097,241.004517 
	C406.284912,237.718201 407.257080,234.415924 408.563934,230.984650 
	C407.923584,234.233276 406.948517,237.610916 405.643097,241.004517 
z"/>
<path fill="#E9CBBE" opacity="1.000000" stroke="none" 
	d="
M406.922852,226.631989 
	C405.177399,226.849991 403.364929,226.702728 401.266235,226.305389 
	C402.938629,226.125778 404.897247,226.196259 406.922852,226.631989 
z"/>
<path fill="#E9CBBE" opacity="1.000000" stroke="none" 
	d="
M404.505981,248.932144 
	C404.294037,247.515717 404.415558,246.021408 404.825745,244.291687 
	C405.022797,245.655594 404.931122,247.254929 404.505981,248.932144 
z"/>
<path fill="#FCFCFC" opacity="1.000000" stroke="none" 
	d="
M185.598846,244.037628 
	C210.800949,247.691879 236.002151,251.352463 261.205719,254.996674 
	C269.110931,256.139709 277.022552,257.238647 285.349915,258.468994 
	C285.763672,261.513062 285.758820,264.445953 285.655640,267.494324 
	C285.044678,266.926178 284.532043,266.242493 283.599121,265.582153 
	C280.791138,266.108887 278.403473,266.612274 276.015808,267.115662 
	C275.255219,267.007080 274.494598,266.898499 272.976501,266.883179 
	C270.481476,267.330688 268.743927,267.684906 267.006409,268.039124 
	C266.554962,267.966431 266.103485,267.893768 265.014893,267.897430 
	C263.899994,268.279755 263.422272,268.585754 262.944519,268.891785 
	C261.232635,268.872162 259.520721,268.852570 257.013794,268.930481 
	C254.473145,269.318237 252.727554,269.608490 250.981949,269.898743 
	C250.530518,269.879913 250.079086,269.861084 248.978729,269.928162 
	C247.559097,270.387085 246.788406,270.760071 246.017700,271.133057 
	C246.017700,271.133057 245.591034,270.984100 245.188110,270.664124 
	C243.868576,270.170776 242.951950,269.997345 241.848846,269.533020 
	C236.874451,267.623901 233.532379,262.335785 227.387070,264.015045 
	C223.906662,264.966095 220.233841,265.245972 216.633255,265.718201 
	C206.185837,267.088470 195.731110,268.403168 185.285309,269.341217 
	C185.191147,267.626587 185.090927,266.310394 185.060760,264.530701 
	C185.125076,257.684845 185.119308,251.302444 185.285553,244.727325 
	C185.504684,244.368927 185.551773,244.203262 185.598846,244.037628 
z"/>
<path fill="#25467D" opacity="1.000000" stroke="none" 
	d="
M343.185852,220.698792 
	C340.960663,225.365967 338.892212,229.727615 336.759521,234.057617 
	C335.824677,235.955582 334.758728,237.788956 333.204773,239.982941 
	C332.564758,240.671906 332.472290,241.029587 332.379822,241.387268 
	C332.379822,241.387268 332.322845,241.163040 332.056610,241.244522 
	C330.984619,241.934280 330.178833,242.542542 329.370331,243.152878 
	C328.963593,242.081985 328.586670,241.089600 328.209747,240.097198 
	C328.367706,236.660538 328.525665,233.223862 328.858704,228.995941 
	C333.193176,210.967392 330.691589,204.081268 318.992798,197.949371 
	C318.992798,197.949371 318.972809,197.479996 319.338348,197.270386 
	C321.023224,196.920898 322.609589,197.201096 323.612549,196.563507 
	C326.809662,194.531097 329.679352,191.983902 332.875031,189.948853 
	C341.843903,184.237320 351.930206,184.702209 361.958649,184.995773 
	C357.739502,193.381790 353.584198,201.800842 349.270782,210.138092 
	C347.458344,213.641342 345.311401,216.971542 343.185852,220.698792 
z"/>
<path fill="#E9CBBE" opacity="1.000000" stroke="none" 
	d="
M287.333527,257.928040 
	C287.136017,256.235809 287.296631,254.495209 287.300964,252.452759 
	C292.541229,248.161850 294.113464,239.433350 290.321625,234.497925 
	C289.815277,233.838882 289.412903,233.017044 288.758484,232.567261 
	C280.637451,226.985718 281.697540,218.544281 282.266296,210.529037 
	C282.408051,208.531998 284.829376,206.505737 286.561310,204.873016 
	C287.944794,203.568771 290.506927,203.250992 291.450104,201.788620 
	C295.799469,195.044937 301.854767,194.214615 308.902405,195.962753 
	C310.029297,196.242264 311.173370,196.452454 312.647522,196.870758 
	C311.283325,197.183624 309.539856,197.625137 307.886444,197.401352 
	C302.445831,196.664917 297.547760,196.242889 294.396759,202.458694 
	C293.321838,204.579071 289.958588,205.640762 287.508301,206.935211 
	C284.839172,208.345276 284.167725,210.359421 283.870667,213.324615 
	C283.080475,221.212631 284.987854,227.338638 291.813538,232.209076 
	C295.419708,234.782242 296.860748,238.720337 294.320984,243.966354 
	C292.095337,248.563583 290.754791,253.627182 287.333527,257.928040 
z"/>
<path fill="#818686" opacity="1.000000" stroke="none" 
	d="
M344.380280,336.311768 
	C335.861053,338.563141 327.341797,340.814484 318.411652,343.064880 
	C316.797302,341.232941 315.593872,339.401947 314.188782,337.305115 
	C313.942749,336.564056 313.898407,336.088837 314.207703,335.110107 
	C317.072693,334.078156 319.584015,333.549744 322.527313,333.006836 
	C327.826935,333.364380 332.716858,333.562897 337.552612,334.183594 
	C339.881195,334.482483 342.107605,335.577362 344.380280,336.311768 
z"/>
<path fill="#F7F5F2" opacity="1.000000" stroke="none" 
	d="
M322.095367,333.021332 
	C319.584015,333.549744 317.072693,334.078156 314.208252,334.751465 
	C314.013855,328.767670 314.172577,322.638947 314.796814,316.546265 
	C316.401947,318.787628 317.541565,320.992889 318.710510,323.186798 
	C318.739868,323.175446 318.730652,323.113251 318.754150,323.422607 
	C319.114471,324.221130 319.451324,324.710358 319.810791,325.146332 
	C319.833435,325.093079 319.718506,325.106598 319.739075,325.461609 
	C320.139740,326.636230 320.519806,327.455841 320.917053,328.452820 
	C320.987305,328.879883 321.126282,329.065125 321.419556,329.426422 
	C321.487946,329.666901 321.817657,330.042786 321.882385,330.416260 
	C321.996521,331.533630 322.045959,332.277466 322.095367,333.021332 
z"/>
<path fill="#E9CBBE" opacity="1.000000" stroke="none" 
	d="
M318.596863,197.976822 
	C330.691589,204.081268 333.193176,210.967392 328.930481,228.586853 
	C328.887024,225.454025 329.198914,221.921341 328.954071,218.427673 
	C328.454468,211.299927 326.346344,204.987778 319.274963,201.497086 
	C317.829041,200.783310 316.664948,199.498566 315.201385,198.179901 
	C316.088196,197.923294 317.144592,197.963791 318.596863,197.976822 
z"/>
<path fill="#766F6B" opacity="1.000000" stroke="none" 
	d="
M318.681213,323.198151 
	C317.541565,320.992889 316.401947,318.787628 315.079102,316.289001 
	C315.566895,311.832581 315.781677,307.527893 317.019592,303.540833 
	C318.723969,298.051361 321.201782,292.802032 323.647339,287.288177 
	C324.312561,288.062378 324.678680,288.998199 324.964722,290.551819 
	C323.844849,293.348694 322.856262,295.554108 321.755768,297.702179 
	C318.166565,304.707947 315.021942,311.731201 318.708282,319.780334 
	C319.138031,320.718689 318.711029,322.049347 318.681213,323.198151 
z"/>
<path fill="#766F6B" opacity="1.000000" stroke="none" 
	d="
M284.019440,265.558838 
	C284.532043,266.242493 285.044678,266.926178 285.709961,267.955261 
	C286.539734,275.582977 287.216858,282.865295 287.874756,290.560303 
	C286.908936,289.631378 285.292938,288.364288 285.133789,286.934967 
	C284.505981,281.295746 284.335541,275.605560 283.998108,269.042725 
	C284.007019,267.287079 284.013245,266.422943 284.019440,265.558838 
z"/>
<path fill="#37415D" opacity="1.000000" stroke="none" 
	d="
M328.033264,240.411530 
	C328.586670,241.089600 328.963593,242.081985 329.370331,243.152878 
	C330.178833,242.542542 330.984619,241.934280 332.119293,241.341736 
	C330.525421,244.902298 328.602600,248.447113 326.337433,252.034927 
	C326.615631,248.293900 327.236206,244.509872 328.033264,240.411530 
z"/>
<path fill="#5C5857" opacity="1.000000" stroke="none" 
	d="
M293.067017,347.704163 
	C292.880859,347.741821 292.564972,347.525482 292.152466,347.030884 
	C292.349640,346.985107 292.643463,347.217621 293.067017,347.704163 
z"/>
<path fill="#5C5857" opacity="1.000000" stroke="none" 
	d="
M294.732147,348.053345 
	C294.703064,348.216187 294.442261,348.303711 294.102661,348.235291 
	C294.023834,348.079407 294.500458,347.977966 294.732147,348.053345 
z"/>
<path fill="#2D4D85" opacity="1.000000" stroke="none" 
	d="
M190.560699,110.026901 
	C190.906174,110.060760 191.052948,110.473488 190.944168,110.991089 
	C190.150558,112.273941 189.465729,113.039192 188.494720,113.964699 
	C187.080490,115.708801 185.952438,117.292641 184.824402,118.876488 
	C184.824402,118.876488 184.909668,118.984459 184.601501,119.093170 
	C183.172302,121.444595 182.051270,123.687309 180.930237,125.930023 
	C180.760330,125.960083 180.590408,125.990143 179.937927,125.795135 
	C175.053101,119.924767 172.836899,113.950630 176.672089,107.066277 
	C177.603851,106.197968 178.535629,105.329659 179.748993,104.323792 
	C183.425476,106.121841 186.820358,108.057442 190.560699,110.026901 
z"/>
<path fill="#F7F5F2" opacity="1.000000" stroke="none" 
	d="
M176.328598,107.130661 
	C172.836899,113.950630 175.053101,119.924767 179.681473,125.830086 
	C178.263000,128.473801 176.618423,130.857513 174.973831,133.241226 
	C174.291275,132.993378 173.608719,132.745514 172.926178,132.497665 
	C174.562775,124.109413 169.989960,115.258598 176.328598,107.130661 
z"/>
<path fill="#E5B09C" opacity="1.000000" stroke="none" 
	d="
M175.989075,157.527557 
	C175.862930,158.754150 175.739563,159.543701 175.616196,160.333252 
	C175.309219,160.340424 175.002228,160.347595 174.695251,160.354767 
	C174.695251,152.914612 174.695251,145.474457 174.695251,138.034302 
	C174.800995,138.015884 174.906723,137.997452 175.012466,137.979019 
	C175.338928,144.349518 175.665390,150.720016 175.989075,157.527557 
z"/>
<path fill="#E9CBBE" opacity="1.000000" stroke="none" 
	d="
M188.780899,113.804443 
	C189.465729,113.039192 190.150558,112.273941 190.924438,111.209229 
	C193.935013,109.856155 196.856552,108.802544 200.098312,107.604408 
	C199.165741,108.967331 198.080093,110.670059 196.612381,111.926453 
	C195.188660,113.145203 193.372513,113.905556 191.364349,114.933609 
	C191.000000,115.000000 190.996384,114.997650 190.841217,114.757050 
	C190.153595,114.364250 189.621109,114.212051 189.010880,113.996994 
	C188.933121,113.934128 188.780899,113.804443 188.780899,113.804443 
z"/>
<path fill="#E9CBBE" opacity="1.000000" stroke="none" 
	d="
M185.192841,118.889557 
	C185.952438,117.292641 187.080490,115.708801 188.494720,113.964699 
	C188.780899,113.804443 188.933121,113.934128 189.161224,114.236298 
	C189.925018,114.691536 190.460693,114.844589 190.996384,114.997650 
	C190.996384,114.997650 191.000000,115.000000 191.001175,115.001251 
	C189.188660,116.302544 187.374969,117.602585 185.192841,118.889557 
z"/>
<path fill="#E9CBBE" opacity="1.000000" stroke="none" 
	d="
M181.285004,125.904251 
	C182.051270,123.687309 183.172302,121.444595 184.583130,119.026878 
	C183.795197,121.194077 182.717468,123.536278 181.285004,125.904251 
z"/>
<path fill="#E9CBBE" opacity="1.000000" stroke="none" 
	d="
M200.932892,107.552856 
	C201.399734,106.540985 202.260696,105.700905 203.420807,104.773468 
	C202.922318,105.698952 202.124649,106.711800 200.932892,107.552856 
z"/>
<path fill="#E9CBBE" opacity="1.000000" stroke="none" 
	d="
M204.061066,104.767723 
	C204.213104,103.864510 204.746292,102.999893 205.543945,101.963821 
	C205.353012,102.797020 204.897614,103.801666 204.061066,104.767723 
z"/>
<path fill="#E9CBBE" opacity="1.000000" stroke="none" 
	d="
M213.947113,153.418182 
	C213.663177,153.716095 213.305573,153.695770 212.688293,153.599213 
	C212.286316,153.240585 212.093155,152.998871 211.769196,152.584198 
	C212.417313,152.613678 213.145370,152.856827 213.947113,153.418182 
z"/>
<path fill="#2E4E8D" opacity="1.000000" stroke="none" 
	d="
M361.946716,184.641022 
	C351.930206,184.702209 341.843903,184.237320 332.875031,189.948853 
	C329.679352,191.983902 326.809662,194.531097 323.612549,196.563507 
	C322.609589,197.201096 321.023224,196.920898 319.365662,197.037109 
	C317.501129,190.607101 320.298920,185.360519 323.990021,180.679642 
	C330.921875,171.888931 347.350189,169.468231 355.859467,176.099670 
	C358.442474,178.112640 359.940063,181.518433 361.946716,184.641022 
z"/>
<path fill="#737576" opacity="1.000000" stroke="none" 
	d="
M268.054230,241.527679 
	C270.844147,241.987930 273.634094,242.448181 276.840973,242.864227 
	C277.764862,243.372635 278.271790,243.925262 278.710571,244.902664 
	C278.951324,245.525391 279.260223,245.723343 279.569153,245.921295 
	C279.807587,245.933533 279.979675,246.046616 280.112854,246.417664 
	C279.128662,247.336533 278.000916,248.875076 277.122925,248.743744 
	C263.487152,246.704163 249.895844,244.369980 236.269226,242.265961 
	C224.226669,240.406525 212.150101,238.768143 200.096344,236.979568 
	C198.202377,236.698532 196.349823,236.138321 193.000793,235.366943 
	C196.914734,233.955246 199.408752,233.055679 202.547882,232.396851 
	C224.813400,235.600967 246.433807,238.564316 268.054230,241.527679 
z"/>
<path fill="#25467D" opacity="1.000000" stroke="none" 
	d="
M246.730164,187.020035 
	C252.347137,186.469833 254.541626,188.298355 254.039017,192.612732 
	C256.081512,192.730026 258.131927,192.847763 260.522400,193.033722 
	C260.886261,193.531754 260.910095,193.961563 260.676544,194.927887 
	C260.572845,196.630173 260.726562,197.795959 260.880280,198.961746 
	C260.872955,199.433380 260.865662,199.905029 260.745789,200.713837 
	C254.767181,201.390350 253.735001,195.676605 250.397156,192.853424 
	C248.767532,191.475113 247.223862,189.990143 245.728287,188.467957 
	C245.608444,188.345963 246.167206,187.557266 246.730164,187.020035 
z"/>
<path fill="#37415D" opacity="1.000000" stroke="none" 
	d="
M260.948730,198.572998 
	C260.726562,197.795959 260.572845,196.630173 260.656738,195.250931 
	C260.935242,196.086411 260.976196,197.135330 260.948730,198.572998 
z"/>
<path fill="#37415D" opacity="1.000000" stroke="none" 
	d="
M260.972900,210.664780 
	C260.769348,210.443085 260.611694,209.887573 260.643829,209.168137 
	C260.895355,209.446457 260.957031,209.888718 260.972900,210.664780 
z"/>
<path fill="#808485" opacity="1.000000" stroke="none" 
	d="
M279.454041,245.668243 
	C279.260223,245.723343 278.951324,245.525391 278.794678,245.174164 
	C279.077576,245.152298 279.208252,245.283737 279.454041,245.668243 
z"/>
<path fill="#84878A" opacity="1.000000" stroke="none" 
	d="
M185.279251,269.739655 
	C195.731110,268.403168 206.185837,267.088470 216.633255,265.718201 
	C220.233841,265.245972 223.906662,264.966095 227.387070,264.015045 
	C233.532379,262.335785 236.874451,267.623901 241.848541,269.827240 
	C242.033417,270.608032 242.032135,270.803650 242.030853,270.999268 
	C227.079010,272.925415 212.129257,274.867920 197.173889,276.766205 
	C193.433105,277.240997 189.674271,277.573578 185.492508,277.533386 
	C185.133942,274.643372 185.206604,272.191528 185.279251,269.739655 
z"/>
<path fill="#494C4D" opacity="1.000000" stroke="none" 
	d="
M185.285309,269.341217 
	C185.206604,272.191528 185.133942,274.643372 185.078735,277.552002 
	C183.270584,278.270844 181.444992,278.532928 179.275330,279.001221 
	C178.188141,279.205048 177.444992,279.202637 176.336044,279.280273 
	C175.936615,279.169373 175.903000,278.978455 175.895538,278.014709 
	C175.965927,265.855286 176.010193,254.468735 176.054474,243.082199 
	C178.927231,243.385849 181.800003,243.689514 185.135803,244.015381 
	C185.551773,244.203262 185.504684,244.368927 184.966217,245.010223 
	C184.646790,251.988632 184.818741,258.491425 184.990692,264.994202 
	C185.090927,266.310394 185.191147,267.626587 185.285309,269.341217 
z"/>
<path fill="#656668" opacity="1.000000" stroke="none" 
	d="
M283.599121,265.582153 
	C284.013245,266.422943 284.007019,267.287079 283.996765,268.580811 
	C281.391235,268.629303 278.789795,268.248199 276.102081,267.491394 
	C278.403473,266.612274 280.791138,266.108887 283.599121,265.582153 
z"/>
<path fill="#656668" opacity="1.000000" stroke="none" 
	d="
M251.031006,270.253540 
	C252.727554,269.608490 254.473145,269.318237 256.602905,269.056335 
	C255.581482,271.777039 253.726074,272.725220 251.031006,270.253540 
z"/>
<path fill="#656668" opacity="1.000000" stroke="none" 
	d="
M267.066406,268.389771 
	C268.743927,267.684906 270.481476,267.330688 272.607239,267.003387 
	C271.700928,269.871704 269.968048,271.208801 267.066406,268.389771 
z"/>
<path fill="#656668" opacity="1.000000" stroke="none" 
	d="
M246.060364,271.434998 
	C246.788406,270.760071 247.559097,270.387085 248.658966,270.048279 
	C248.026428,270.633972 247.064728,271.185455 246.060364,271.434998 
z"/>
<path fill="#656668" opacity="1.000000" stroke="none" 
	d="
M263.106323,269.132355 
	C263.422272,268.585754 263.899994,268.279755 264.684540,268.014252 
	C264.416931,268.494141 263.842560,268.933533 263.106323,269.132355 
z"/>
<path fill="#656668" opacity="1.000000" stroke="none" 
	d="
M242.418518,270.997467 
	C242.032135,270.803650 242.033417,270.608032 242.035019,270.118164 
	C242.951950,269.997345 243.868576,270.170776 244.962540,270.650940 
	C244.361984,270.970367 243.584076,270.983032 242.418518,270.997467 
z"/>
<path fill="#FAFCFC" opacity="1.000000" stroke="none" 
	d="
M267.968933,241.161362 
	C246.433807,238.564316 224.813400,235.600967 202.895096,232.332993 
	C209.389557,215.992767 216.181900,199.957138 222.999207,183.565231 
	C225.807755,186.193466 228.861618,188.971664 231.326080,192.199814 
	C239.941803,203.485504 248.339417,214.937485 256.850433,226.303421 
	C260.489380,231.162994 264.203644,235.966232 267.968933,241.161362 
z"/>
<path fill="#606264" opacity="1.000000" stroke="none" 
	d="
M175.631226,243.040710 
	C176.010193,254.468735 175.965927,265.855286 175.843292,277.728638 
	C172.084015,277.133270 168.403091,276.051056 164.333389,274.866364 
	C164.293762,272.535004 164.910110,270.310242 164.944489,268.076508 
	C165.073837,259.672913 165.013535,251.266403 165.056671,242.383057 
	C168.462036,242.269821 171.835022,242.634521 175.631226,243.040710 
z"/>
<path fill="#E9CBBE" opacity="1.000000" stroke="none" 
	d="
M208.956299,95.882401 
	C211.463425,83.047165 209.315598,71.212822 201.625732,60.120892 
	C204.989822,59.923946 207.996414,63.531616 208.592850,67.056915 
	C209.120575,70.176109 210.681549,73.121185 211.804825,76.136269 
	C211.848022,76.252243 212.214539,76.302727 212.211182,76.373291 
	C211.907822,82.749458 211.598007,89.125580 211.181824,95.494728 
	C211.170197,95.672867 210.005142,95.775650 208.956299,95.882401 
z"/>
<path fill="#E9CBBE" opacity="1.000000" stroke="none" 
	d="
M204.851562,46.153301 
	C207.419357,44.999008 209.857407,44.083511 212.903656,43.074730 
	C213.665985,42.916897 213.820129,42.852345 213.974274,42.787792 
	C217.890427,40.876747 221.166397,41.936222 224.160538,45.252907 
	C222.196579,46.236664 220.405884,46.136047 218.037735,45.559830 
	C214.905472,44.797699 211.154678,46.553829 207.675568,47.256466 
	C206.715744,47.450310 205.776657,47.746876 204.320404,47.906548 
	C203.812744,47.816792 203.600876,47.609425 203.648529,47.435905 
	C203.696167,47.262383 203.794922,46.916317 203.794922,46.916317 
	C204.103882,46.741577 204.412842,46.566837 204.851562,46.153301 
z"/>
<path fill="#E9CBBE" opacity="1.000000" stroke="none" 
	d="
M198.014664,56.304649 
	C198.985107,54.081429 200.023926,52.163437 201.357452,49.756214 
	C202.301743,48.714466 202.951309,48.161949 203.600876,47.609428 
	C203.600876,47.609425 203.812744,47.816792 203.918945,47.920799 
	C203.223007,51.598148 202.420868,55.171490 201.421387,59.100258 
	C200.177048,58.507084 199.130051,57.558483 198.014664,56.304649 
z"/>
<path fill="#25467D" opacity="1.000000" stroke="none" 
	d="
M233.159103,172.253601 
	C237.442352,170.227386 238.623459,174.523315 241.174408,176.305450 
	C243.084335,177.639755 245.090149,178.836807 247.406769,180.174210 
	C247.204956,181.835205 251.688965,183.501007 247.360107,185.029175 
	C245.129044,183.902206 242.924622,183.075424 241.371658,181.574554 
	C238.479874,178.779709 235.967361,175.592422 233.159103,172.253601 
z"/>
<path fill="#898D8C" opacity="1.000000" stroke="none" 
	d="
M282.863220,84.563461 
	C279.040863,84.306877 278.475952,81.642471 279.080780,79.214706 
	C279.444427,77.755165 281.406616,75.913109 282.879730,75.677704 
	C285.707672,75.225769 289.542816,71.356850 291.368774,77.320869 
	C292.400848,80.691849 292.106018,82.812721 288.048828,83.221527 
	C286.419312,83.385712 284.838379,84.031570 282.863220,84.563461 
z"/>
<path fill="#464545" opacity="1.000000" stroke="none" 
	d="
M307.727661,88.758469 
	C306.859711,92.194725 305.710510,95.383110 304.289246,98.796463 
	C301.723236,97.080940 301.107208,94.987778 301.809174,91.790672 
	C302.576385,88.296135 301.737732,84.477112 302.141510,80.860092 
	C302.291351,79.518059 303.979919,78.347809 304.966766,77.099228 
	C305.439667,78.497787 306.063080,79.866104 306.351593,81.301720 
	C306.829895,83.681892 307.092773,86.105362 307.727661,88.758469 
z"/>
<path fill="#464545" opacity="1.000000" stroke="none" 
	d="
M288.891296,96.969170 
	C287.502594,96.339752 285.587006,95.374786 285.682770,95.092682 
	C286.282928,93.324928 287.331482,91.709412 288.231689,90.043526 
	C289.425171,90.693001 291.713318,91.631584 291.630798,91.944054 
	C291.168091,93.695976 290.133545,95.296860 288.891296,96.969170 
z"/>
<path fill="#464545" opacity="1.000000" stroke="none" 
	d="
M273.356262,79.033173 
	C278.072815,80.563042 275.664520,82.561874 274.930756,84.445290 
	C274.284302,84.497475 273.637817,84.549652 272.991364,84.601837 
	C272.991364,82.746635 272.991364,80.891441 273.356262,79.033173 
z"/>
<path fill="#464545" opacity="1.000000" stroke="none" 
	d="
M278.045227,93.393066 
	C278.287537,93.790169 278.285797,94.185265 278.255463,94.578133 
	C278.254608,94.589264 277.948334,94.576797 277.784485,94.575333 
	C277.788696,94.180473 277.792938,93.785606 278.045227,93.393066 
z"/>
<path fill="#1C1918" opacity="1.000000" stroke="none" 
	d="
M303.753784,101.048737 
	C303.637726,101.481834 303.149170,101.895119 302.354736,102.435989 
	C302.492950,102.052032 302.937103,101.540482 303.753784,101.048737 
z"/>
<path fill="#939393" opacity="1.000000" stroke="none" 
	d="
M145.420288,93.123756 
	C141.644409,93.181732 138.289749,93.157730 134.481171,93.182030 
	C134.038437,90.418282 134.049652,87.606216 134.040466,84.411339 
	C138.346497,84.016121 142.685165,84.200775 146.995621,83.932259 
	C150.807266,83.694817 152.003799,85.520866 152.088959,88.921738 
	C152.174637,92.342995 150.312881,93.244553 147.335892,92.976723 
	C146.843689,92.932434 146.339920,93.016838 145.420288,93.123756 
z"/>
<path fill="#E9CBBE" opacity="1.000000" stroke="none" 
	d="
M312.399139,72.939781 
	C310.326202,68.915039 308.631317,64.861778 307.122711,60.445648 
	C313.464203,60.066952 316.879456,63.239582 318.091034,70.309181 
	C316.370544,71.151680 314.573883,72.031471 312.399139,72.939781 
z"/>
<path fill="#737575" opacity="1.000000" stroke="none" 
	d="
M318.710541,323.186798 
	C318.711029,322.049347 319.138031,320.718689 318.708282,319.780334 
	C315.021942,311.731201 318.166565,304.707947 321.755768,297.702179 
	C322.856262,295.554108 323.844849,293.348694 325.066040,290.838379 
	C330.453217,301.606842 335.645599,312.712830 340.881042,323.798431 
	C341.572723,325.263031 342.484161,326.623810 343.632812,328.559143 
	C344.271362,331.437195 344.571014,333.788757 344.870636,336.140289 
	C344.870636,336.140289 344.625214,336.236145 344.502747,336.273956 
	C342.107605,335.577362 339.881195,334.482483 337.552612,334.183594 
	C332.716858,333.562897 327.826935,333.364380 322.527313,333.006836 
	C322.045959,332.277466 321.996521,331.533630 322.075806,330.287018 
	C321.920074,329.584808 321.635620,329.385376 321.351166,329.185944 
	C321.126282,329.065125 320.987305,328.879883 320.944519,328.076416 
	C320.542664,326.717316 320.130585,325.911957 319.718506,325.106598 
	C319.718506,325.106598 319.833435,325.093079 319.855774,324.811279 
	C319.495636,324.057404 319.113129,323.585327 318.730652,323.113251 
	C318.730652,323.113251 318.739868,323.175446 318.710541,323.186798 
z"/>
<path fill="#818686" opacity="1.000000" stroke="none" 
	d="
M345.304901,336.130249 
	C344.571014,333.788757 344.271362,331.437195 343.965332,328.698486 
	C354.556671,325.850555 365.069611,322.834351 375.793060,321.196991 
	C380.203186,320.523590 385.066620,322.819153 389.932526,324.028320 
	C385.749908,325.804962 381.437653,327.629150 376.951416,328.767212 
	C366.592194,331.395081 356.148560,333.690186 345.304901,336.130249 
z"/>
<path fill="#5C5857" opacity="1.000000" stroke="none" 
	d="
M203.648529,47.435905 
	C202.951309,48.161949 202.301743,48.714466 201.364822,49.422516 
	C201.777924,48.602848 202.478378,47.627651 203.486877,46.784386 
	C203.794922,46.916317 203.696167,47.262383 203.648529,47.435905 
z"/>
<path fill="#656668" opacity="1.000000" stroke="none" 
	d="
M213.866302,42.655006 
	C213.820129,42.852345 213.665985,42.916897 213.261856,42.965195 
	C213.260681,42.806698 213.509506,42.664459 213.866302,42.655006 
z"/>
<path fill="#37415D" opacity="1.000000" stroke="none" 
	d="
M332.611450,241.241486 
	C332.472290,241.029587 332.564758,240.671906 332.920898,240.193787 
	C333.070740,240.414124 332.956909,240.754898 332.611450,241.241486 
z"/>
<path fill="#1B1B1B" opacity="1.000000" stroke="none" 
	d="
M185.060760,264.530701 
	C184.818741,258.491425 184.646790,251.988632 184.794189,245.202942 
	C185.119308,251.302444 185.125076,257.684845 185.060760,264.530701 
z"/>
<path fill="#766F6B" opacity="1.000000" stroke="none" 
	d="
M319.739105,325.461609 
	C320.130585,325.911957 320.542664,326.717316 320.927307,327.899078 
	C320.519806,327.455841 320.139740,326.636230 319.739105,325.461609 
z"/>
<path fill="#766F6B" opacity="1.000000" stroke="none" 
	d="
M318.754150,323.422607 
	C319.113129,323.585327 319.495636,324.057404 319.833160,324.864532 
	C319.451324,324.710358 319.114471,324.221130 318.754150,323.422607 
z"/>
<path fill="#766F6B" opacity="1.000000" stroke="none" 
	d="
M321.419556,329.426422 
	C321.635620,329.385376 321.920074,329.584808 322.011078,329.913513 
	C321.817657,330.042786 321.487946,329.666901 321.419556,329.426422 
z"/>
<path fill="#F8C7B3" opacity="1.000000" stroke="none" 
	d="
M190.841217,114.757050 
	C190.460693,114.844589 189.925018,114.691536 189.238983,114.299164 
	C189.621109,114.212051 190.153595,114.364250 190.841217,114.757050 
z"/>
</svg>