<svg version="1.1" id="Layer_1" xmlns="http://www.w3.org/2000/svg" xmlns:xlink="http://www.w3.org/1999/xlink" x="0px" y="0px"
	 width="100%" viewBox="0 0 480 464" enable-background="new 0 0 480 464" xml:space="preserve">
<path fill="#000000" opacity="1.000000" stroke="none" 
	d="
M377.991577,256.212646 
	C378.322418,269.737518 383.508636,281.840240 385.767670,294.501526 
	C389.600708,315.984894 389.004211,337.622345 385.072723,359.106049 
	C383.444946,368.001129 383.452454,376.973938 382.948883,385.946564 
	C382.297516,397.552094 382.751465,409.259216 380.422424,420.748383 
	C378.195435,431.733887 370.962616,438.892792 361.863647,444.370087 
	C357.038391,447.274750 341.771271,444.291107 337.868958,440.208832 
	C335.867645,438.115234 334.240906,435.728943 334.019775,432.799805 
	C333.033112,419.729340 331.881073,406.109558 341.125641,395.533722 
	C352.053650,383.032013 348.796173,370.703491 342.862762,358.171539 
	C336.374359,344.467590 332.139252,330.037415 334.086243,315.196228 
	C335.768341,302.373993 329.279419,293.986481 323.058868,284.709137 
	C320.060883,284.946869 318.881836,287.039307 318.268402,289.602539 
	C317.102264,294.475433 315.541718,299.200836 313.582886,303.820129 
	C312.401062,306.607056 312.156372,309.563477 312.655334,312.640961 
	C314.371552,323.225739 315.175873,333.690521 311.537109,344.229736 
	C309.679901,349.608856 312.619354,355.023254 314.101624,360.267273 
	C319.540924,379.510681 324.165436,398.908936 326.560455,418.808105 
	C327.054871,422.915985 326.252289,424.562836 321.789734,424.564667 
	C291.491913,424.577087 261.194214,424.879730 230.896362,424.900757 
	C212.249786,424.913696 193.603149,424.539246 174.956070,424.477264 
	C171.761429,424.466644 170.837799,423.367828 171.304153,420.285797 
	C174.830765,396.979248 176.583969,373.318665 185.515564,351.114319 
	C187.012253,347.393463 187.459518,343.573639 186.811234,339.433655 
	C185.624802,331.857147 188.165344,324.257294 186.891800,316.552582 
	C184.977539,304.971649 182.776474,293.970764 173.815353,285.002289 
	C164.616333,275.795746 159.615326,263.776459 155.788742,251.399582 
	C154.910904,248.560287 154.159042,245.682022 153.272491,242.550720 
	C147.662292,243.840576 142.417450,245.343445 137.070114,246.223618 
	C115.726486,249.736801 95.341705,245.582336 75.406860,238.129364 
	C68.515434,235.552856 61.894306,232.510315 55.942848,228.082672 
	C51.228630,224.575470 48.516766,219.869812 49.856155,214.254974 
	C53.857014,197.483063 55.696774,180.078323 64.107880,164.535309 
	C68.082771,157.190048 72.335976,150.026382 77.324409,143.355881 
	C84.615295,133.606583 91.748405,123.739059 97.914040,113.257904 
	C102.727798,105.074867 109.415306,99.633789 118.209549,96.432510 
	C124.937271,93.983490 131.620010,91.405647 138.277847,88.771568 
	C143.516129,86.699120 147.817230,88.216347 151.314026,92.180840 
	C155.968384,97.457710 159.203445,103.731514 162.726562,109.753593 
	C165.066223,113.752777 161.288055,127.414322 157.611954,130.150284 
	C155.050903,132.056366 152.145859,131.658630 149.479858,130.733658 
	C146.873260,129.829315 144.770920,130.122452 142.421341,131.469162 
	C138.300659,133.831009 133.778763,133.799026 129.309067,132.675217 
	C125.391792,131.690323 122.535454,133.341522 120.958420,136.498199 
	C114.921509,148.582047 112.542908,161.592819 111.515785,175.215973 
	C115.637444,176.167374 118.962448,173.576248 122.519875,173.867401 
	C132.817688,174.710220 142.207214,172.923431 151.551376,167.813721 
	C161.701141,162.263458 173.089569,161.121719 184.542877,164.512238 
	C186.949173,165.224564 189.081711,164.352631 191.257126,163.356216 
	C198.504715,160.036514 205.207809,155.609344 213.783249,152.751556 
	C207.947769,144.035034 208.134415,133.924713 205.267883,124.622070 
	C204.480530,122.066895 203.654205,119.551285 203.674286,116.831848 
	C203.721970,110.370049 203.884109,104.001793 201.457642,97.693802 
	C199.534378,92.693962 201.864197,87.528130 202.982315,82.533516 
	C203.654312,79.531601 203.593903,76.915596 202.437912,73.868988 
	C200.044998,67.562279 201.551788,61.524582 206.562088,57.002922 
	C218.353195,46.361778 232.248627,41.818371 248.046646,44.298992 
	C262.767487,46.610470 274.929657,52.972599 281.636200,67.201912 
	C283.067596,70.238831 284.216370,73.330879 284.428741,76.726189 
	C285.016937,86.128845 284.038574,95.553429 285.907501,104.977722 
	C287.026337,110.619400 283.611481,115.708374 279.925476,119.852486 
	C273.332581,127.264771 276.291962,135.493942 277.318268,143.574112 
	C277.554047,145.430527 279.578400,145.896927 281.094696,146.514404 
	C294.738434,152.070496 307.813477,158.589539 318.810486,168.645950 
	C320.148926,169.869919 321.832062,169.955048 323.447632,170.275406 
	C349.464691,175.434372 364.487701,193.497360 364.903687,220.145416 
	C364.937469,222.309525 364.829895,224.465546 366.263489,226.354523 
	C372.884247,235.078323 376.000336,245.197037 377.991577,256.212646 
M268.366516,116.583450 
	C270.991272,119.017860 273.150116,117.133415 274.881104,115.496498 
	C277.998596,112.548386 279.454742,108.884254 278.199310,104.013893 
	C275.817780,105.814865 274.358154,107.931679 274.582458,110.174248 
	C275.114838,115.496872 271.752258,115.746613 267.911346,115.088432 
	C266.868530,107.587212 271.369751,103.137787 276.653961,98.995216 
	C269.100525,100.022202 268.278656,108.103348 263.827759,111.993828 
	C261.219482,110.951981 260.905823,109.102692 260.719604,107.277077 
	C260.033295,100.548866 258.702026,94.120430 253.476440,89.191269 
	C252.086823,87.880486 251.771072,86.046829 251.676498,84.147133 
	C251.233368,75.245033 249.245865,73.569717 240.281372,73.227859 
	C233.241577,72.959381 227.050385,76.418892 220.294373,77.191391 
	C210.833908,78.273117 211.681702,76.386658 209.283478,87.709274 
	C207.825836,94.591179 208.367752,95.132454 215.591324,96.200096 
	C223.951706,97.435745 224.152283,97.844543 222.581223,106.380699 
	C221.850418,110.351303 220.073013,114.278564 221.239288,118.351593 
	C225.076385,119.681335 228.155731,118.598953 230.901352,116.091995 
	C232.747910,119.359169 231.826233,121.649956 229.596481,123.555847 
	C225.919510,126.698746 221.566895,125.615829 217.782074,124.422295 
	C214.880646,123.507324 214.428436,120.056366 214.821533,117.108910 
	C215.323730,113.343475 216.079208,109.611809 216.977951,104.402466 
	C214.611450,107.480202 212.304398,105.704109 210.347382,106.502846 
	C209.727997,109.485138 209.589569,112.374115 210.213898,115.095955 
	C212.032455,123.024368 213.631546,131.061462 216.263733,138.730896 
	C219.983856,149.570206 223.310593,151.672272 232.237976,150.864578 
	C245.717270,149.645065 260.915161,135.950760 263.589508,122.766830 
	C264.139740,120.054382 263.569458,116.374802 268.366516,116.583450 
M145.083939,103.742752 
	C146.435944,107.833923 147.787949,111.925102 149.139954,116.016281 
	C149.622192,115.821518 150.104416,115.626762 150.586639,115.432007 
	C150.798218,110.465363 147.626984,106.840881 144.841614,102.346756 
	C144.363663,100.261848 142.307083,98.435204 144.499405,95.948181 
	C143.016373,95.774742 142.115219,95.398575 141.410645,95.627510 
	C130.615494,99.134956 120.131500,103.369591 110.512367,109.488991 
	C108.670227,110.660896 107.419777,112.483337 106.278206,114.354568 
	C100.982155,123.035652 95.216209,131.395142 89.290924,139.661728 
	C82.109009,149.681473 75.532181,160.056000 70.256874,171.287064 
	C64.845581,182.807602 63.501450,195.252045 60.706932,207.390930 
	C58.541481,216.797287 58.179768,217.484344 66.607285,222.400452 
	C84.356201,232.754089 103.820999,236.545135 124.200500,235.505463 
	C132.177414,235.098495 138.684311,231.256393 144.440964,224.201233 
	C131.014786,222.923340 118.564178,220.653290 107.148376,214.361603 
	C126.799004,216.147247 146.140228,217.487350 163.174194,205.738052 
	C162.887573,202.060638 159.769791,200.741608 159.513885,197.455643 
	C164.286591,197.500534 167.635696,199.905029 170.708160,202.633942 
	C179.375000,210.331665 186.534012,219.193146 191.913132,229.557526 
	C195.280334,236.045395 199.043381,242.429504 205.435715,246.596710 
	C219.163681,255.546021 233.613235,254.505295 248.013870,248.952957 
	C253.557205,246.815674 256.991394,241.720825 257.471191,235.743164 
	C258.001312,229.139069 258.168152,222.443268 257.112732,215.806610 
	C256.700104,213.211914 256.634186,210.562073 256.379089,207.570541 
	C258.484711,208.328812 258.561554,209.471466 258.866943,210.335846 
	C262.229340,219.852188 263.486969,229.777649 263.900269,239.768631 
	C264.177155,246.461838 260.927124,251.481964 254.956909,254.809448 
	C236.733505,264.966187 208.444275,262.268555 192.881577,248.540802 
	C190.599762,246.528030 188.901382,244.902130 186.160385,247.751770 
	C185.409882,246.239426 184.845093,245.231400 184.396515,244.174042 
	C182.771820,240.344315 181.444809,236.353256 178.806793,233.051361 
	C175.775543,229.257263 171.425018,228.440643 167.153671,230.439880 
	C162.697083,232.525833 163.321136,235.844070 164.175446,239.708740 
	C165.476807,245.595734 167.149704,251.420151 169.621323,256.813782 
	C173.354355,264.960083 176.658752,273.594910 184.438583,279.608948 
	C185.409210,273.461212 181.939270,268.527069 181.091293,262.321869 
	C184.874283,264.479431 185.057388,268.113922 187.208557,270.372162 
	C187.863708,269.149567 185.853714,267.627014 188.538254,266.619720 
	C194.851639,273.179626 199.449173,281.644531 207.232239,287.231293 
	C198.932739,287.491089 193.682144,283.196960 189.815445,276.329193 
	C189.143173,283.487732 193.092560,288.625702 195.621429,294.299377 
	C198.173630,300.025299 201.266434,305.376678 206.191467,310.863281 
	C201.441818,310.970764 198.972885,308.337799 195.504410,307.232178 
	C197.277084,315.745850 197.165375,323.949432 196.129593,332.255402 
	C195.291962,338.972443 197.123978,341.400024 203.494034,344.208588 
	C233.703644,357.528107 264.401184,355.940582 295.307648,347.095398 
	C299.517548,345.890594 301.902405,342.695312 303.320557,338.776825 
	C305.840820,331.812958 305.162750,324.558807 304.281738,317.512146 
	C303.266357,309.391113 303.444641,301.637238 306.554260,293.974365 
	C307.717743,291.107422 309.271606,288.240265 309.003967,284.888580 
	C306.432648,283.580750 303.993469,283.853821 302.030212,285.708099 
	C300.536591,287.118805 300.889709,289.150543 301.695038,290.863586 
	C304.781342,297.428589 303.460663,303.558167 299.746185,309.311066 
	C298.598389,311.088837 297.926178,312.782166 297.904449,314.843506 
	C297.821991,322.671387 295.470978,329.924622 292.157379,336.908447 
	C291.585236,338.114288 291.308624,339.851929 288.499176,339.556702 
	C290.851349,333.228394 290.916443,326.802338 290.888763,320.348022 
	C290.876495,317.489563 289.675018,316.098541 286.942230,315.601013 
	C283.008057,314.884674 279.104248,314.152863 275.062073,314.251251 
	C272.894836,314.304016 270.431641,314.289337 269.742157,310.927429 
	C270.671295,310.845154 271.314606,310.654663 271.908630,310.755188 
	C284.983948,312.967529 292.410370,307.949463 295.009827,295.110870 
	C296.011200,290.165161 294.624268,287.940002 289.754761,287.049042 
	C287.309448,286.601624 284.767914,286.647308 282.343231,286.127747 
	C278.760132,285.359955 274.790863,285.026794 272.898712,280.599731 
	C275.971008,279.553253 278.024872,281.512390 280.303528,282.113861 
	C289.561981,284.557648 294.027008,282.467010 296.765564,274.113434 
	C300.773071,274.562592 300.639771,278.368134 301.868713,281.090149 
	C306.452942,277.080963 308.288330,267.465424 305.734406,262.985626 
	C304.755890,261.269196 303.425171,261.420837 301.893158,261.614014 
	C290.875885,263.003113 280.849701,259.678436 271.121490,255.047638 
	C267.201508,253.181671 265.925476,250.006119 266.625885,245.545563 
	C276.755249,254.899170 297.510529,258.027771 307.268951,251.249603 
	C319.965668,242.430557 327.017731,230.459106 325.032471,213.893005 
	C331.013702,223.266937 338.165710,231.136230 343.938232,240.471985 
	C342.672363,240.622162 342.322906,240.761398 342.039734,240.677322 
	C341.406311,240.489273 340.793579,240.215942 340.193970,239.931946 
	C333.600464,236.808868 332.074615,237.694580 330.181152,244.602448 
	C324.520966,265.252319 333.073395,281.323883 346.485199,295.800079 
	C350.062988,299.661835 351.176117,299.249847 353.681152,294.516479 
	C355.801605,290.509888 357.337036,286.237671 359.424225,282.113983 
	C361.105377,300.218994 348.042969,315.178497 349.434967,333.207703 
	C346.084717,325.619263 346.842987,317.520752 344.209900,308.700989 
	C340.764313,332.159607 351.656006,351.124725 357.205444,371.830353 
	C361.043823,367.030762 360.836304,361.335815 363.557312,356.740295 
	C365.375854,358.354401 364.825989,360.081146 364.797058,361.690979 
	C364.572235,374.199921 360.317535,384.902100 351.713745,394.232361 
	C344.498291,402.057098 340.664093,411.609711 341.332764,422.563812 
	C341.439270,424.308319 340.881256,426.354156 343.702759,427.307190 
	C347.209320,424.199768 346.388947,419.480591 347.533966,415.542572 
	C348.237366,413.123413 348.162689,409.893066 351.461395,410.254028 
	C354.967987,410.637787 355.445679,413.844757 355.087494,416.857910 
	C354.893463,418.490387 354.362030,420.094238 353.875793,421.678192 
	C352.615112,425.784912 351.295105,429.873413 349.992767,433.988220 
	C352.218842,435.208679 354.176697,435.449005 355.774170,433.817841 
	C357.633575,431.919250 359.110809,429.645294 360.978180,427.755890 
	C363.191345,425.516541 365.219025,422.699463 369.172272,423.184082 
	C369.788666,426.546692 366.560699,428.066223 365.936279,430.980988 
	C373.756958,424.907623 373.029907,416.115479 373.473969,408.266968 
	C374.779419,385.194275 375.665802,362.125183 379.489288,339.258667 
	C380.386292,333.894196 381.804810,328.244965 380.021118,322.506104 
	C378.361938,323.461609 378.780090,326.119202 376.316010,325.835388 
	C375.065918,323.482544 376.487762,321.261414 377.003235,319.161133 
	C380.098907,306.547607 378.963287,294.417145 373.667511,282.585083 
	C371.971802,278.796448 370.580994,274.868286 369.134521,270.972809 
	C368.619415,269.585632 367.918121,267.292603 369.161194,266.834320 
	C371.776947,265.869934 370.672729,264.135742 370.477142,262.824066 
	C369.345459,255.234482 367.519257,247.804062 364.545074,240.705811 
	C363.684052,238.650909 363.050659,236.338654 360.855011,235.170563 
	C358.199219,237.501358 358.952332,243.576248 352.659668,241.445389 
	C355.726105,229.744034 357.333160,217.955841 353.982147,206.049911 
	C350.490845,193.645676 342.804382,185.158676 330.486908,180.802429 
	C330.085541,182.398209 332.379456,183.407028 330.680817,185.403854 
	C326.057312,182.885406 321.389465,180.031738 316.082306,178.658112 
	C310.846039,177.302841 305.378082,179.598206 299.397217,177.998779 
	C302.045837,174.261063 305.976715,174.200745 308.957916,172.077896 
	C308.317810,171.334396 307.887970,170.627625 307.276581,170.156296 
	C298.749939,163.582535 288.925690,159.380478 279.250153,154.914627 
	C276.708649,153.741577 275.829376,155.449371 274.744720,157.375931 
	C273.572662,159.457748 273.615601,162.568359 270.059692,163.602386 
	C271.380615,152.914017 269.128906,142.980270 267.625092,131.680145 
	C261.817169,143.106400 253.986755,151.274506 245.765610,159.081848 
	C241.557098,163.078537 239.495026,167.225464 243.041138,172.684479 
	C243.553726,173.473602 243.978043,174.505997 243.009979,175.518661 
	C240.986206,175.472092 240.063507,173.636200 238.661179,172.600723 
	C235.995102,170.632095 233.848755,167.980621 230.719635,166.612579 
	C226.584488,164.804703 225.353729,165.559097 225.175461,170.012589 
	C225.118286,171.440353 225.686493,173.062576 223.446106,174.462997 
	C220.083603,171.569870 215.854675,170.946793 211.042648,173.347519 
	C211.803955,168.689835 216.205063,168.562103 217.423340,165.640350 
	C213.007126,162.315613 202.746658,165.252975 197.080795,171.411835 
	C200.414032,173.619507 203.591782,176.621841 207.840546,175.643143 
	C212.916412,174.473923 217.839447,175.411850 222.734131,175.939941 
	C231.733719,176.910858 240.514847,178.979492 247.650986,185.143402 
	C249.297592,186.565659 251.544449,187.783783 251.200806,190.659775 
	C248.444153,191.677261 246.489273,190.051758 244.594986,188.947357 
	C238.019440,185.113770 230.911469,182.927750 223.488251,181.590668 
	C221.694992,181.267670 219.410873,181.549164 218.193466,180.539078 
	C214.203323,177.228485 210.387283,178.458496 206.537552,180.313583 
	C200.103470,183.414032 194.464371,180.906067 188.821106,178.750793 
	C188.848572,176.128265 191.181046,177.487747 191.745270,176.092896 
	C188.455978,175.123871 185.211182,174.326523 182.077499,173.215744 
	C171.644669,169.517700 162.042221,172.380768 152.741516,176.963486 
	C147.552353,179.520294 147.551453,180.852081 151.528854,184.872406 
	C153.379150,186.742645 156.031860,188.165359 156.472214,192.299438 
	C154.024338,191.021988 152.290359,190.171631 150.607681,189.229614 
	C143.014603,184.978882 134.898758,182.888367 126.183022,183.292526 
	C112.591347,183.922775 107.102959,189.296768 106.035652,202.873520 
	C105.872200,204.952682 105.706406,207.151581 103.706360,208.333664 
	C101.431755,207.495270 102.881096,205.156693 101.589424,204.120972 
	C96.757660,206.968735 92.592018,210.977844 86.527817,211.399231 
	C91.623138,204.901169 96.069748,198.377365 98.738022,190.760925 
	C101.341324,183.329941 103.464218,175.832977 103.641235,167.588181 
	C100.756020,169.235550 101.274048,172.826447 98.493134,173.825607 
	C97.652092,172.991577 97.692741,172.106888 97.952980,171.339874 
	C100.785156,162.992630 102.284187,154.206680 106.220650,146.222809 
	C108.575958,141.445786 110.940605,136.672699 113.223251,131.860947 
	C113.884285,130.467529 114.219101,128.835068 112.668541,127.802200 
	C110.975807,126.674606 109.947014,128.113831 108.883606,129.160538 
	C106.629791,131.378922 105.587715,134.739578 101.905693,136.710632 
	C102.911789,131.308960 106.348984,127.864586 107.955292,123.623634 
	C109.259705,120.179726 111.308777,119.362267 114.492744,120.740967 
	C119.526215,122.920525 123.753281,121.171486 128.068253,118.485291 
	C130.131348,117.200966 129.993896,114.157852 132.629074,113.551277 
	C134.947372,115.742096 133.657333,118.712151 134.482147,121.165665 
	C134.930054,122.498001 135.389648,123.853134 137.156143,123.392426 
	C138.617981,123.011177 139.379745,121.938255 139.002487,120.352364 
	C138.655670,118.894325 138.150558,117.471405 137.850113,116.005356 
	C137.078934,112.242325 134.730713,108.693016 136.061417,104.199142 
	C142.499603,107.001297 140.080246,114.586098 144.730682,118.881531 
	C147.061157,111.612595 139.110046,106.713066 141.297775,99.578552 
	C142.861313,100.999146 143.945038,101.983795 145.083939,103.742752 
z"/>
<path fill="#000000" opacity="1.000000" stroke="none" 
	d="
M268.475006,280.999573 
	C265.919830,286.084045 262.585205,287.983490 256.987244,286.623932 
	C252.896698,285.630493 248.432663,286.247864 244.203278,285.306580 
	C242.492691,284.925842 240.531708,285.133850 239.268829,282.124603 
	C245.150955,281.431641 251.150986,283.070343 256.308533,280.332581 
	C262.122711,277.246246 262.454132,270.946136 264.454468,264.206177 
	C268.407440,269.837921 269.738037,274.877960 268.475006,280.999573 
z"/>
<path fill="#000000" opacity="1.000000" stroke="none" 
	d="
M267.365417,302.129883 
	C267.163086,312.480988 264.258270,315.170929 254.453979,315.391632 
	C248.646835,315.522400 243.297241,313.807037 237.868286,312.298340 
	C236.195236,311.833405 234.294006,311.227081 234.473984,308.526611 
	C237.603851,307.956818 240.196060,309.841125 243.020233,310.342804 
	C255.171768,312.501434 260.407745,309.143768 262.847473,297.100128 
	C263.104279,295.832458 262.977173,294.385956 264.591644,293.511383 
	C266.869995,295.769989 267.144775,298.715424 267.365417,302.129883 
z"/>
<path fill="#000000" opacity="1.000000" stroke="none" 
	d="
M192.638031,255.568573 
	C196.408127,259.976959 199.207245,264.720123 203.624802,268.212311 
	C207.012207,270.890076 211.274002,271.127441 216.104996,273.570099 
	C209.583069,276.303589 204.657700,274.548981 199.957855,272.073944 
	C193.459808,268.651917 189.192154,260.231110 190.266434,253.557861 
	C191.554962,253.437683 191.777390,254.645157 192.638031,255.568573 
z"/>
<path fill="#000000" opacity="1.000000" stroke="none" 
	d="
M276.873291,181.986450 
	C270.212067,182.919098 264.363800,185.075012 258.179779,188.321991 
	C258.388885,183.268570 261.450714,181.404770 264.531311,180.220322 
	C273.917450,176.611542 283.504303,175.750671 293.210297,179.801208 
	C287.903259,180.497437 282.596191,181.193665 276.873291,181.986450 
z"/>
<path fill="#000000" opacity="1.000000" stroke="none" 
	d="
M258.422546,160.585358 
	C256.932892,167.427902 255.531555,173.885101 254.090942,180.333511 
	C254.038956,180.566284 253.599945,180.712570 253.337631,180.894089 
	C249.537247,175.642761 251.555496,164.754532 258.091980,155.835098 
	C259.924866,157.184006 258.749146,158.754578 258.422546,160.585358 
z"/>
<path fill="#000000" opacity="1.000000" stroke="none" 
	d="
M227.340057,287.276001 
	C225.885742,288.831268 224.822617,290.810852 222.666916,289.673645 
	C220.371292,288.462646 219.873291,286.173950 219.947922,283.333679 
	C224.635468,283.128113 225.385941,279.266876 226.332458,275.650299 
	C231.766357,278.551422 231.835770,279.370331 227.340057,287.276001 
z"/>
<path fill="#000000" opacity="1.000000" stroke="none" 
	d="
M261.233093,321.802795 
	C262.099304,319.751221 263.326294,319.342590 264.026398,321.227478 
	C265.118927,324.168823 267.309509,326.645203 267.717041,329.916260 
	C266.646637,331.322083 264.600586,330.675781 263.471802,332.147400 
	C262.513672,333.396545 261.327026,334.739197 258.754974,334.829071 
	C256.556000,330.108612 259.723450,326.228973 261.233093,321.802795 
z"/>
<path fill="#000000" opacity="1.000000" stroke="none" 
	d="
M221.763306,306.450806 
	C223.282791,304.369019 225.317673,302.957214 224.979172,300.095184 
	C230.449478,303.027802 231.967560,307.202545 229.499771,311.747223 
	C228.525940,313.540680 227.103088,313.277161 225.731369,312.293640 
	C223.809830,310.915924 222.208237,309.261353 221.763306,306.450806 
z"/>
<path fill="#000000" opacity="1.000000" stroke="none" 
	d="
M228.423798,332.648407 
	C231.129608,336.451447 232.462204,340.104614 229.929520,344.681946 
	C224.661301,339.305176 225.543610,331.493561 221.568878,325.792236 
	C225.444962,326.516754 226.199936,330.049652 228.423798,332.648407 
z"/>
<path fill="#000000" opacity="1.000000" stroke="none" 
	d="
M304.986511,239.906494 
	C306.839142,237.595093 308.848969,237.376862 310.916199,238.698135 
	C313.649261,240.444977 311.205658,245.845383 307.718719,245.369247 
	C306.274628,245.172058 304.836243,245.942184 303.408875,245.162109 
	C302.637146,243.186066 303.965149,241.762161 304.986511,239.906494 
z"/>
<path fill="#000000" opacity="1.000000" stroke="none" 
	d="
M84.294189,218.697128 
	C87.466316,219.502472 90.549690,219.225418 93.158577,221.077789 
	C89.340225,224.085693 81.667259,222.829376 77.800941,218.612244 
	C79.906830,217.098282 81.914612,218.437592 84.294189,218.697128 
z"/>
<path fill="#000000" opacity="1.000000" stroke="none" 
	d="
M212.241806,242.536346 
	C211.767517,238.746750 213.868774,238.537659 216.218201,239.346634 
	C218.571762,240.157074 221.050888,242.532013 219.570084,244.473877 
	C217.114761,247.693741 214.477982,245.067810 212.241806,242.536346 
z"/>
<path fill="#000000" opacity="1.000000" stroke="none" 
	d="
M305.907288,187.067780 
	C304.743317,186.370346 303.855164,185.904892 303.058868,185.315338 
	C302.707428,185.055161 302.542511,184.543076 302.286102,184.134476 
	C306.741180,182.022110 310.364471,184.199966 311.341156,189.554214 
	C308.922729,190.340164 307.948456,187.925949 305.907288,187.067780 
z"/>
<path fill="#000000" opacity="1.000000" stroke="none" 
	d="
M357.814575,257.898621 
	C356.735657,255.294235 356.735657,255.294235 356.788116,252.589233 
	C359.787079,254.473145 360.102264,255.114227 360.386383,259.928772 
	C358.729004,260.548157 358.600281,259.010101 357.814575,257.898621 
z"/>
<path fill="#000000" opacity="1.000000" stroke="none" 
	d="
M229.129547,102.463058 
	C226.010040,99.622040 226.387619,97.475906 230.164062,96.732651 
	C235.810684,95.621315 241.706726,92.306396 247.035706,97.652672 
	C247.498123,98.116608 247.910172,98.646172 248.261017,99.198944 
	C248.419403,99.448471 248.369995,99.829895 248.416550,100.163681 
	C247.917465,101.645844 246.441864,101.036186 245.489548,101.531311 
	C242.985947,102.832947 240.214813,102.542442 237.944214,105.693489 
	C235.306900,109.353439 231.195236,107.467644 229.129547,102.463058 
z"/>
<path fill="#000000" opacity="1.000000" stroke="none" 
	d="
M225.546173,128.483978 
	C230.132690,128.982925 234.668472,128.222473 237.736923,132.957794 
	C231.939468,133.296646 226.144730,133.766922 220.342743,133.887772 
	C218.768539,133.920578 216.949188,132.913803 217.108810,130.830597 
	C217.261902,128.832550 219.020401,128.196686 220.700821,128.062851 
	C222.153183,127.947182 223.641525,128.283630 225.546173,128.483978 
z"/>
<path fill="#000000" opacity="1.000000" stroke="none" 
	d="
M222.045929,137.554550 
	C226.741425,135.279144 229.329895,135.658356 232.804611,138.774338 
	C228.921585,142.587173 223.211212,142.122406 222.045929,137.554550 
z"/>
</svg>