<svg version="1.1" id="Layer_1" xmlns="http://www.w3.org/2000/svg" xmlns:xlink="http://www.w3.org/1999/xlink" x="0px" y="0px"
	 width="100%" viewBox="0 0 736 736" enable-background="new 0 0 736 736" xml:space="preserve">
<path fill="#000000" opacity="1.000000" stroke="none" 
	d="
M447.625000,1.000000 
	C448.090790,2.993460 448.260681,4.986913 448.260895,6.980382 
	C448.267120,68.808395 448.172913,130.636627 448.340515,192.464172 
	C448.365295,201.604416 450.843567,210.502182 453.812469,219.147583 
	C455.223297,223.256027 457.341461,227.154572 454.756073,231.543121 
	C453.992188,232.839752 454.647034,234.238754 455.245026,235.367798 
	C457.630890,239.872421 457.256653,244.665298 457.184753,249.511185 
	C456.804382,275.165070 456.565491,300.820984 456.223389,326.475464 
	C456.169342,330.527863 456.922516,334.174500 458.697937,337.966553 
	C463.043579,347.248322 462.019775,357.376740 460.873291,367.023743 
	C459.295166,380.302551 458.997925,393.550995 458.915466,406.859497 
	C458.834991,419.852051 458.586304,432.843475 458.446838,445.835785 
	C458.386505,451.454346 459.040192,451.980804 464.487976,450.713745 
	C482.144470,446.607269 499.602753,441.532959 517.570740,438.924927 
	C537.477356,436.035492 557.515076,433.822235 577.171875,429.576630 
	C603.566406,423.875824 629.154480,415.191223 654.478577,405.950226 
	C664.085083,402.444733 672.999329,396.877960 681.917603,391.712982 
	C687.090515,388.717102 692.546326,388.101349 698.173157,387.693085 
	C700.940430,387.492310 703.247009,388.386658 703.283325,391.722839 
	C703.308289,394.013672 704.974792,395.247559 706.149170,396.811859 
	C710.906311,403.148956 710.803894,407.758545 705.990112,413.937012 
	C701.424316,419.797302 695.682312,424.367950 689.781067,428.699768 
	C681.544617,434.745789 675.574524,442.769165 670.455505,451.290497 
	C664.032043,461.983124 659.900146,463.791351 648.564758,458.925110 
	C644.480042,457.171570 640.346130,456.550079 635.959961,458.165405 
	C589.397278,475.313782 542.682007,492.058258 496.805298,511.012665 
	C496.189636,511.266998 495.592682,511.580780 494.958923,511.775208 
	C489.149506,513.557251 486.645203,516.922729 487.202606,523.494202 
	C488.259918,535.959167 484.058350,547.082031 476.365265,556.899048 
	C473.370789,560.720215 471.033936,564.816284 469.740387,569.606506 
	C468.263580,575.075378 465.972839,580.276917 462.832367,585.060852 
	C458.267761,592.014343 451.414062,594.416687 443.351440,592.325989 
	C438.218689,590.994995 432.920929,590.306763 427.709198,589.269897 
	C426.249298,588.979431 424.756683,588.642334 423.409363,588.036743 
	C419.263550,586.173584 419.116241,583.914978 422.885559,581.209290 
	C423.536713,580.741882 424.273376,580.393616 425.637848,579.604187 
	C421.592896,575.084045 416.856628,571.238159 415.148376,565.652588 
	C413.011841,558.666443 409.263000,557.418274 401.976959,557.903503 
	C382.569244,559.195923 363.059875,558.968262 343.590546,559.323059 
	C340.221008,559.384521 336.998444,558.476013 333.771881,557.641602 
	C331.756775,557.120544 330.135193,557.459167 329.347473,559.658691 
	C327.944061,563.577393 326.649384,567.546143 324.292938,571.041321 
	C321.962250,574.498413 319.003418,577.394714 315.951416,579.801697 
	C316.063354,580.596497 315.990173,581.025879 316.170105,581.217163 
	C322.110413,587.530762 321.829315,588.765991 314.308380,593.150452 
	C306.688934,597.592346 299.691010,598.565491 290.831909,594.816223 
	C279.184143,589.886902 274.053925,581.403625 271.636932,570.110657 
	C271.303009,568.550415 270.610870,567.316772 269.584503,566.209534 
	C261.224884,557.191772 256.649384,546.402039 255.729416,534.291687 
	C255.253891,528.031982 251.339310,526.245178 246.596039,524.114136 
	C225.635010,514.696594 205.042068,504.417084 183.518341,496.318634 
	C169.453049,491.026428 155.849823,484.856049 142.507263,477.976288 
	C127.961502,470.476135 112.287079,465.728516 97.004311,460.031738 
	C94.788864,459.205902 93.175972,460.114563 91.341866,460.892731 
	C79.506325,465.914062 74.193893,463.948486 68.209305,452.764557 
	C62.634323,442.346100 57.028595,431.982513 46.667923,425.179321 
	C37.934982,419.444946 33.559166,410.317444 29.357079,401.194733 
	C28.890928,400.182709 28.566202,398.935852 28.683281,397.852722 
	C29.395924,391.260071 38.771809,385.382629 44.848415,387.803284 
	C48.892525,389.414276 53.042065,390.601746 57.256630,391.561432 
	C62.022583,392.646667 66.734283,394.095764 70.552414,397.069885 
	C81.881577,405.894684 95.056267,410.930023 108.082123,416.445435 
	C130.782700,426.057312 153.433624,435.737640 176.859894,443.521362 
	C189.743256,447.802063 203.078369,448.555786 216.328552,448.443726 
	C236.130112,448.276276 255.527435,450.136841 274.662933,455.229492 
	C281.382812,457.017883 281.891602,456.538269 281.650299,449.537476 
	C280.601562,419.112823 280.655243,388.624451 276.023712,358.405304 
	C275.147797,352.690338 275.205109,346.783661 276.536224,341.006165 
	C279.041809,330.131012 277.779755,319.098785 277.429413,308.165100 
	C276.751984,287.023682 275.747345,265.891937 275.773224,244.734879 
	C275.778137,240.722443 277.229431,236.712692 272.652069,233.794724 
	C270.857666,232.650818 271.413452,229.724594 272.171753,227.663406 
	C281.261139,202.956436 276.886932,177.321594 277.368927,152.034500 
	C277.530640,143.549515 276.945221,135.052902 276.851593,126.559952 
	C276.418152,87.240280 276.044708,47.919952 275.619965,8.600179 
	C275.594879,6.275756 275.309448,3.954145 275.072571,1.315613 
	C276.066681,1.000000 277.133331,1.000000 278.596222,1.468665 
	C279.397369,33.253983 279.812469,64.570511 280.203461,95.887337 
	C280.438477,114.708260 279.669556,133.559738 281.122559,152.342361 
	C282.565430,170.994415 278.561462,189.819229 283.917664,208.452698 
	C285.420288,213.680222 285.728973,219.426315 287.981079,224.640167 
	C289.716888,228.658829 290.432556,232.660034 286.708313,236.128479 
	C285.486084,237.266754 285.409912,238.745804 285.533722,240.289734 
	C286.665558,254.402191 287.199158,268.534424 287.459442,282.693604 
	C287.673492,294.337219 288.588165,305.968933 289.244965,317.602966 
	C289.529755,322.648010 290.516968,323.247406 294.965240,321.288727 
	C299.076202,319.478546 303.202576,317.700226 307.272278,315.800964 
	C309.373688,314.820251 311.096954,314.835449 312.444305,316.943390 
	C321.486664,331.090057 328.801025,345.819794 325.226044,363.316895 
	C323.748993,370.546234 322.472748,377.557709 324.269592,384.904358 
	C325.252808,388.924438 325.700775,393.088654 326.204346,397.210602 
	C328.977112,419.906403 328.118042,442.760223 329.044342,465.536804 
	C329.170959,468.650482 329.568756,470.881073 332.981964,472.049500 
	C345.105804,476.199768 357.085968,480.754395 369.531830,483.947205 
	C373.335327,484.922974 376.685944,484.593414 380.157684,482.980225 
	C389.102295,478.823883 397.339813,473.463226 405.683350,468.272980 
	C408.665405,466.417938 409.812653,463.916260 409.767303,460.355194 
	C409.652802,451.362915 409.148438,442.284088 410.135681,433.388123 
	C412.263855,414.211182 412.718719,394.873260 415.788910,375.792145 
	C416.016235,374.379211 415.783203,372.741425 415.279114,371.388947 
	C413.516205,366.658783 412.548401,361.729950 412.207092,356.776733 
	C411.186523,341.964722 413.118042,327.872253 423.117004,315.909760 
	C425.342499,313.247162 427.309937,312.797943 430.382843,314.482819 
	C433.782440,316.346710 436.991730,318.988678 441.382446,318.856628 
	C441.595306,318.068787 441.906464,317.444702 441.912659,316.817566 
	C442.113434,296.489136 442.175568,276.090332 440.149139,255.920547 
	C439.463898,249.100128 440.127136,243.046616 441.101349,236.660309 
	C441.273438,235.532181 441.798401,233.799088 441.274170,233.324677 
	C435.555695,228.149750 439.377625,222.819046 441.023224,217.717194 
	C443.316498,210.607437 444.498718,203.087570 444.547607,195.947678 
	C444.979065,132.962692 444.771149,69.973335 444.766479,6.985273 
	C444.766327,4.990188 444.918701,2.995091 445.000000,1.000000 
	C445.750000,1.000000 446.500000,1.000000 447.625000,1.000000 
M449.333344,576.740662 
	C453.125671,575.515686 454.537354,572.885376 453.838104,569.043640 
	C453.320068,566.197327 454.288330,563.991760 456.181366,561.806213 
	C459.977356,557.423584 464.255096,553.423035 466.994781,548.164307 
	C470.970917,540.532410 474.518066,532.832581 473.744995,523.372009 
	C464.052795,527.749939 456.295837,534.427002 447.345673,538.583008 
	C445.413391,536.596802 445.879089,534.675110 445.852997,532.906128 
	C445.789093,528.578918 445.690643,524.242615 445.896362,519.923767 
	C446.075165,516.169800 444.409637,514.982849 440.854156,515.004150 
	C434.931396,515.039673 429.320587,516.131531 423.903198,518.547302 
	C421.006683,519.839050 420.124695,521.522827 420.722687,524.790527 
	C422.545746,534.752747 423.901245,544.799683 425.595612,554.786987 
	C426.087219,557.684692 425.997284,561.109375 428.637238,563.023926 
	C435.180511,567.769287 441.931274,572.228638 449.333344,576.740662 
M317.813995,547.999390 
	C318.391968,544.898926 319.113373,541.817139 319.519775,538.694336 
	C320.545258,530.814697 319.865845,529.697510 312.203156,527.088318 
	C308.594910,525.859619 304.897522,524.834900 301.175446,524.012024 
	C295.806976,522.825195 295.258972,523.424133 295.013123,529.070007 
	C294.800232,533.959656 295.681732,538.940918 294.024963,544.555176 
	C285.449982,541.097595 277.270355,537.799438 269.247101,534.564331 
	C267.897034,536.441101 268.711548,537.643250 269.205811,538.834900 
	C272.366699,546.456177 276.721313,553.215454 282.897095,558.827393 
	C286.809570,562.382690 291.047974,566.076599 287.687592,572.400208 
	C286.939819,573.807312 287.203491,575.434021 288.795319,576.310425 
	C290.321136,577.150452 291.943756,579.002014 293.727966,577.523560 
	C296.251465,575.432556 299.309601,575.314148 302.159088,574.859009 
	C309.073822,573.754578 312.348755,569.203857 314.411102,563.193481 
	C315.053986,561.319946 315.052765,559.496399 313.491852,558.123291 
	C308.682739,553.892883 303.584991,550.199829 296.694244,550.668701 
	C295.037048,550.781494 293.120239,551.473694 292.969208,548.874207 
	C292.818665,546.283203 294.327728,545.367920 296.790222,545.640320 
	C302.082520,546.225708 307.322906,547.018433 312.454010,548.531128 
	C314.045288,549.000305 315.782013,550.556519 317.813995,547.999390 
M475.163574,509.615326 
	C483.118744,509.645355 484.684174,507.190277 480.562897,500.457733 
	C476.367767,493.604584 470.791016,488.653564 461.964874,489.521942 
	C459.479736,489.766449 458.374756,489.160522 458.400421,486.305573 
	C458.442139,481.668091 457.999908,477.021301 457.645935,472.387329 
	C457.473785,470.133759 457.665344,467.228058 454.199371,467.500214 
	C451.207001,467.735229 448.129272,468.234070 448.310028,472.578857 
	C448.502991,477.217377 448.429535,481.868530 448.411652,486.513947 
	C448.371094,497.040588 448.355957,497.039978 458.809509,498.400208 
	C459.138733,498.443054 459.461151,498.549744 459.790741,498.575714 
	C466.915771,499.137451 470.708069,504.220123 475.163574,509.615326 
M272.164154,501.944672 
	C274.118378,499.804077 273.973083,497.250671 272.782410,495.045013 
	C272.020599,493.633820 270.105865,493.238434 268.326019,493.817841 
	C261.141449,496.156708 254.077820,512.553772 257.273376,519.514343 
	C258.557617,522.311584 261.229309,523.256409 263.820404,523.175659 
	C266.281738,523.098999 265.593170,520.427979 265.922546,518.755005 
	C267.047699,513.040527 268.196289,507.341431 272.164154,501.944672 
M282.983337,479.187683 
	C282.610260,481.479065 282.831512,484.119019 281.736084,485.986725 
	C279.679657,489.492889 280.185150,493.100647 280.355103,496.675171 
	C280.579926,501.404633 284.795654,499.643280 287.334015,500.290192 
	C289.470917,500.834839 290.952057,499.380096 290.654846,497.106293 
	C289.485352,488.158783 289.760925,479.163513 289.565002,470.183350 
	C289.519684,468.104401 288.417175,467.259857 286.393585,467.215088 
	C284.218628,467.166992 283.415649,468.327301 283.338013,470.276001 
	C283.231903,472.938995 283.142029,475.602631 282.983337,479.187683 
M446.032745,238.577362 
	C445.439453,241.270615 444.846161,243.963867 444.158234,247.086777 
	C447.847290,246.709167 451.161377,245.669327 451.855438,243.131653 
	C452.699280,240.046341 450.978271,236.808731 448.358276,234.639221 
	C446.333832,235.086227 446.431122,236.569214 446.032745,238.577362 
M450.384583,226.113052 
	C450.291199,222.921402 449.548828,220.046509 446.391205,217.765915 
	C445.314636,221.042389 442.752502,223.836304 444.650146,226.883835 
	C445.672699,228.525955 448.244049,228.115311 450.384583,226.113052 
M280.980316,222.042084 
	C276.769257,223.309845 277.420410,226.761688 277.912109,229.734604 
	C278.143402,231.132721 280.044037,231.648529 281.633911,231.284775 
	C283.136841,230.940872 283.731842,229.826523 283.684601,228.358917 
	C283.613647,226.155518 282.636780,224.277618 280.980316,222.042084 
z"/>
<path fill="#000000" opacity="1.000000" stroke="none" 
	d="
M397.178406,306.515930 
	C398.944855,307.712280 398.523132,308.989502 397.907288,310.228455 
	C390.028564,326.078674 389.329559,343.599060 386.348785,360.563904 
	C384.680084,370.061310 381.468536,374.955414 374.091980,376.916901 
	C367.584320,378.647308 354.280090,373.975311 350.614807,368.533539 
	C348.714233,365.711853 347.957642,362.425964 347.820404,359.063293 
	C347.131317,342.179962 344.488403,325.658173 338.750214,309.712891 
	C337.960388,307.518066 338.087006,305.955475 340.270752,304.671387 
	C344.636688,302.104156 344.074127,298.005859 343.087189,294.051300 
	C341.203766,286.504333 337.909973,279.500732 334.605133,272.481750 
	C332.418793,267.838226 330.630615,262.916473 332.918243,257.631317 
	C333.152496,257.090088 333.159607,256.253906 332.908264,255.728760 
	C329.329468,248.251419 331.283722,240.314682 330.935303,232.575592 
	C330.829041,230.215042 331.721924,228.039902 332.297455,225.781357 
	C336.644257,208.723373 350.690704,205.147095 364.904114,204.023849 
	C377.904358,202.996460 388.238556,210.666595 396.892517,219.859161 
	C400.120331,223.287903 399.671082,228.326233 400.098785,232.723175 
	C400.595795,237.832657 400.594910,243.007874 399.441467,248.127884 
	C398.558258,252.048370 398.369598,255.605072 399.841370,259.961060 
	C401.941437,266.176392 398.516052,272.549652 395.547913,278.407410 
	C391.782104,285.839447 390.337646,293.637146 391.948456,301.949585 
	C392.512299,304.859283 394.876007,305.280762 397.178406,306.515930 
z"/>
</svg>