<svg version="1.1" id="Layer_1" xmlns="http://www.w3.org/2000/svg" xmlns:xlink="http://www.w3.org/1999/xlink" x="0px" y="0px"
	 width="100%" viewBox="0 0 416 448" enable-background="new 0 0 416 448" xml:space="preserve">
<path fill="#000000" opacity="1.000000" stroke="none" 
	d="
M254.468658,449.000000 
	C250.897095,441.919281 251.566330,439.248871 258.174377,436.268860 
	C267.257935,432.172546 273.236206,425.016571 276.825165,416.287689 
	C279.075043,410.815643 280.388153,404.691772 277.114716,398.394196 
	C266.378143,377.738739 259.011688,355.419617 245.927597,335.893799 
	C238.797516,325.253387 238.894669,313.302307 241.050430,301.202118 
	C241.446838,298.977081 241.804337,296.745056 242.354019,293.481812 
	C239.571671,296.114777 237.444946,297.931946 235.545822,299.962036 
	C230.403137,305.459473 224.667953,310.239746 218.405762,314.386627 
	C215.064865,316.598938 213.769424,319.262451 215.289017,323.275574 
	C221.643951,340.058441 220.051682,357.306549 217.883881,374.522614 
	C216.804932,383.091248 216.756897,391.436310 220.855957,399.315277 
	C224.396698,406.121033 224.297760,413.819550 226.231384,421.022675 
	C227.095596,424.242035 225.188400,426.472778 221.902328,427.178192 
	C218.648926,427.876617 215.383606,428.435974 212.009628,428.320923 
	C199.507935,427.894501 187.068069,428.956573 174.627487,429.995789 
	C169.569778,430.418335 164.691544,429.305878 159.879578,427.917358 
	C156.106491,426.828613 152.950348,424.761627 152.854691,420.499268 
	C152.753036,415.968323 155.873810,413.612183 159.974869,412.766907 
	C171.055237,410.483093 179.834885,404.546600 187.221405,396.204773 
	C191.319550,391.576599 192.892212,386.814056 192.311081,380.172791 
	C190.376709,358.066681 185.485916,336.533447 181.204178,314.871185 
	C180.208694,309.834808 181.059372,305.377472 183.743393,301.036804 
	C197.709930,278.449799 212.223465,256.302826 233.320282,239.487946 
	C235.911713,237.422485 235.876266,234.922195 235.523972,232.323242 
	C234.205917,222.599945 232.648361,213.094559 227.324356,204.338943 
	C220.472336,193.070404 217.920227,179.876114 212.683182,167.815567 
	C209.886475,161.374954 211.617752,154.073196 213.016617,147.101196 
	C202.813339,144.029175 192.565796,142.725342 182.317245,142.640854 
	C163.851562,142.488617 147.575333,135.641525 131.705750,127.351532 
	C128.028442,125.430573 125.065536,125.006622 121.673698,127.623718 
	C116.980530,131.244904 110.894424,131.919510 105.796158,134.781982 
	C103.374908,136.141434 100.946404,135.067963 98.759109,133.635483 
	C95.561981,131.541656 92.390846,129.404236 89.136978,127.401840 
	C84.369591,124.468040 81.883224,125.304298 80.566711,130.482040 
	C78.378967,139.086258 71.826920,143.209702 64.166725,144.804855 
	C54.874626,146.739807 45.551525,145.756912 37.463375,139.770142 
	C33.591011,136.903839 30.598942,133.358444 29.691254,128.533554 
	C27.779411,118.370941 27.254568,108.240486 33.239819,99.094109 
	C39.194519,89.994431 54.906761,86.028969 66.995651,90.275368 
	C72.331635,92.149712 76.856308,95.198471 79.909973,100.036316 
	C83.909714,106.372993 89.999496,107.180519 96.533051,106.279701 
	C108.025711,104.695145 119.347992,102.505280 131.161377,103.450890 
	C142.586472,104.365425 154.158737,104.169418 165.625824,103.618118 
	C176.199982,103.109756 186.085358,105.805122 196.043259,108.396889 
	C203.885818,110.438087 211.539276,109.662598 219.236908,107.888535 
	C222.088669,107.231293 224.956192,106.642487 227.675476,106.053047 
	C227.838684,104.901611 227.388611,104.295792 226.762955,104.165932 
	C219.625061,102.684380 217.151779,98.126450 217.279114,91.133720 
	C217.329697,88.356018 216.468735,85.379471 213.659286,83.297020 
	C210.681732,81.089989 211.914871,78.104553 213.784653,75.797867 
	C216.560364,72.373550 216.390152,68.820938 216.120911,64.603203 
	C214.941650,46.130257 218.383759,37.635910 240.610962,34.865772 
	C250.127899,33.679699 259.651123,34.383781 267.690277,40.827866 
	C268.799500,41.717037 270.064148,41.834774 271.443756,41.844021 
	C288.446045,41.957981 296.149109,47.841492 297.859436,64.657974 
	C298.940735,75.290237 303.366699,81.662575 313.585175,84.411026 
	C312.199829,91.946686 306.321716,93.978729 300.630280,95.882065 
	C300.088562,97.877113 302.939087,97.404770 302.493317,99.100380 
	C290.205048,106.202896 275.251678,97.209267 274.849182,82.292847 
	C274.751404,78.668678 275.269379,74.957466 276.030273,71.398766 
	C276.936584,67.159721 276.912689,63.163586 274.237793,57.739090 
	C275.307007,67.321106 271.804749,74.103096 267.775574,80.709045 
	C266.198486,83.294724 266.220123,85.970367 266.872742,88.886086 
	C268.373108,95.589386 271.500488,101.481712 276.183075,106.315399 
	C286.373077,116.834152 287.961517,129.303329 285.478333,142.953018 
	C282.979462,156.688843 280.245453,170.419357 281.203583,184.502533 
	C281.708466,191.923874 283.333282,198.928543 288.920197,204.496780 
	C291.173676,206.742737 292.161194,209.903961 293.283783,212.861771 
	C294.474976,216.000275 295.857697,219.080338 298.009186,221.625015 
	C308.650604,234.211136 307.909088,248.725739 304.541931,263.287384 
	C301.894775,274.735199 295.359863,284.644623 289.652985,294.801544 
	C285.574097,302.061035 281.422424,309.281891 277.168213,316.439697 
	C274.956848,320.160400 275.000214,323.614349 277.438385,327.165771 
	C278.945496,329.360931 280.134766,331.782959 281.721466,333.913452 
	C290.862823,346.187805 294.576385,360.266754 296.442322,375.213043 
	C297.794830,386.046875 298.967163,397.021667 303.226624,407.296082 
	C304.194275,409.630127 305.486664,411.719849 306.988586,413.730896 
	C312.768494,421.470123 311.475861,431.194946 314.136719,439.827240 
	C315.024139,442.706268 313.360077,445.268311 310.031281,446.258667 
	C308.136230,446.822510 306.354492,447.767120 304.260864,448.770111 
	C287.645782,449.000000 271.291534,449.000000 254.468658,449.000000 
M242.573074,137.674408 
	C245.072144,137.684708 247.578491,137.579193 250.068329,137.736084 
	C252.861542,137.912064 255.074127,138.960938 255.545792,142.702896 
	C252.951065,142.700974 250.680252,141.853485 248.400986,142.624359 
	C243.455276,144.297043 242.693466,146.185959 245.390930,150.688873 
	C247.630219,154.426971 251.396729,155.852386 255.246841,156.988480 
	C266.150970,160.206039 273.939667,155.718689 276.888000,144.821304 
	C278.224670,139.881027 278.203339,134.905243 277.571167,129.941818 
	C275.955963,117.260094 265.631744,108.345055 252.893753,108.161774 
	C246.495209,108.069710 240.830719,110.221115 235.284042,113.023155 
	C231.980179,114.692184 228.444962,116.546234 224.843674,114.807442 
	C222.408264,113.631577 220.421951,113.965225 218.190887,114.604279 
	C210.359451,116.847519 202.404465,117.302490 194.508591,115.367332 
	C183.988190,112.788925 173.554871,110.566277 162.539703,111.216759 
	C148.402969,112.051582 134.273834,110.817085 120.143951,109.886192 
	C114.477776,109.512894 108.529472,110.312195 102.710617,112.796570 
	C106.924553,117.877945 111.436859,119.927673 117.315407,118.435646 
	C123.358009,116.901978 129.132629,117.766541 134.853653,120.219879 
	C147.272629,125.545509 159.983704,130.004669 173.557770,131.262711 
	C178.321793,131.704254 183.211090,132.506653 187.671509,130.745514 
	C187.660156,127.943184 184.054260,127.847878 185.188080,124.878578 
	C188.715256,125.328613 191.369308,127.122490 193.529556,129.371887 
	C193.336731,131.123550 190.925552,129.775375 191.281509,131.756393 
	C194.248550,133.798599 197.665268,134.659149 201.031998,135.530426 
	C214.405731,138.991425 227.957672,139.469849 242.573074,137.674408 
M251.516006,70.210205 
	C249.903397,71.576996 249.179321,73.352425 248.916351,75.423866 
	C248.759750,76.657326 247.172424,78.122917 246.760239,77.259598 
	C245.155060,73.897522 240.619446,74.196259 239.327057,70.883606 
	C238.000687,67.483902 235.686798,64.968880 232.906296,62.790119 
	C230.504440,60.908081 228.523148,58.965569 228.333023,55.517384 
	C228.184937,52.831406 226.321671,52.082092 223.641556,52.920673 
	C218.646210,54.483665 220.599930,58.555534 220.391159,61.723343 
	C220.172745,65.037369 222.856628,64.566101 224.987808,64.666336 
	C226.621124,64.743156 228.306961,64.167801 230.009979,65.077560 
	C229.841919,67.063911 229.671646,69.076607 229.489044,71.234932 
	C227.131866,71.386375 225.153778,72.175911 223.141632,72.739670 
	C220.007919,73.617668 218.434723,75.722725 218.243622,78.309006 
	C218.017197,81.373238 221.700745,79.987022 223.152863,81.367203 
	C223.305008,84.574318 223.305008,84.574318 226.594360,87.398354 
	C222.497070,89.502365 222.541504,92.951744 224.529922,96.126091 
	C226.602661,99.435005 229.681076,96.815346 232.240967,96.362251 
	C234.167145,96.021332 235.930359,94.848457 237.837067,94.286781 
	C240.311691,93.557808 241.585999,90.477318 244.631760,90.704582 
	C245.666321,93.247673 244.097122,95.415733 244.208267,97.711205 
	C244.312866,99.871445 244.883057,101.307816 247.314209,101.235443 
	C251.136597,101.121643 254.958359,100.984810 258.779663,100.838287 
	C260.522888,100.771454 261.924652,100.055061 261.299225,98.101868 
	C259.605652,92.812874 257.808014,87.555870 256.704224,81.697220 
	C254.654083,82.675667 253.372025,83.433754 251.993057,83.912758 
	C249.695038,84.710999 246.674454,86.435959 245.175507,83.828957 
	C243.385147,80.715157 246.898987,79.838448 248.938873,78.635483 
	C250.743240,77.571404 251.949722,76.018745 252.701141,74.123146 
	C253.308914,72.589905 254.572632,70.839447 251.516006,70.210205 
M295.627777,413.516693 
	C296.435669,413.720459 297.421722,413.991211 297.733368,412.971344 
	C299.163483,408.291656 294.976135,402.757294 290.221069,402.913452 
	C288.776123,402.960876 287.328308,402.920807 285.967072,402.920807 
	C284.645905,406.356445 285.671234,408.298065 288.553131,409.632294 
	C290.787415,410.666718 292.883667,411.999298 295.627777,413.516693 
M200.602432,394.945496 
	C202.481750,396.272125 204.257278,397.792725 206.270187,398.869720 
	C208.205246,399.905121 209.743073,398.595001 211.011993,397.213257 
	C212.173950,395.947937 212.986710,394.403992 212.387772,392.695251 
	C211.671310,390.651154 209.776199,391.119843 208.153473,391.132416 
	C205.842560,391.150360 203.530090,391.094849 201.220795,391.160126 
	C197.947739,391.252655 198.520554,392.713074 200.602432,394.945496 
z"/>
</svg>