<?xml version="1.0" encoding="UTF-8"?>
<svg xmlns="http://www.w3.org/2000/svg" xmlns:xlink="http://www.w3.org/1999/xlink" width="384px" height="384px" viewBox="0 0 384 384" version="1.1">
<g id="surface1">
<path style=" stroke:none;fill-rule:nonzero;fill:rgb(100%,100%,100%);fill-opacity:1;" d="M 0.75 300.75 C 0.75 200.78125 0.75 100.816406 0.75 0.800781 C 128.675781 0.800781 256.597656 0.800781 384.75 0.800781 C 384.75 96.765625 384.75 192.785156 384.460938 289.046875 C 384.113281 288.550781 384.082031 287.808594 384 287.070312 C 383.117188 279.402344 378.144531 274.457031 369.796875 275.945312 C 361.824219 277.367188 353.804688 278.53125 345.65625 279.671875 C 345.402344 279.453125 345.296875 279.371094 345.367188 279.089844 C 348.265625 277.125 351.15625 275.5625 353.675781 273.535156 C 356.617188 271.164062 359.359375 268.628906 359.3125 264.171875 C 359.21875 255.257812 352.664062 246.957031 343.542969 244.777344 C 343.777344 242.742188 344.082031 240.703125 344.238281 238.652344 C 344.542969 234.59375 344.300781 230.429688 345.132812 226.488281 C 346.421875 220.394531 345.789062 215.234375 340.476562 211.425781 C 344.507812 198.765625 344.664062 191.570312 340.414062 180.046875 C 339.664062 178.023438 337.835938 175.578125 335.960938 174.945312 C 331.308594 173.378906 326.375 172.496094 321.484375 171.855469 C 319.082031 171.542969 317.636719 171.226562 317.984375 168.464844 C 318.074219 167.734375 318.105469 166.917969 317.875 166.238281 C 313.441406 153.285156 303.261719 143.585938 288.464844 143.992188 C 286.566406 144.042969 284.664062 143.996094 283.046875 143.996094 C 283.222656 141.066406 283.75 138.699219 283.421875 136.460938 C 282.671875 131.328125 281.777344 126.183594 280.375 121.199219 C 279.792969 119.140625 278.128906 116.5 276.328125 115.839844 C 271.839844 114.199219 267.039062 113.085938 262.277344 112.59375 C 252.296875 111.558594 243.011719 114.277344 234.886719 118.804688 C 231.816406 113.691406 228.96875 108.527344 225.6875 103.65625 C 223.988281 101.128906 221.765625 98.804688 219.347656 96.957031 C 215.941406 94.355469 210.035156 95.601562 206.339844 99.28125 C 197.59375 107.984375 188.871094 116.710938 180.164062 125.402344 C 169.214844 116.597656 154.246094 115.816406 143.097656 124.964844 C 142.160156 125.730469 140.480469 126.761719 139.734375 126.414062 C 133.382812 123.445312 126.851562 124.433594 120.003906 125.128906 C 120.003906 117.375 120.03125 109.648438 119.972656 101.921875 C 119.964844 100.613281 119.710938 99.273438 119.367188 98 C 115.976562 85.414062 107.058594 79.496094 94.503906 77.691406 C 94.503906 74.613281 94.386719 71.5 94.582031 68.40625 C 94.632812 67.574219 95.464844 66.460938 96.238281 66.066406 C 99.960938 64.167969 101.964844 61.242188 101.988281 57.085938 C 102.035156 48.335938 101.652344 39.566406 102.121094 30.84375 C 102.453125 24.625 96.667969 20.121094 91.285156 20.1875 C 76.664062 20.367188 62.039062 20.238281 47.414062 20.253906 C 40.949219 20.261719 36.769531 24.4375 36.753906 30.894531 C 36.734375 38.519531 36.84375 46.144531 36.71875 53.769531 C 36.613281 60.035156 38.144531 65.144531 44.808594 66.914062 C 44.808594 70.75 44.808594 74.339844 44.808594 77.738281 C 42.917969 78.105469 41.253906 78.464844 39.578125 78.742188 C 28.375 80.589844 18.855469 91.460938 18.820312 102.632812 C 18.65625 157 18.726562 211.371094 18.816406 265.738281 C 18.820312 268.273438 17.972656 269.914062 16.1875 271.460938 C 10.792969 276.125 7.1875 282.082031 4.554688 288.585938 C 2.964844 292.511719 1.996094 296.6875 0.75 300.75 Z M 0.75 300.75 "/>
<path style=" stroke:none;fill-rule:nonzero;fill:rgb(0.784314%,0.784314%,0.392157%);fill-opacity:1;" d="M 0.75 301.101562 C 1.996094 296.6875 2.964844 292.511719 4.554688 288.585938 C 7.1875 282.082031 10.792969 276.125 16.1875 271.460938 C 17.972656 269.914062 18.820312 268.273438 18.816406 265.738281 C 18.726562 211.371094 18.65625 157 18.820312 102.632812 C 18.855469 91.460938 28.375 80.589844 39.578125 78.742188 C 41.253906 78.464844 42.917969 78.105469 44.808594 77.738281 C 44.808594 74.339844 44.808594 70.75 44.808594 66.914062 C 38.144531 65.144531 36.613281 60.035156 36.71875 53.769531 C 36.84375 46.144531 36.734375 38.519531 36.753906 30.894531 C 36.769531 24.4375 40.949219 20.261719 47.414062 20.253906 C 62.039062 20.238281 76.664062 20.367188 91.285156 20.1875 C 96.667969 20.121094 102.453125 24.625 102.121094 30.84375 C 101.652344 39.566406 102.035156 48.335938 101.988281 57.085938 C 101.964844 61.242188 99.960938 64.167969 96.238281 66.066406 C 95.464844 66.460938 94.632812 67.574219 94.582031 68.40625 C 94.386719 71.5 94.503906 74.613281 94.503906 77.691406 C 107.058594 79.496094 115.976562 85.414062 119.367188 98 C 119.710938 99.273438 119.964844 100.613281 119.972656 101.921875 C 120.03125 109.648438 120.003906 117.375 120.003906 125.128906 C 126.851562 124.433594 133.382812 123.445312 139.734375 126.414062 C 140.480469 126.761719 142.160156 125.730469 143.097656 124.964844 C 154.246094 115.816406 169.214844 116.597656 180.164062 125.402344 C 188.871094 116.710938 197.59375 107.984375 206.339844 99.28125 C 210.035156 95.601562 215.941406 94.355469 219.347656 96.957031 C 221.765625 98.804688 223.988281 101.128906 225.6875 103.65625 C 228.96875 108.527344 231.816406 113.691406 234.886719 118.804688 C 243.011719 114.277344 252.296875 111.558594 262.277344 112.59375 C 267.039062 113.085938 271.839844 114.199219 276.328125 115.839844 C 278.128906 116.5 279.792969 119.140625 280.375 121.199219 C 281.777344 126.183594 282.671875 131.328125 283.421875 136.460938 C 283.75 138.699219 283.222656 141.066406 283.046875 143.996094 C 284.664062 143.996094 286.566406 144.042969 288.464844 143.992188 C 303.261719 143.585938 313.441406 153.285156 317.875 166.238281 C 318.105469 166.917969 318.074219 167.734375 317.984375 168.464844 C 317.636719 171.226562 319.082031 171.542969 321.484375 171.855469 C 326.375 172.496094 331.308594 173.378906 335.960938 174.945312 C 337.835938 175.578125 339.664062 178.023438 340.414062 180.046875 C 344.664062 191.570312 344.507812 198.765625 340.476562 211.425781 C 345.789062 215.234375 346.421875 220.394531 345.132812 226.488281 C 344.300781 230.429688 344.542969 234.59375 344.238281 238.652344 C 344.082031 240.703125 343.777344 242.742188 343.542969 244.777344 C 352.664062 246.957031 359.21875 255.257812 359.3125 264.171875 C 359.359375 268.628906 356.617188 271.164062 353.675781 273.535156 C 351.15625 275.5625 348.265625 277.125 345.175781 279.25 C 344.40625 279.730469 344 279.851562 343.59375 279.972656 C 343.660156 280.195312 343.726562 280.417969 343.796875 280.640625 C 344.464844 280.363281 345.136719 280.085938 345.804688 279.808594 C 353.804688 278.53125 361.824219 277.367188 369.796875 275.945312 C 378.144531 274.457031 383.117188 279.402344 384 287.070312 C 384.082031 287.808594 384.113281 288.550781 384.460938 289.394531 C 384.75 292.269531 384.75 295.039062 384.488281 298.226562 C 382.980469 302.773438 379.691406 304.457031 375.886719 305.21875 C 367.21875 306.953125 358.515625 308.503906 349.292969 310.230469 C 350.269531 310.722656 350.753906 311.085938 351.296875 311.222656 C 355.378906 312.246094 359.492188 313.140625 363.550781 314.246094 C 366.75 315.113281 369.503906 317.132812 369.679688 320.472656 C 369.933594 325.351562 369.566406 330.3125 368.964844 335.175781 C 368.128906 341.953125 360.757812 344.371094 355.589844 343.445312 C 341.105469 340.855469 326.660156 338.082031 312.226562 335.386719 C 312.007812 338.617188 312.109375 341.507812 311.570312 344.277344 C 309.007812 357.378906 297.875 365.269531 283.996094 365.265625 C 211.519531 365.238281 139.046875 365.214844 66.574219 365.292969 C 55.847656 365.304688 45.351562 364.347656 35.457031 359.96875 C 21.828125 353.933594 11.3125 344.527344 5.289062 330.683594 C 3.410156 326.367188 2.242188 321.738281 0.75 317.25 C 0.75 311.984375 0.75 306.71875 0.75 301.101562 M 57.800781 32.136719 C 54.863281 32.136719 51.925781 32.136719 48.960938 32.136719 C 48.960938 40.15625 48.960938 47.636719 48.960938 55.179688 C 52.378906 55.179688 55.460938 55.179688 59.226562 55.320312 C 69.554688 55.320312 79.882812 55.320312 90.277344 55.320312 C 90.277344 47.386719 90.277344 39.871094 90.277344 32.222656 C 79.457031 32.222656 68.976562 32.222656 57.800781 32.136719 M 74.90625 206.382812 C 74.664062 206.019531 74.425781 205.652344 73.511719 205.109375 C 65.023438 205.179688 56.53125 205.25 47.367188 205.101562 C 41.679688 205.101562 35.988281 205.101562 30.3125 205.101562 C 30.3125 223.839844 30.3125 242.023438 30.3125 261.390625 C 33.140625 257.871094 34.921875 254.566406 37.648438 252.558594 C 40.667969 250.339844 44.554688 249.304688 48.714844 247.730469 C 54.394531 247.210938 60.078125 246.695312 65.425781 246.207031 C 64.832031 237.933594 64.113281 229.5 63.660156 221.050781 C 63.414062 216.40625 66.152344 212.285156 70.40625 211.566406 C 73.574219 211.035156 74.605469 209.578125 74.90625 206.382812 M 48.703125 116.316406 C 54.15625 116.324219 59.613281 116.390625 65.070312 116.3125 C 69.101562 116.257812 71.710938 117.875 72.230469 122.546875 C 71.582031 126.3125 69.15625 127.609375 65.566406 127.589844 C 59.722656 127.558594 53.878906 127.675781 47.332031 127.601562 C 41.664062 127.601562 35.992188 127.601562 30.324219 127.601562 C 30.324219 149.871094 30.324219 171.519531 30.324219 193.578125 C 36.351562 193.578125 42.167969 193.578125 48.683594 193.671875 C 56.921875 193.679688 65.167969 193.496094 73.394531 193.765625 C 78.535156 193.929688 83.363281 193.722656 86.867188 189.375 C 87.71875 188.320312 88.609375 186.777344 88.503906 185.546875 C 87.597656 175.011719 90.5625 166.136719 98.808594 159.164062 C 99.804688 158.324219 100.398438 156.398438 100.328125 155.015625 C 99.933594 147.296875 102.164062 140.589844 106.933594 134.5 C 108.25 132.816406 108.476562 130.277344 109.390625 127.566406 C 105.4375 127.566406 102.699219 127.429688 99.980469 127.601562 C 95.8125 127.863281 93.324219 126.101562 92.742188 121.484375 C 93.371094 117.6875 95.945312 116.394531 99.425781 116.34375 C 102.484375 116.300781 105.546875 116.335938 108.746094 116.335938 C 108.746094 112.355469 108.796875 108.875 108.738281 105.398438 C 108.589844 96.609375 103.183594 90.074219 94.429688 89.761719 C 80.988281 89.285156 67.519531 89.699219 53.390625 89.5 C 50.894531 89.488281 48.390625 89.363281 45.898438 89.484375 C 36.945312 89.914062 31.046875 95.320312 30.304688 104.066406 C 29.96875 108.003906 30.246094 111.992188 30.246094 116.191406 C 36.347656 116.191406 42.179688 116.191406 48.703125 116.316406 M 42.023438 278.453125 C 42.5 276.699219 42.976562 274.945312 43.527344 272.925781 C 40.480469 272.8125 38.90625 269.03125 35.222656 271.078125 C 17.582031 280.890625 8.5625 300.558594 13.410156 319.1875 C 18.335938 338.121094 37.851562 353.3125 57.703125 353.261719 C 69.660156 353.261719 81.617188 353.261719 94.019531 353.261719 C 93.421875 351.960938 92.992188 350.972656 92.519531 350.007812 C 86.015625 336.671875 91.324219 321.171875 104.738281 314.8125 C 108.785156 312.894531 113.046875 311.425781 117.238281 309.820312 C 126.757812 306.167969 136.296875 302.5625 146.058594 298.847656 C 143.175781 287.90625 136.972656 279.785156 128.082031 273.5625 C 122.234375 269.476562 122.222656 269.488281 115.980469 273.519531 C 116.203125 274.167969 116.453125 274.851562 116.675781 275.539062 C 118.875 282.34375 116.035156 287.507812 109.011719 288.9375 C 106.625 289.425781 103.890625 289.703125 101.625 289.035156 C 95.570312 287.242188 89.492188 285.289062 83.804688 282.585938 C 80.792969 281.15625 78.871094 280.699219 75.859375 282.550781 C 69.207031 286.632812 61.925781 289.339844 53.972656 289.421875 C 46.644531 289.5 42.496094 285.800781 42.023438 278.453125 M 300.464844 336.882812 C 299.296875 330.386719 298.144531 323.886719 296.949219 317.394531 C 294.425781 303.675781 291.941406 289.949219 289.328125 276.246094 C 287.285156 265.523438 278.652344 260.734375 268.324219 264.488281 C 264.34375 265.933594 260.410156 267.492188 256.453125 268.996094 C 246.242188 272.875 236.03125 276.753906 225.699219 280.679688 C 226.683594 285.871094 227.652344 290.742188 228.523438 295.628906 C 229.199219 299.441406 227.304688 302.464844 224.023438 303.015625 C 220.832031 303.554688 218.28125 301.601562 217.492188 297.835938 C 216.601562 293.601562 215.84375 289.339844 214.972656 284.796875 C 212.601562 285.675781 210.492188 286.382812 208.445312 287.242188 C 204.726562 288.804688 201.644531 288.289062 199.414062 284.105469 C 198.683594 280.160156 200.726562 278.074219 204.167969 276.773438 C 224.316406 269.15625 244.429688 261.449219 264.59375 253.871094 C 273.902344 250.371094 282.96875 251.101562 290.644531 257.59375 C 294.488281 260.851562 297.144531 265.515625 300.550781 269.816406 C 308.292969 265.246094 316.671875 260.074219 325.28125 255.328125 C 328.734375 253.425781 330.8125 251.1875 331.261719 247.191406 C 332.179688 238.96875 333.359375 230.777344 334.480469 222.199219 C 332.148438 222.199219 330.917969 222.199219 329.691406 222.199219 C 317.070312 222.199219 304.449219 222.160156 291.828125 222.222656 C 287.964844 222.238281 285.246094 221.015625 284.847656 216.25 C 285.875 209.242188 291.972656 211.667969 295.976562 210.460938 C 297.089844 202.410156 292.964844 195.679688 285.082031 194.09375 C 279.753906 193.023438 277.972656 190.339844 277.382812 185.3125 C 276.703125 179.503906 272.9375 175.621094 267.378906 173.851562 C 262.332031 172.246094 257.699219 173.273438 253.085938 177.019531 C 257.433594 178.570312 260.675781 180.738281 260.941406 185.132812 C 261.140625 188.46875 261.078125 191.910156 260.464844 195.179688 C 259.503906 200.277344 257.976562 205.265625 256.6875 210.316406 C 262.695312 212.699219 262.695312 212.699219 263.417969 217.363281 C 262.621094 222 259.171875 222.210938 255.488281 222.210938 C 202.589844 222.191406 149.691406 222.199219 96.792969 222.207031 C 95.300781 222.207031 93.808594 222.3125 91.628906 222.179688 C 86.160156 222.179688 80.695312 222.179688 74.648438 222.179688 C 75.121094 228.28125 75.566406 234.007812 75.925781 238.613281 C 79.089844 239.441406 81.992188 239.371094 83.390625 240.785156 C 85 242.410156 85.277344 245.351562 86.144531 247.753906 C 88.851562 247.382812 91.691406 246.992188 95.226562 246.679688 C 101.867188 247.457031 108.617188 247.738281 115.113281 249.167969 C 120.261719 250.300781 124.679688 253.25 126.714844 258.769531 C 127.105469 259.832031 128.566406 260.628906 129.695312 261.273438 C 136.703125 265.292969 143.007812 270.226562 147.53125 276.917969 C 151.25 282.417969 154.207031 288.433594 157.648438 294.472656 C 161.441406 293.023438 165.859375 291.429688 170.195312 289.644531 C 173.90625 288.121094 176.976562 288.5 179.269531 292.625 C 180.085938 296.53125 178.203125 298.71875 174.714844 300.027344 C 165.402344 303.515625 156.105469 307.0625 146.8125 310.605469 C 145.585938 311.074219 144.394531 311.644531 143.230469 312.148438 C 143.871094 315.726562 144.480469 318.898438 144.996094 322.085938 C 145.613281 325.90625 144.023438 328.628906 140.867188 329.300781 C 137.507812 330.023438 134.984375 328.164062 134.035156 324.144531 C 133.441406 321.625 132.996094 319.070312 132.382812 316.007812 C 124.050781 319.308594 115.820312 322.152344 107.988281 325.835938 C 103.515625 327.941406 101.148438 332.230469 101.167969 338.109375 C 101.59375 347.90625 107.230469 353.40625 117.113281 353.429688 C 137.539062 353.476562 157.964844 353.433594 178.386719 353.414062 C 179.34375 353.414062 180.300781 353.261719 181.550781 353.15625 C 180.75 349.511719 180.007812 346.132812 179.320312 342.117188 C 179.082031 340.777344 178.816406 339.441406 178.621094 338.09375 C 178.046875 334.21875 179.855469 331.3125 183.144531 330.777344 C 186.328125 330.257812 188.859375 332.222656 189.707031 335.898438 C 190.230469 338.179688 190.71875 340.46875 191.175781 343.386719 C 191.761719 346.65625 192.351562 349.925781 192.929688 353.167969 C 208.070312 353.167969 222.847656 353.167969 237.96875 353.167969 C 237.207031 349.484375 236.503906 346.089844 235.902344 342.089844 C 236.203125 337.914062 237.910156 335.578125 241.035156 335.503906 C 244.632812 335.421875 246.4375 337.585938 247.074219 340.9375 C 247.191406 341.546875 247.417969 342.136719 247.546875 343.347656 C 248.039062 346.046875 248.433594 348.773438 249.089844 351.429688 C 249.273438 352.171875 250.207031 353.265625 250.820312 353.28125 C 256.664062 353.421875 262.507812 353.363281 268.765625 353.363281 C 268 349.507812 267.328125 346.109375 266.613281 342.058594 C 266.257812 340.097656 265.800781 338.144531 265.5625 336.167969 C 265.097656 332.328125 266.886719 329.640625 270.078125 329.171875 C 273.402344 328.683594 275.851562 330.550781 276.675781 334.300781 C 277.289062 337.101562 277.808594 339.921875 278.320312 343.339844 C 278.566406 344.6875 278.816406 346.035156 279.054688 347.382812 C 280.144531 353.636719 280.140625 353.636719 286.457031 353.347656 C 286.957031 353.328125 287.457031 353.308594 287.953125 353.257812 C 295.691406 352.449219 301.335938 345.269531 300.464844 336.882812 M 171.375 177.023438 C 177.851562 177.023438 184.328125 177.023438 190.121094 177.023438 C 192.539062 172.339844 194.769531 168.214844 196.765625 163.972656 C 197.132812 163.1875 196.800781 161.8125 196.351562 160.941406 C 193.910156 156.238281 189.617188 154.035156 184.6875 153.066406 C 180.722656 152.292969 178.773438 150.390625 178.242188 146.152344 C 177.84375 142.957031 176.632812 139.445312 174.675781 136.9375 C 167.625 127.886719 156.03125 127.832031 148.121094 136.394531 C 143.964844 140.894531 142.382812 141.324219 137.90625 138.59375 C 131.472656 134.667969 125.003906 134.675781 118.9375 138.898438 C 112.417969 143.4375 110.433594 149.980469 112.199219 157.695312 C 113.214844 162.132812 112.425781 163.90625 108.367188 166.3125 C 104.199219 168.78125 101.414062 172.289062 100.136719 176.980469 C 98.652344 182.449219 100.308594 188.761719 103.859375 191.003906 C 104.488281 188.851562 104.777344 186.527344 105.824219 184.617188 C 107.015625 182.441406 108.488281 179.796875 110.535156 178.828125 C 116.453125 176.03125 122.859375 175.09375 129.480469 175.785156 C 136.90625 176.5625 143.792969 178.839844 150.15625 182.996094 C 152.933594 178.234375 156.960938 176.652344 162.011719 176.988281 C 164.871094 177.179688 167.753906 177.023438 171.375 177.023438 M 308.25 316.867188 C 309.46875 323.046875 309.46875 323.042969 315.59375 324.171875 C 324.542969 325.820312 333.492188 327.496094 342.449219 329.109375 C 347.546875 330.03125 352.664062 330.851562 358.027344 331.761719 C 358.363281 329.195312 358.628906 327.144531 358.921875 324.910156 C 357.519531 324.554688 356.335938 324.226562 355.136719 323.953125 C 342.988281 321.167969 330.835938 318.390625 318.683594 315.609375 C 315.523438 314.882812 313.027344 313.40625 312.847656 309.777344 C 312.695312 306.789062 315.003906 304.601562 318.980469 303.875 C 329.035156 302.03125 339.101562 300.257812 349.15625 298.410156 C 357.214844 296.929688 365.261719 295.382812 373.433594 293.84375 C 372.921875 291.421875 372.492188 289.402344 372.039062 287.246094 C 371.074219 287.394531 370.472656 287.46875 369.875 287.578125 C 352.582031 290.738281 335.28125 293.859375 318.007812 297.109375 C 314.605469 297.75 311.710938 297.578125 310.0625 294.125 C 308.675781 291.21875 309.863281 288.6875 313.6875 286.121094 C 323.839844 279.304688 334.023438 272.527344 344.191406 265.726562 C 345.292969 264.992188 346.375 264.226562 347.644531 263.351562 C 346.335938 261.109375 345.226562 259.210938 344.0625 257.214844 C 330.480469 265.226562 317.125 273.039062 303.890625 281.046875 C 302.925781 281.632812 302.199219 283.746094 302.410156 284.96875 C 304.195312 295.414062 306.222656 305.816406 308.25 316.867188 M 162.113281 197.363281 C 163.585938 201.054688 165.097656 204.730469 166.523438 208.4375 C 167.324219 210.527344 168.84375 210.796875 170.90625 211.019531 C 176.496094 211.625 181.15625 210.480469 184.421875 205.546875 C 184.824219 204.941406 185.433594 204.207031 186.066406 204.070312 C 188.113281 203.628906 190.644531 202.601562 192.179688 203.386719 C 193.714844 204.167969 194.339844 206.832031 195.21875 208.734375 C 195.480469 209.300781 195.261719 210.089844 195.261719 212.027344 C 198.042969 210.699219 200.179688 209.863281 202.128906 208.703125 C 204.695312 207.175781 207.285156 206.925781 209.308594 209.085938 C 211.148438 211.046875 212.90625 211.265625 215.148438 210.5625 C 214.964844 205.246094 216.78125 202.234375 220.367188 202.671875 C 222.367188 202.914062 224.765625 204.191406 225.980469 205.773438 C 229.371094 210.1875 233.53125 211.820312 238.894531 210.949219 C 239.746094 210.8125 240.664062 211.046875 241.503906 210.878906 C 242.167969 210.75 243.039062 210.429688 243.347656 209.914062 C 247.277344 203.339844 249.84375 196.359375 249.738281 188.476562 C 219.933594 188.476562 190.515625 188.476562 160.730469 188.476562 C 161.179688 191.390625 161.59375 194.070312 162.113281 197.363281 M 248.640625 155.269531 C 246.402344 157.226562 244.167969 159.183594 241.9375 161.132812 C 243.796875 163.695312 245.101562 165.488281 245.9375 166.636719 C 251.007812 164.992188 255.6875 163.484375 260.363281 161.949219 C 260.8125 161.804688 261.367188 161.625 261.617188 161.277344 C 264.140625 157.738281 267.175781 154.421875 268.976562 150.535156 C 272.214844 143.554688 272.5625 136.03125 270.554688 128.582031 C 270.199219 127.269531 268.613281 125.636719 267.320312 125.328125 C 253.773438 122.109375 242.171875 125.785156 232.707031 135.921875 C 228.410156 140.523438 225.613281 145.953125 224.660156 152.378906 C 226.554688 152.886719 228.132812 153.007812 229.394531 153.703125 C 232.304688 155.320312 234.148438 154.125 236.125 151.992188 C 239.523438 148.332031 243.09375 144.824219 246.695312 141.363281 C 249.382812 138.777344 252.792969 138.699219 255.035156 140.957031 C 257.28125 143.222656 257.140625 146.519531 254.558594 149.304688 C 252.777344 151.226562 250.867188 153.035156 248.640625 155.269531 M 67.507812 258.089844 C 59.988281 257.898438 52.394531 257.179688 45.371094 261.398438 C 48.527344 262.640625 51.742188 263.351562 54.929688 264.175781 C 60.390625 265.585938 61.675781 270.246094 57.761719 274.265625 C 56.722656 275.335938 55.726562 276.445312 54.308594 277.96875 C 59.757812 277.839844 65.550781 276.574219 70.738281 272.375 C 77.195312 267.152344 82.386719 267.160156 88.777344 272.46875 C 93.046875 276.015625 98.671875 277.683594 105.1875 278.175781 C 103.988281 276.855469 103.410156 276.046875 102.671875 275.4375 C 100.261719 273.4375 98.847656 270.976562 99.867188 267.875 C 100.800781 265.027344 103.367188 264.355469 106.097656 263.863281 C 108.753906 263.382812 111.324219 262.417969 113.929688 261.664062 C 113.855469 261.246094 113.777344 260.828125 113.703125 260.410156 C 103.976562 257.050781 94.199219 256.871094 84.242188 260.042969 C 82 260.757812 79.421875 261.082031 77.113281 260.753906 C 74.070312 260.328125 71.144531 259.082031 67.507812 258.089844 M 114.746094 200.4375 C 115.328125 203.234375 115.8125 206.058594 116.550781 208.8125 C 116.761719 209.605469 117.671875 210.761719 118.308594 210.792969 C 122.054688 210.980469 125.816406 210.882812 129.925781 210.882812 C 129.457031 209.945312 129.34375 209.59375 129.132812 209.316406 C 126.972656 206.484375 127.050781 203.753906 129.660156 201.308594 C 131.898438 199.222656 135.175781 199.660156 138.003906 202.335938 C 139.90625 204.136719 141.949219 205.855469 143.519531 207.921875 C 146.578125 211.964844 150.472656 211.0625 155.230469 210.503906 C 152.894531 205.457031 151.722656 200.046875 148.492188 196.515625 C 141.15625 188.484375 131.453125 185.703125 120.582031 187.421875 C 117.667969 187.886719 115.335938 188.679688 115.335938 192.332031 C 115.339844 194.804688 114.941406 197.277344 114.746094 200.4375 M 202.769531 139.492188 C 207.257812 135.152344 212.675781 137.996094 217.773438 137.324219 C 219.578125 134.804688 221.679688 132.171875 223.394531 129.308594 C 224.050781 128.214844 224.28125 126.460938 223.933594 125.226562 C 222.105469 118.785156 218.859375 113.09375 214.238281 108.171875 C 205.511719 116.800781 196.816406 125.347656 188.195312 133.964844 C 186.800781 135.359375 188.386719 142.054688 190.394531 142.738281 C 197.277344 145.070312 202.5 149.449219 206.402344 155.308594 C 213.042969 153.269531 213.042969 153.269531 213.496094 148.4375 C 211.617188 148.4375 209.761719 148.523438 207.914062 148.421875 C 202.8125 148.132812 200.8125 145.011719 202.769531 139.492188 M 285.335938 155.84375 C 280.175781 156.703125 276.222656 159.324219 273.359375 163.746094 C 282.582031 169.335938 284.882812 172.082031 288.125 181.414062 C 289.039062 184.035156 290.238281 184.230469 292.542969 182.667969 C 296.425781 180.03125 300.480469 177.617188 304.632812 175.433594 C 306.328125 174.539062 306.941406 173.742188 306.800781 171.820312 C 306.082031 161.847656 296.136719 154.113281 285.335938 155.84375 M 313.433594 210.734375 C 317.417969 210.796875 321.410156 211.003906 325.382812 210.828125 C 326.429688 210.78125 327.875 209.800781 328.367188 208.851562 C 331.980469 201.914062 332.417969 194.5625 330.574219 187.058594 C 330.351562 186.164062 329.382812 184.980469 328.550781 184.773438 C 318.453125 182.277344 309.179688 183.941406 300.945312 190.28125 C 303.011719 193.78125 304.878906 196.949219 306.871094 200.328125 C 307.5625 199.71875 308.183594 199.15625 308.824219 198.617188 C 311.878906 196.046875 314.847656 195.953125 317.15625 198.34375 C 319.433594 200.699219 319.242188 203.757812 316.613281 206.667969 C 315.527344 207.871094 314.394531 209.027344 313.433594 210.734375 M 237.679688 175.601562 C 233.726562 166.679688 225.664062 162.011719 217.113281 163.699219 C 209.832031 165.132812 203.59375 171.132812 203.421875 177.03125 C 214.402344 177.03125 225.375 177.039062 236.351562 176.996094 C 236.824219 176.996094 237.292969 176.492188 237.679688 175.601562 M 62.652344 78.210938 C 69.203125 78.210938 75.757812 78.210938 82.386719 78.210938 C 82.386719 74.125 82.386719 70.476562 82.386719 66.796875 C 73.609375 66.796875 65.085938 66.796875 56.492188 66.796875 C 56.492188 70.671875 56.492188 74.335938 56.492188 78.210938 C 58.453125 78.210938 60.179688 78.210938 62.652344 78.210938 M 88.625 203.066406 C 87.441406 205.464844 86.261719 207.863281 84.738281 210.945312 C 87.210938 210.945312 88.800781 210.945312 90.386719 210.945312 C 95.210938 210.945312 100.03125 210.945312 104.894531 210.945312 C 104.484375 207.578125 104.484375 207.578125 93.453125 198.371094 C 91.988281 199.773438 90.484375 201.210938 88.625 203.066406 Z M 88.625 203.066406 "/>
<path style=" stroke:none;fill-rule:nonzero;fill:rgb(100%,100%,100%);fill-opacity:1;" d="M 0.75 317.601562 C 2.242188 321.738281 3.410156 326.367188 5.289062 330.683594 C 11.3125 344.527344 21.828125 353.933594 35.457031 359.96875 C 45.351562 364.347656 55.847656 365.304688 66.574219 365.292969 C 139.046875 365.214844 211.519531 365.238281 283.996094 365.265625 C 297.875 365.269531 309.007812 357.378906 311.570312 344.277344 C 312.109375 341.507812 312.007812 338.617188 312.226562 335.386719 C 326.660156 338.082031 341.105469 340.855469 355.589844 343.445312 C 360.757812 344.371094 368.128906 341.953125 368.964844 335.175781 C 369.566406 330.3125 369.933594 325.351562 369.679688 320.472656 C 369.503906 317.132812 366.75 315.113281 363.550781 314.246094 C 359.492188 313.140625 355.378906 312.246094 351.296875 311.222656 C 350.753906 311.085938 350.269531 310.722656 349.292969 310.230469 C 358.515625 308.503906 367.21875 306.953125 375.886719 305.21875 C 379.691406 304.457031 382.980469 302.773438 384.488281 298.570312 C 384.75 327.234375 384.75 355.964844 384.75 384.703125 C 256.75 384.707031 128.75 384.707031 0.75 384.707031 C 0.75 362.425781 0.75 340.1875 0.75 317.601562 Z M 0.75 317.601562 "/>
<path style=" stroke:none;fill-rule:nonzero;fill:rgb(99.607843%,99.607843%,99.607843%);fill-opacity:1;" d="M 284.679688 216.808594 C 285.246094 221.015625 287.964844 222.238281 291.828125 222.222656 C 304.449219 222.160156 317.070312 222.199219 329.691406 222.199219 C 330.917969 222.199219 332.148438 222.199219 334.480469 222.199219 C 333.359375 230.777344 332.179688 238.96875 331.261719 247.191406 C 330.8125 251.1875 328.734375 253.425781 325.28125 255.328125 C 316.671875 260.074219 308.292969 265.246094 300.550781 269.816406 C 297.144531 265.515625 294.488281 260.851562 290.644531 257.59375 C 282.96875 251.101562 273.902344 250.371094 264.59375 253.871094 C 244.429688 261.449219 224.316406 269.15625 204.167969 276.773438 C 200.726562 278.074219 198.683594 280.160156 199.125 284.484375 C 192.320312 287.25 185.808594 289.636719 179.296875 292.023438 C 176.976562 288.5 173.90625 288.121094 170.195312 289.644531 C 165.859375 291.429688 161.441406 293.023438 157.648438 294.472656 C 154.207031 288.433594 151.25 282.417969 147.53125 276.917969 C 143.007812 270.226562 136.703125 265.292969 129.695312 261.273438 C 128.566406 260.628906 127.105469 259.832031 126.714844 258.769531 C 124.679688 253.25 120.261719 250.300781 115.113281 249.167969 C 108.617188 247.738281 101.867188 247.457031 94.867188 246.320312 C 93.78125 238.09375 93.046875 230.234375 92.316406 222.371094 C 93.808594 222.3125 95.300781 222.207031 96.792969 222.207031 C 149.691406 222.199219 202.589844 222.191406 255.488281 222.210938 C 259.171875 222.210938 262.621094 222 263.816406 217.054688 C 271.035156 216.765625 277.859375 216.785156 284.679688 216.808594 Z M 284.679688 216.808594 "/>
<path style=" stroke:none;fill-rule:nonzero;fill:rgb(96.470588%,57.254905%,11.764706%);fill-opacity:1;" d="M 179.28125 292.324219 C 185.808594 289.636719 192.320312 287.25 199.113281 284.789062 C 201.644531 288.289062 204.726562 288.804688 208.445312 287.242188 C 210.492188 286.382812 212.601562 285.675781 214.972656 284.796875 C 215.84375 289.339844 216.601562 293.601562 217.492188 297.835938 C 218.28125 301.601562 220.832031 303.554688 224.023438 303.015625 C 227.304688 302.464844 229.199219 299.441406 228.523438 295.628906 C 227.652344 290.742188 226.683594 285.871094 225.699219 280.679688 C 236.03125 276.753906 246.242188 272.875 256.453125 268.996094 C 260.410156 267.492188 264.34375 265.933594 268.324219 264.488281 C 278.652344 260.734375 287.285156 265.523438 289.328125 276.246094 C 291.941406 289.949219 294.425781 303.675781 296.949219 317.394531 C 298.144531 323.886719 299.296875 330.386719 300.183594 337.222656 C 293.550781 342.734375 286.050781 343.109375 278.367188 342.734375 C 277.808594 339.921875 277.289062 337.101562 276.675781 334.300781 C 275.851562 330.550781 273.402344 328.683594 270.078125 329.171875 C 266.886719 329.640625 265.097656 332.328125 265.5625 336.167969 C 265.800781 338.144531 266.257812 340.097656 266.253906 342.394531 C 259.792969 342.730469 253.695312 342.734375 247.59375 342.738281 C 247.417969 342.136719 247.191406 341.546875 247.074219 340.9375 C 246.4375 337.585938 244.632812 335.421875 241.035156 335.503906 C 237.910156 335.578125 236.203125 337.914062 235.53125 342.40625 C 220.515625 342.738281 205.867188 342.746094 191.222656 342.753906 C 190.71875 340.46875 190.230469 338.179688 189.707031 335.898438 C 188.859375 332.222656 186.328125 330.257812 183.144531 330.777344 C 179.855469 331.3125 178.046875 334.21875 178.621094 338.09375 C 178.816406 339.441406 179.082031 340.777344 178.9375 342.433594 C 157.613281 342.75 136.667969 342.902344 115.726562 342.609375 C 112.050781 342.558594 108.371094 340.742188 104.753906 339.558594 C 103.519531 339.152344 102.464844 338.195312 101.324219 337.492188 C 101.148438 332.230469 103.515625 327.941406 107.988281 325.835938 C 115.820312 322.152344 124.050781 319.308594 132.382812 316.007812 C 132.996094 319.070312 133.441406 321.625 134.035156 324.144531 C 134.984375 328.164062 137.507812 330.023438 140.867188 329.300781 C 144.023438 328.628906 145.613281 325.90625 144.996094 322.085938 C 144.480469 318.898438 143.871094 315.726562 143.230469 312.148438 C 144.394531 311.644531 145.585938 311.074219 146.8125 310.605469 C 156.105469 307.0625 165.402344 303.515625 174.714844 300.027344 C 178.203125 298.71875 180.085938 296.53125 179.28125 292.324219 Z M 179.28125 292.324219 "/>
<path style=" stroke:none;fill-rule:nonzero;fill:rgb(93.333334%,31.37255%,31.37255%);fill-opacity:1;" d="M 41.886719 279.015625 C 42.496094 285.800781 46.644531 289.5 53.972656 289.421875 C 61.925781 289.339844 69.207031 286.632812 75.859375 282.550781 C 78.871094 280.699219 80.792969 281.15625 83.804688 282.585938 C 89.492188 285.289062 95.570312 287.242188 101.625 289.035156 C 103.890625 289.703125 106.625 289.425781 109.011719 288.9375 C 116.035156 287.507812 118.875 282.34375 116.675781 275.539062 C 116.453125 274.851562 116.203125 274.167969 115.980469 273.519531 C 122.222656 269.488281 122.234375 269.476562 128.082031 273.5625 C 136.972656 279.785156 143.175781 287.90625 146.058594 298.847656 C 136.296875 302.5625 126.757812 306.167969 117.238281 309.820312 C 113.046875 311.425781 108.785156 312.894531 104.738281 314.8125 C 91.324219 321.171875 86.015625 336.671875 92.519531 350.007812 C 92.992188 350.972656 93.421875 351.960938 94.019531 353.261719 C 81.617188 353.261719 69.660156 353.261719 57.3125 352.949219 C 56.25 352.113281 55.625 351.53125 54.914062 351.078125 C 44.996094 344.78125 37.40625 336.527344 33.0625 325.453125 C 28.085938 312.753906 29.261719 300.308594 34.917969 288.253906 C 36.519531 284.835938 39.523438 282.078125 41.886719 279.015625 Z M 41.886719 279.015625 "/>
<path style=" stroke:none;fill-rule:nonzero;fill:rgb(1.568628%,40.000001%,60.000002%);fill-opacity:1;" d="M 92.515625 121.996094 C 93.324219 126.101562 95.8125 127.863281 99.980469 127.601562 C 102.699219 127.429688 105.4375 127.566406 109.390625 127.566406 C 108.476562 130.277344 108.25 132.816406 106.933594 134.5 C 102.164062 140.589844 99.933594 147.296875 100.328125 155.015625 C 100.398438 156.398438 99.804688 158.324219 98.808594 159.164062 C 90.5625 166.136719 87.597656 175.011719 88.503906 185.546875 C 88.609375 186.777344 87.71875 188.320312 86.867188 189.375 C 83.363281 193.722656 78.535156 193.929688 73.394531 193.765625 C 65.167969 193.496094 56.921875 193.679688 48.339844 193.265625 C 48.007812 171.148438 48.019531 149.4375 48.03125 127.726562 C 53.878906 127.675781 59.722656 127.558594 65.566406 127.589844 C 69.15625 127.609375 71.582031 126.3125 72.671875 122.304688 C 79.578125 122.042969 86.046875 122.019531 92.515625 121.996094 Z M 92.515625 121.996094 "/>
<path style=" stroke:none;fill-rule:nonzero;fill:rgb(20.784314%,54.11765%,5.490196%);fill-opacity:1;" d="M 171 177.023438 C 167.753906 177.023438 164.871094 177.179688 162.011719 176.988281 C 156.960938 176.652344 152.933594 178.234375 150.15625 182.996094 C 143.792969 178.839844 136.90625 176.5625 129.480469 175.785156 C 122.859375 175.09375 116.453125 176.03125 110.535156 178.828125 C 108.488281 179.796875 107.015625 182.441406 105.824219 184.617188 C 104.777344 186.527344 104.488281 188.851562 103.859375 191.003906 C 100.308594 188.761719 98.652344 182.449219 100.136719 176.980469 C 101.414062 172.289062 104.199219 168.78125 108.367188 166.3125 C 112.425781 163.90625 113.214844 162.132812 112.199219 157.695312 C 110.433594 149.980469 112.417969 143.4375 118.9375 138.898438 C 125.003906 134.675781 131.472656 134.667969 137.90625 138.59375 C 142.382812 141.324219 143.964844 140.894531 148.121094 136.394531 C 156.03125 127.832031 167.625 127.886719 174.675781 136.9375 C 176.632812 139.445312 177.84375 142.957031 178.242188 146.152344 C 178.773438 150.390625 180.722656 152.292969 184.6875 153.066406 C 189.617188 154.035156 193.910156 156.238281 196.351562 160.941406 C 196.800781 161.8125 197.132812 163.1875 196.765625 163.972656 C 194.769531 168.214844 192.539062 172.339844 190.121094 177.023438 C 184.328125 177.023438 177.851562 177.023438 171 177.023438 M 119.199219 163.089844 C 120.15625 165.742188 122.140625 167.3125 124.855469 167.046875 C 127.6875 166.773438 129.515625 164.96875 129.9375 161.925781 C 130.433594 158.332031 132.363281 155.65625 136.132812 155.664062 C 138.023438 155.671875 139.96875 157.113281 141.785156 158.101562 C 144.507812 159.578125 147 159.695312 149.1875 157.25 C 151.273438 154.914062 151.085938 152 148.789062 149.527344 C 144.050781 144.425781 135.847656 142.867188 129.1875 145.804688 C 122.628906 148.695312 118.632812 155.3125 119.199219 163.089844 M 169.34375 159.296875 C 160.804688 156.359375 152.417969 161.726562 149.863281 167.679688 C 148.46875 170.921875 149.167969 174.105469 151.730469 175.597656 C 154.480469 177.195312 157.566406 176.367188 159.546875 173.507812 C 162.949219 168.578125 165.527344 168.5 169.210938 173.257812 C 171.234375 175.875 173.714844 176.75 176.730469 175.175781 C 179.292969 173.835938 180.09375 170.726562 178.742188 167.660156 C 176.984375 163.667969 173.867188 161.117188 169.34375 159.296875 Z M 169.34375 159.296875 "/>
<path style=" stroke:none;fill-rule:nonzero;fill:rgb(63.137257%,87.058824%,97.254902%);fill-opacity:1;" d="M 92.628906 121.738281 C 86.046875 122.019531 79.578125 122.042969 72.796875 122.027344 C 71.710938 117.875 69.101562 116.257812 65.070312 116.3125 C 59.613281 116.390625 54.15625 116.324219 48.347656 115.90625 C 47.800781 106.386719 47.058594 97.148438 54.0625 89.738281 C 67.519531 89.699219 80.988281 89.285156 94.429688 89.761719 C 103.183594 90.074219 108.589844 96.609375 108.738281 105.398438 C 108.796875 108.875 108.746094 112.355469 108.746094 116.335938 C 105.546875 116.335938 102.484375 116.300781 99.425781 116.34375 C 95.945312 116.394531 93.371094 117.6875 92.628906 121.738281 Z M 92.628906 121.738281 "/>
<path style=" stroke:none;fill-rule:nonzero;fill:rgb(52.549022%,76.862746%,27.058825%);fill-opacity:1;" d="M 308.214844 316.550781 C 306.222656 305.816406 304.195312 295.414062 302.410156 284.96875 C 302.199219 283.746094 302.925781 281.632812 303.890625 281.046875 C 317.125 273.039062 330.480469 265.226562 344.0625 257.214844 C 345.226562 259.210938 346.335938 261.109375 347.644531 263.351562 C 346.375 264.226562 345.292969 264.992188 344.191406 265.726562 C 334.023438 272.527344 323.839844 279.304688 313.6875 286.121094 C 309.863281 288.6875 308.675781 291.21875 310.0625 294.125 C 311.710938 297.578125 314.605469 297.75 318.007812 297.109375 C 335.28125 293.859375 352.582031 290.738281 369.875 287.578125 C 370.472656 287.46875 371.074219 287.394531 372.039062 287.246094 C 372.492188 289.402344 372.921875 291.421875 373.433594 293.84375 C 365.261719 295.382812 357.214844 296.929688 349.15625 298.410156 C 339.101562 300.257812 329.035156 302.03125 318.980469 303.875 C 315.003906 304.601562 312.695312 306.789062 312.847656 309.777344 C 313.027344 313.40625 315.523438 314.882812 318.683594 315.609375 C 330.835938 318.390625 342.988281 321.167969 355.136719 323.953125 C 356.335938 324.226562 357.519531 324.554688 358.921875 324.910156 C 358.628906 327.144531 358.363281 329.195312 358.027344 331.761719 C 352.664062 330.851562 347.546875 330.03125 342.449219 329.109375 C 333.492188 327.496094 324.542969 325.820312 315.59375 324.171875 C 309.46875 323.042969 309.46875 323.046875 308.214844 316.550781 Z M 308.214844 316.550781 "/>
<path style=" stroke:none;fill-rule:nonzero;fill:rgb(83.529413%,27.843139%,27.843139%);fill-opacity:1;" d="M 41.953125 278.734375 C 39.523438 282.078125 36.519531 284.835938 34.917969 288.253906 C 29.261719 300.308594 28.085938 312.753906 33.0625 325.453125 C 37.40625 336.527344 44.996094 344.78125 54.914062 351.078125 C 55.625 351.53125 56.25 352.113281 56.964844 352.886719 C 37.851562 353.3125 18.335938 338.121094 13.410156 319.1875 C 8.5625 300.558594 17.582031 280.890625 35.222656 271.078125 C 38.90625 269.03125 40.480469 272.8125 43.527344 272.925781 C 42.976562 274.945312 42.5 276.699219 41.953125 278.734375 Z M 41.953125 278.734375 "/>
<path style=" stroke:none;fill-rule:nonzero;fill:rgb(92.156863%,30.980393%,30.980393%);fill-opacity:1;" d="M 162.058594 197.058594 C 161.59375 194.070312 161.179688 191.390625 160.730469 188.476562 C 190.515625 188.476562 219.933594 188.476562 249.738281 188.476562 C 249.84375 196.359375 247.277344 203.339844 243.347656 209.914062 C 243.039062 210.429688 242.167969 210.75 241.503906 210.878906 C 240.664062 211.046875 239.746094 210.8125 238.894531 210.949219 C 233.53125 211.820312 229.371094 210.1875 225.980469 205.773438 C 224.765625 204.191406 222.367188 202.914062 220.367188 202.671875 C 216.78125 202.234375 214.964844 205.246094 215.148438 210.5625 C 212.90625 211.265625 211.148438 211.046875 209.308594 209.085938 C 207.285156 206.925781 204.695312 207.175781 202.128906 208.703125 C 200.179688 209.863281 198.042969 210.699219 195.261719 212.027344 C 195.261719 210.089844 195.480469 209.300781 195.21875 208.734375 C 194.339844 206.832031 193.714844 204.167969 192.179688 203.386719 C 190.644531 202.601562 188.113281 203.628906 186.066406 204.070312 C 185.433594 204.207031 184.824219 204.941406 184.421875 205.546875 C 181.15625 210.480469 176.496094 211.625 170.90625 211.019531 C 168.84375 210.796875 167.324219 210.527344 166.523438 208.4375 C 165.097656 204.730469 163.585938 201.054688 162.058594 197.058594 M 169.34375 200.890625 C 173.328125 201.296875 177.332031 202.109375 181.300781 201.976562 C 184.375 201.875 186.160156 199.421875 185.902344 196.253906 C 185.648438 193.128906 183.683594 191.332031 180.488281 191.171875 C 178.257812 191.0625 176.011719 191.058594 173.777344 191.128906 C 167.890625 191.3125 165.789062 195.382812 169.34375 200.890625 M 224.988281 195.632812 C 224.5625 199.414062 226.382812 201.703125 229.992188 202.152344 C 232.789062 202.5 235.699219 202.410156 238.511719 202.101562 C 241.648438 201.757812 243.332031 199.621094 243.421875 196.507812 C 243.503906 193.539062 241.203125 191.378906 237.859375 191.171875 C 235.632812 191.035156 233.390625 191.148438 231.15625 191.113281 C 228.246094 191.066406 226.125 192.210938 224.988281 195.632812 Z M 224.988281 195.632812 "/>
<path style=" stroke:none;fill-rule:nonzero;fill:rgb(1.568628%,35.686275%,52.941179%);fill-opacity:1;" d="M 47.683594 127.664062 C 48.019531 149.4375 48.007812 171.148438 47.988281 193.21875 C 42.167969 193.578125 36.351562 193.578125 30.324219 193.578125 C 30.324219 171.519531 30.324219 149.871094 30.324219 127.601562 C 35.992188 127.601562 41.664062 127.601562 47.683594 127.664062 Z M 47.683594 127.664062 "/>
<path style=" stroke:none;fill-rule:nonzero;fill:rgb(52.941179%,77.64706%,27.450982%);fill-opacity:1;" d="M 248.828125 155.082031 C 250.867188 153.035156 252.777344 151.226562 254.558594 149.304688 C 257.140625 146.519531 257.28125 143.222656 255.035156 140.957031 C 252.792969 138.699219 249.382812 138.777344 246.695312 141.363281 C 243.09375 144.824219 239.523438 148.332031 236.125 151.992188 C 234.148438 154.125 232.304688 155.320312 229.394531 153.703125 C 228.132812 153.007812 226.554688 152.886719 224.660156 152.378906 C 225.613281 145.953125 228.410156 140.523438 232.707031 135.921875 C 242.171875 125.785156 253.773438 122.109375 267.320312 125.328125 C 268.613281 125.636719 270.199219 127.269531 270.554688 128.582031 C 272.5625 136.03125 272.214844 143.554688 268.976562 150.535156 C 267.175781 154.421875 264.140625 157.738281 261.617188 161.277344 C 261.367188 161.625 260.8125 161.804688 260.363281 161.949219 C 255.6875 163.484375 251.007812 164.992188 245.9375 166.636719 C 245.101562 165.488281 243.796875 163.695312 241.9375 161.132812 C 244.167969 159.183594 246.402344 157.226562 248.828125 155.082031 Z M 248.828125 155.082031 "/>
<path style=" stroke:none;fill-rule:nonzero;fill:rgb(21.176471%,54.509807%,5.490196%);fill-opacity:1;" d="M 284.765625 216.527344 C 277.859375 216.785156 271.035156 216.765625 263.890625 216.777344 C 262.695312 212.699219 262.695312 212.699219 256.6875 210.316406 C 257.976562 205.265625 259.503906 200.277344 260.464844 195.179688 C 261.078125 191.910156 261.140625 188.46875 260.941406 185.132812 C 260.675781 180.738281 257.433594 178.570312 253.085938 177.019531 C 257.699219 173.273438 262.332031 172.246094 267.378906 173.851562 C 272.9375 175.621094 276.703125 179.503906 277.382812 185.3125 C 277.972656 190.339844 279.753906 193.023438 285.082031 194.09375 C 292.964844 195.679688 297.089844 202.410156 295.976562 210.460938 C 291.972656 211.667969 285.875 209.242188 284.765625 216.527344 Z M 284.765625 216.527344 "/>
<path style=" stroke:none;fill-rule:nonzero;fill:rgb(54.901963%,75.686276%,85.09804%);fill-opacity:1;" d="M 48.066406 247.753906 C 44.554688 249.304688 40.667969 250.339844 37.648438 252.558594 C 34.921875 254.566406 33.140625 257.871094 30.3125 261.390625 C 30.3125 242.023438 30.3125 223.839844 30.3125 205.101562 C 35.988281 205.101562 41.679688 205.101562 47.6875 205.523438 C 48.027344 219.882812 48.046875 233.816406 48.066406 247.753906 Z M 48.066406 247.753906 "/>
<path style=" stroke:none;fill-rule:nonzero;fill:rgb(87.058824%,52.156866%,10.588235%);fill-opacity:1;" d="M 101.246094 337.800781 C 102.464844 338.195312 103.519531 339.152344 104.753906 339.558594 C 108.371094 340.742188 112.050781 342.558594 115.726562 342.609375 C 136.667969 342.902344 157.613281 342.75 178.910156 342.75 C 180.007812 346.132812 180.75 349.511719 181.550781 353.15625 C 180.300781 353.261719 179.34375 353.414062 178.386719 353.414062 C 157.964844 353.433594 137.539062 353.476562 117.113281 353.429688 C 107.230469 353.40625 101.59375 347.90625 101.246094 337.800781 Z M 101.246094 337.800781 "/>
<path style=" stroke:none;fill-rule:nonzero;fill:rgb(63.137257%,86.666667%,96.862745%);fill-opacity:1;" d="M 48.390625 247.742188 C 48.046875 233.816406 48.027344 219.882812 48.027344 205.632812 C 56.53125 205.25 65.023438 205.179688 73.890625 205.453125 C 74.394531 206.121094 74.523438 206.441406 74.648438 206.761719 C 74.605469 209.578125 73.574219 211.035156 70.40625 211.566406 C 66.152344 212.285156 63.414062 216.40625 63.660156 221.050781 C 64.113281 229.5 64.832031 237.933594 65.425781 246.207031 C 60.078125 246.695312 54.394531 247.210938 48.390625 247.742188 Z M 48.390625 247.742188 "/>
<path style=" stroke:none;fill-rule:nonzero;fill:rgb(1.568628%,39.607844%,59.607846%);fill-opacity:1;" d="M 58.496094 32.222656 C 68.976562 32.222656 79.457031 32.222656 90.277344 32.222656 C 90.277344 39.871094 90.277344 47.386719 90.277344 55.320312 C 79.882812 55.320312 69.554688 55.320312 58.871094 54.925781 C 58.511719 47.09375 58.503906 39.65625 58.496094 32.222656 Z M 58.496094 32.222656 "/>
<path style=" stroke:none;fill-rule:nonzero;fill:rgb(20.784314%,53.725493%,5.490196%);fill-opacity:1;" d="M 67.839844 258.136719 C 71.144531 259.082031 74.070312 260.328125 77.113281 260.753906 C 79.421875 261.082031 82 260.757812 84.242188 260.042969 C 94.199219 256.871094 103.976562 257.050781 113.703125 260.410156 C 113.777344 260.828125 113.855469 261.246094 113.929688 261.664062 C 111.324219 262.417969 108.753906 263.382812 106.097656 263.863281 C 103.367188 264.355469 100.800781 265.027344 99.867188 267.875 C 98.847656 270.976562 100.261719 273.4375 102.671875 275.4375 C 103.410156 276.046875 103.988281 276.855469 105.1875 278.175781 C 98.671875 277.683594 93.046875 276.015625 88.777344 272.46875 C 82.386719 267.160156 77.195312 267.152344 70.738281 272.375 C 65.550781 276.574219 59.757812 277.839844 54.308594 277.96875 C 55.726562 276.445312 56.722656 275.335938 57.761719 274.265625 C 61.675781 270.246094 60.390625 265.585938 54.929688 264.175781 C 51.742188 263.351562 48.527344 262.640625 45.371094 261.398438 C 52.394531 257.179688 59.988281 257.898438 67.839844 258.136719 Z M 67.839844 258.136719 "/>
<path style=" stroke:none;fill-rule:nonzero;fill:rgb(52.941179%,77.64706%,27.450982%);fill-opacity:1;" d="M 114.734375 200.09375 C 114.941406 197.277344 115.339844 194.804688 115.335938 192.332031 C 115.335938 188.679688 117.667969 187.886719 120.582031 187.421875 C 131.453125 185.703125 141.15625 188.484375 148.492188 196.515625 C 151.722656 200.046875 152.894531 205.457031 155.230469 210.503906 C 150.472656 211.0625 146.578125 211.964844 143.519531 207.921875 C 141.949219 205.855469 139.90625 204.136719 138.003906 202.335938 C 135.175781 199.660156 131.898438 199.222656 129.660156 201.308594 C 127.050781 203.753906 126.972656 206.484375 129.132812 209.316406 C 129.34375 209.59375 129.457031 209.945312 129.925781 210.882812 C 125.816406 210.882812 122.054688 210.980469 118.308594 210.792969 C 117.671875 210.761719 116.761719 209.605469 116.550781 208.8125 C 115.8125 206.058594 115.328125 203.234375 114.734375 200.09375 Z M 114.734375 200.09375 "/>
<path style=" stroke:none;fill-rule:nonzero;fill:rgb(91.37255%,30.588236%,30.588236%);fill-opacity:1;" d="M 202.609375 139.746094 C 200.8125 145.011719 202.8125 148.132812 207.914062 148.421875 C 209.761719 148.523438 211.617188 148.4375 213.496094 148.4375 C 213.042969 153.269531 213.042969 153.269531 206.402344 155.308594 C 202.5 149.449219 197.277344 145.070312 190.394531 142.738281 C 188.386719 142.054688 186.800781 135.359375 188.195312 133.964844 C 196.816406 125.347656 205.511719 116.800781 214.238281 108.171875 C 218.859375 113.09375 222.105469 118.785156 223.933594 125.226562 C 224.28125 126.460938 224.050781 128.214844 223.394531 129.308594 C 221.679688 132.171875 219.578125 134.804688 217.773438 137.324219 C 212.675781 137.996094 207.257812 135.152344 202.609375 139.746094 M 201.335938 130.4375 C 204.660156 134.09375 207.277344 134.257812 210.796875 130.945312 C 212.425781 129.414062 214.042969 127.851562 215.476562 126.144531 C 217.523438 123.714844 217.410156 120.359375 215.242188 118.425781 C 212.867188 116.3125 210.230469 116.296875 207.804688 118.257812 C 205.976562 119.730469 203.964844 121.269531 202.835938 123.238281 C 201.726562 125.175781 201.625 127.6875 201.335938 130.4375 Z M 201.335938 130.4375 "/>
<path style=" stroke:none;fill-rule:nonzero;fill:rgb(98.431373%,76.078433%,0.784314%);fill-opacity:1;" d="M 285.648438 155.792969 C 296.136719 154.113281 306.082031 161.847656 306.800781 171.820312 C 306.941406 173.742188 306.328125 174.539062 304.632812 175.433594 C 300.480469 177.617188 296.425781 180.03125 292.542969 182.667969 C 290.238281 184.230469 289.039062 184.035156 288.125 181.414062 C 284.882812 172.082031 282.582031 169.335938 273.359375 163.746094 C 276.222656 159.324219 280.175781 156.703125 285.648438 155.792969 Z M 285.648438 155.792969 "/>
<path style=" stroke:none;fill-rule:nonzero;fill:rgb(52.941179%,77.64706%,27.450982%);fill-opacity:1;" d="M 313.359375 210.46875 C 314.394531 209.027344 315.527344 207.871094 316.613281 206.667969 C 319.242188 203.757812 319.433594 200.699219 317.15625 198.34375 C 314.847656 195.953125 311.878906 196.046875 308.824219 198.617188 C 308.183594 199.15625 307.5625 199.71875 306.871094 200.328125 C 304.878906 196.949219 303.011719 193.78125 300.945312 190.28125 C 309.179688 183.941406 318.453125 182.277344 328.550781 184.773438 C 329.382812 184.980469 330.351562 186.164062 330.574219 187.058594 C 332.417969 194.5625 331.980469 201.914062 328.367188 208.851562 C 327.875 209.800781 326.429688 210.78125 325.382812 210.828125 C 321.410156 211.003906 317.417969 210.796875 313.359375 210.46875 Z M 313.359375 210.46875 "/>
<path style=" stroke:none;fill-rule:nonzero;fill:rgb(87.058824%,51.764709%,10.588235%);fill-opacity:1;" d="M 191.199219 343.070312 C 205.867188 342.746094 220.515625 342.738281 235.480469 342.714844 C 236.503906 346.089844 237.207031 349.484375 237.96875 353.167969 C 222.847656 353.167969 208.070312 353.167969 192.929688 353.167969 C 192.351562 349.925781 191.761719 346.65625 191.199219 343.070312 Z M 191.199219 343.070312 "/>
<path style=" stroke:none;fill-rule:nonzero;fill:rgb(54.901963%,75.686276%,84.705883%);fill-opacity:1;" d="M 53.726562 89.617188 C 47.058594 97.148438 47.800781 106.386719 48.003906 115.84375 C 42.179688 116.191406 36.347656 116.191406 30.246094 116.191406 C 30.246094 111.992188 29.96875 108.003906 30.304688 104.066406 C 31.046875 95.320312 36.945312 89.914062 45.898438 89.484375 C 48.390625 89.363281 50.894531 89.488281 53.726562 89.617188 Z M 53.726562 89.617188 "/>
<path style=" stroke:none;fill-rule:nonzero;fill:rgb(82.745099%,82.745099%,82.745099%);fill-opacity:1;" d="M 91.972656 222.277344 C 93.046875 230.234375 93.78125 238.09375 94.523438 246.28125 C 91.691406 246.992188 88.851562 247.382812 86.144531 247.753906 C 85.277344 245.351562 85 242.410156 83.390625 240.785156 C 81.992188 239.371094 79.089844 239.441406 75.925781 238.613281 C 75.566406 234.007812 75.121094 228.28125 74.648438 222.179688 C 80.695312 222.179688 86.160156 222.179688 91.972656 222.277344 Z M 91.972656 222.277344 "/>
<path style=" stroke:none;fill-rule:nonzero;fill:rgb(95.686275%,56.862748%,11.764706%);fill-opacity:1;" d="M 237.722656 175.914062 C 237.292969 176.492188 236.824219 176.996094 236.351562 176.996094 C 225.375 177.039062 214.402344 177.03125 203.421875 177.03125 C 203.59375 171.132812 209.832031 165.132812 217.113281 163.699219 C 225.664062 162.011719 233.726562 166.679688 237.722656 175.914062 Z M 237.722656 175.914062 "/>
<path style=" stroke:none;fill-rule:nonzero;fill:rgb(28.235295%,75.686276%,88.235295%);fill-opacity:1;" d="M 62.28125 78.210938 C 60.179688 78.210938 58.453125 78.210938 56.492188 78.210938 C 56.492188 74.335938 56.492188 70.671875 56.492188 66.796875 C 65.085938 66.796875 73.609375 66.796875 82.386719 66.796875 C 82.386719 70.476562 82.386719 74.125 82.386719 78.210938 C 75.757812 78.210938 69.203125 78.210938 62.28125 78.210938 Z M 62.28125 78.210938 "/>
<path style=" stroke:none;fill-rule:nonzero;fill:rgb(1.568628%,34.901962%,52.549022%);fill-opacity:1;" d="M 58.148438 32.179688 C 58.503906 39.65625 58.511719 47.09375 58.53125 54.851562 C 55.460938 55.179688 52.378906 55.179688 48.960938 55.179688 C 48.960938 47.636719 48.960938 40.15625 48.960938 32.136719 C 51.925781 32.136719 54.863281 32.136719 58.148438 32.179688 Z M 58.148438 32.179688 "/>
<path style=" stroke:none;fill-rule:nonzero;fill:rgb(85.882354%,51.372552%,10.588235%);fill-opacity:1;" d="M 278.34375 343.035156 C 286.050781 343.109375 293.550781 342.734375 300.140625 337.511719 C 301.335938 345.269531 295.691406 352.449219 287.953125 353.257812 C 287.457031 353.308594 286.957031 353.328125 286.457031 353.347656 C 280.140625 353.636719 280.144531 353.636719 279.054688 347.382812 C 278.816406 346.035156 278.566406 344.6875 278.34375 343.035156 Z M 278.34375 343.035156 "/>
<path style=" stroke:none;fill-rule:nonzero;fill:rgb(86.666667%,51.764709%,10.588235%);fill-opacity:1;" d="M 247.570312 343.042969 C 253.695312 342.734375 259.792969 342.730469 266.273438 342.71875 C 267.328125 346.109375 268 349.507812 268.765625 353.363281 C 262.507812 353.363281 256.664062 353.421875 250.820312 353.28125 C 250.207031 353.265625 249.273438 352.171875 249.089844 351.429688 C 248.433594 348.773438 248.039062 346.046875 247.570312 343.042969 Z M 247.570312 343.042969 "/>
<path style=" stroke:none;fill-rule:nonzero;fill:rgb(98.431373%,76.078433%,0.784314%);fill-opacity:1;" d="M 88.804688 202.859375 C 90.484375 201.210938 91.988281 199.773438 93.453125 198.371094 C 104.484375 207.578125 104.484375 207.578125 104.894531 210.945312 C 100.03125 210.945312 95.210938 210.945312 90.386719 210.945312 C 88.800781 210.945312 87.210938 210.945312 84.738281 210.945312 C 86.261719 207.863281 87.441406 205.464844 88.804688 202.859375 Z M 88.804688 202.859375 "/>
<path style=" stroke:none;fill-rule:nonzero;fill:rgb(100%,100%,100%);fill-opacity:1;" d="M 345.65625 279.671875 C 345.136719 280.085938 344.464844 280.363281 343.796875 280.640625 C 343.726562 280.417969 343.660156 280.195312 343.59375 279.972656 C 344 279.851562 344.40625 279.730469 345 279.449219 C 345.296875 279.371094 345.402344 279.453125 345.65625 279.671875 Z M 345.65625 279.671875 "/>
<path style=" stroke:none;fill-rule:nonzero;fill:rgb(54.901963%,75.686276%,85.09804%);fill-opacity:1;" d="M 74.777344 206.574219 C 74.523438 206.441406 74.394531 206.121094 74.226562 205.542969 C 74.425781 205.652344 74.664062 206.019531 74.777344 206.574219 Z M 74.777344 206.574219 "/>
<path style=" stroke:none;fill-rule:nonzero;fill:rgb(0.392157%,1.176471%,0%);fill-opacity:1;" d="M 119.140625 162.8125 C 118.632812 155.3125 122.628906 148.695312 129.1875 145.804688 C 135.847656 142.867188 144.050781 144.425781 148.789062 149.527344 C 151.085938 152 151.273438 154.914062 149.1875 157.25 C 147 159.695312 144.507812 159.578125 141.785156 158.101562 C 139.96875 157.113281 138.023438 155.671875 136.132812 155.664062 C 132.363281 155.65625 130.433594 158.332031 129.9375 161.925781 C 129.515625 164.96875 127.6875 166.773438 124.855469 167.046875 C 122.140625 167.3125 120.15625 165.742188 119.140625 162.8125 Z M 119.140625 162.8125 "/>
<path style=" stroke:none;fill-rule:nonzero;fill:rgb(0.392157%,1.176471%,0%);fill-opacity:1;" d="M 169.609375 159.414062 C 173.867188 161.117188 176.984375 163.667969 178.742188 167.660156 C 180.09375 170.726562 179.292969 173.835938 176.730469 175.175781 C 173.714844 176.75 171.234375 175.875 169.210938 173.257812 C 165.527344 168.5 162.949219 168.578125 159.546875 173.507812 C 157.566406 176.367188 154.480469 177.195312 151.730469 175.597656 C 149.167969 174.105469 148.46875 170.921875 149.863281 167.679688 C 152.417969 161.726562 160.804688 156.359375 169.609375 159.414062 Z M 169.609375 159.414062 "/>
<path style=" stroke:none;fill-rule:nonzero;fill:rgb(2.745098%,0.784314%,0.784314%);fill-opacity:1;" d="M 169.125 200.691406 C 165.789062 195.382812 167.890625 191.3125 173.777344 191.128906 C 176.011719 191.058594 178.257812 191.0625 180.488281 191.171875 C 183.683594 191.332031 185.648438 193.128906 185.902344 196.253906 C 186.160156 199.421875 184.375 201.875 181.300781 201.976562 C 177.332031 202.109375 173.328125 201.296875 169.125 200.691406 Z M 169.125 200.691406 "/>
<path style=" stroke:none;fill-rule:nonzero;fill:rgb(2.352941%,0.784314%,0.784314%);fill-opacity:1;" d="M 225.035156 195.332031 C 226.125 192.210938 228.246094 191.066406 231.15625 191.113281 C 233.390625 191.148438 235.632812 191.035156 237.859375 191.171875 C 241.203125 191.378906 243.503906 193.539062 243.421875 196.507812 C 243.332031 199.621094 241.648438 201.757812 238.511719 202.101562 C 235.699219 202.410156 232.789062 202.5 229.992188 202.152344 C 226.382812 201.703125 224.5625 199.414062 225.035156 195.332031 Z M 225.035156 195.332031 "/>
<path style=" stroke:none;fill-rule:nonzero;fill:rgb(1.960784%,0.784314%,0.784314%);fill-opacity:1;" d="M 201.207031 130.195312 C 201.625 127.6875 201.726562 125.175781 202.835938 123.238281 C 203.964844 121.269531 205.976562 119.730469 207.804688 118.257812 C 210.230469 116.296875 212.867188 116.3125 215.242188 118.425781 C 217.410156 120.359375 217.523438 123.714844 215.476562 126.144531 C 214.042969 127.851562 212.425781 129.414062 210.796875 130.945312 C 207.277344 134.257812 204.660156 134.09375 201.207031 130.195312 Z M 201.207031 130.195312 "/>
</g>
</svg>
