<?xml version="1.0" encoding="UTF-8"?>
<svg xmlns="http://www.w3.org/2000/svg" xmlns:xlink="http://www.w3.org/1999/xlink" width="384px" height="384px" viewBox="0 0 384 384" version="1.1">
<g id="surface1">
<path style=" stroke:none;fill-rule:nonzero;fill:rgb(0%,0%,0%);fill-opacity:1;" d="M 166.5 384.75 C 111.011719 384.75 55.902344 384.75 0.769531 384.75 C 0.769531 256.792969 0.769531 128.839844 0.769531 0.816406 C 128.675781 0.816406 256.597656 0.816406 384.636719 0.816406 C 384.636719 128.75 384.636719 256.75 384.636719 384.75 C 312.089844 384.75 239.480469 384.75 166.5 384.75 M 314.742188 145.804688 C 294.03125 129.996094 267.042969 131.167969 247.992188 149.015625 C 233.382812 162.707031 216.621094 171.863281 196.683594 174.792969 C 194.6875 175.085938 193.816406 175.792969 194.179688 177.933594 C 195.691406 186.894531 197.117188 195.867188 198.550781 205.480469 C 198.820312 207.527344 199.089844 209.574219 199.324219 211.332031 C 208.964844 211.332031 218.121094 211.332031 227.972656 211.414062 C 245.648438 210.847656 263.328125 210.335938 281 209.683594 C 286.339844 209.488281 291.664062 208.894531 297.6875 208.617188 C 307.660156 208.039062 317.636719 207.550781 327.59375 206.773438 C 328.792969 206.679688 330.417969 205.273438 330.921875 204.085938 C 339.285156 184.386719 332.203125 158.851562 314.742188 145.804688 M 24.597656 219.496094 C 153.445312 263.675781 293.289062 247.328125 373.054688 214.367188 C 252.84375 226.023438 132.625 225.953125 12.40625 214.144531 C 12.367188 214.449219 12.328125 214.757812 12.289062 215.0625 C 16.214844 216.453125 20.136719 217.84375 24.597656 219.496094 M 324.054688 242.101562 C 235.566406 263.3125 147.097656 262.820312 57.847656 241.335938 C 65.210938 250.304688 72.179688 258.453125 78.746094 266.914062 C 83.75 273.359375 89.933594 276.164062 98.109375 276.140625 C 147.335938 275.976562 196.558594 276.058594 245.785156 276.058594 C 251.683594 276.058594 252.515625 276.605469 254.734375 281.898438 C 259.453125 281.898438 264.1875 281.898438 268.886719 281.898438 C 270.515625 277.003906 271.753906 276.082031 276.703125 276.0625 C 280.949219 276.046875 285.199219 276.023438 289.445312 276.066406 C 296.011719 276.132812 301.277344 273.5625 305.402344 268.480469 C 310.359375 262.371094 315.371094 256.304688 320.359375 250.21875 C 322.617188 247.464844 324.878906 244.714844 327.644531 241.34375 C 326.046875 241.652344 325.335938 241.789062 324.054688 242.101562 M 61.058594 207.023438 C 69.128906 207.558594 77.199219 208.09375 84.777344 208.597656 C 85.054688 203.992188 84.734375 199.671875 85.746094 195.6875 C 86.554688 192.511719 85.726562 190.996094 83.488281 189.128906 C 77.160156 183.84375 70.890625 178.472656 64.894531 172.816406 C 63.511719 171.511719 62.578125 168.855469 62.804688 166.984375 C 62.984375 165.476562 65.085938 163.300781 66.585938 163.074219 C 68.480469 162.789062 71.050781 163.667969 72.59375 164.9375 C 79.628906 170.730469 86.40625 176.832031 93.3125 182.855469 C 104.09375 174.980469 114.777344 175.105469 125.773438 182.269531 C 131.660156 186.109375 138.167969 185.839844 144.902344 183.75 C 141.753906 177.554688 136.921875 173.871094 130.710938 171.925781 C 124.011719 169.824219 122.988281 168.382812 123.691406 161.445312 C 124.746094 151.0625 120.015625 141.90625 111.265625 137.398438 C 102.585938 132.925781 92.578125 134.28125 84.765625 140.980469 C 80.542969 144.597656 78.773438 144.441406 73.675781 141.84375 C 70.195312 140.070312 66.296875 138.574219 62.460938 138.191406 C 58.230469 137.773438 54.429688 137.679688 53.164062 132.136719 C 48.257812 134.859375 43.976562 137.238281 39.695312 139.613281 C 42.625 144.917969 42.625 145.363281 40.15625 149.6875 C 34.941406 158.828125 35.769531 169.078125 42.382812 177.332031 C 46.121094 181.996094 46.222656 183.90625 42.941406 189.015625 C 40.230469 193.238281 38.976562 197.84375 39.039062 202.859375 C 39.0625 204.726562 39.734375 205.4375 41.675781 205.554688 C 47.910156 205.921875 54.128906 206.5 61.058594 207.023438 M 132.6875 145.355469 C 133.484375 149.871094 134.1875 154.40625 135.140625 158.890625 C 135.398438 160.09375 136.160156 161.722656 137.132812 162.15625 C 145.609375 165.914062 151.878906 171.8125 155.828125 180.226562 C 156.203125 181.03125 157.359375 182.042969 158.097656 182 C 160.40625 181.863281 162.691406 181.269531 165.328125 180.792969 C 164.71875 179.273438 164.296875 178.136719 163.8125 177.027344 C 159.386719 166.847656 154.941406 156.675781 150.519531 146.492188 C 148.441406 141.710938 149.085938 138.769531 152.507812 137.210938 C 155.917969 135.660156 158.675781 137.214844 160.71875 141.882812 C 165.171875 152.050781 169.601562 162.230469 174.0625 172.398438 C 175.046875 174.648438 176.109375 176.867188 177.152344 179.128906 C 179.164062 178.769531 180.84375 178.472656 182.488281 178.179688 C 182.246094 168.625 184.753906 165.613281 194.109375 163.875 C 197.417969 163.261719 200.699219 162.496094 204.011719 161.894531 C 206.714844 161.40625 208.339844 159.867188 209.445312 157.371094 C 213.394531 148.457031 212.734375 139.949219 206.597656 132.402344 C 200.363281 124.734375 192.054688 122.183594 182.40625 124.550781 C 175.917969 126.140625 174.699219 125.683594 170.898438 120.191406 C 165.261719 112.058594 157.359375 108.3125 147.628906 109.742188 C 137.613281 111.214844 130.925781 117.191406 127.917969 126.945312 C 126.5625 131.339844 126.015625 135.675781 129.621094 139.582031 C 130.929688 140.996094 131.546875 143.050781 132.6875 145.355469 M 96.195312 199.597656 C 96.136719 200.59375 96 201.59375 96.039062 202.585938 C 96.242188 207.875 97.511719 209.34375 102.777344 209.511719 C 126.480469 210.28125 150.183594 210.960938 173.886719 211.621094 C 178.46875 211.75 183.050781 211.640625 187.988281 211.640625 C 186.800781 204.078125 185.65625 196.78125 184.492188 189.386719 C 172.824219 191.164062 161.660156 192.476562 150.664062 194.640625 C 138.378906 197.0625 126.957031 196.984375 115.851562 189.78125 C 108.328125 184.898438 99.257812 189.742188 96.195312 199.597656 Z M 96.195312 199.597656 "/>
<path style=" stroke:none;fill-rule:nonzero;fill:rgb(76.47059%,34.117648%,22.745098%);fill-opacity:1;" d="M 296.996094 208.484375 C 291.664062 208.894531 286.339844 209.488281 281 209.683594 C 263.328125 210.335938 245.648438 210.847656 227.546875 211.125 C 218.09375 206.519531 208.570312 204.546875 198.574219 204.835938 C 197.117188 195.867188 195.691406 186.894531 194.179688 177.933594 C 193.816406 175.792969 194.6875 175.085938 196.683594 174.792969 C 216.621094 171.863281 233.382812 162.707031 247.992188 149.015625 C 267.042969 131.167969 294.03125 129.996094 314.878906 146.320312 C 320.269531 166.253906 316.886719 183.941406 304.339844 199.757812 C 301.976562 202.734375 299.449219 205.582031 296.996094 208.484375 Z M 296.996094 208.484375 "/>
<path style=" stroke:none;fill-rule:nonzero;fill:rgb(98.431373%,79.607844%,51.372552%);fill-opacity:1;" d="M 24.332031 219.367188 C 20.136719 217.84375 16.214844 216.453125 12.289062 215.0625 C 12.328125 214.757812 12.367188 214.449219 12.40625 214.144531 C 132.625 225.953125 252.84375 226.023438 373.054688 214.367188 C 293.289062 247.328125 153.445312 263.675781 24.332031 219.367188 Z M 24.332031 219.367188 "/>
<path style=" stroke:none;fill-rule:nonzero;fill:rgb(98.823529%,65.098041%,7.450981%);fill-opacity:1;" d="M 324.339844 242.015625 C 325.335938 241.789062 326.046875 241.652344 327.644531 241.34375 C 324.878906 244.714844 322.617188 247.464844 320.359375 250.21875 C 315.371094 256.304688 310.359375 262.371094 305.402344 268.480469 C 301.277344 273.5625 296.011719 276.132812 289.445312 276.066406 C 285.199219 276.023438 280.949219 276.046875 276.703125 276.0625 C 271.753906 276.082031 270.515625 277.003906 268.886719 281.898438 C 264.1875 281.898438 259.453125 281.898438 254.734375 281.898438 C 252.515625 276.605469 251.683594 276.058594 245.785156 276.058594 C 196.558594 276.058594 147.335938 275.976562 98.109375 276.140625 C 89.933594 276.164062 83.75 273.359375 78.746094 266.914062 C 72.179688 258.453125 65.210938 250.304688 57.847656 241.335938 C 147.097656 262.820312 235.566406 263.3125 324.339844 242.015625 Z M 324.339844 242.015625 "/>
<path style=" stroke:none;fill-rule:nonzero;fill:rgb(58.823532%,84.705883%,47.843137%);fill-opacity:1;" d="M 60.707031 207.011719 C 54.128906 206.5 47.910156 205.921875 41.675781 205.554688 C 39.734375 205.4375 39.0625 204.726562 39.039062 202.859375 C 38.976562 197.84375 40.230469 193.238281 42.941406 189.015625 C 46.222656 183.90625 46.121094 181.996094 42.382812 177.332031 C 35.769531 169.078125 34.941406 158.828125 40.15625 149.6875 C 42.625 145.363281 42.625 144.917969 39.695312 139.613281 C 43.976562 137.238281 48.257812 134.859375 53.164062 132.136719 C 54.429688 137.679688 58.230469 137.773438 62.460938 138.191406 C 66.296875 138.574219 70.195312 140.070312 73.675781 141.84375 C 78.773438 144.441406 80.542969 144.597656 84.765625 140.980469 C 92.578125 134.28125 102.585938 132.925781 111.265625 137.398438 C 120.015625 141.90625 124.746094 151.0625 123.691406 161.445312 C 122.988281 168.382812 124.011719 169.824219 130.710938 171.925781 C 136.921875 173.871094 141.753906 177.554688 144.902344 183.75 C 138.167969 185.839844 131.660156 186.109375 125.773438 182.269531 C 114.777344 175.105469 104.09375 174.980469 93.3125 182.855469 C 86.40625 176.832031 79.628906 170.730469 72.59375 164.9375 C 71.050781 163.667969 68.480469 162.789062 66.585938 163.074219 C 65.085938 163.300781 62.984375 165.476562 62.804688 166.984375 C 62.578125 168.855469 63.511719 171.511719 64.894531 172.816406 C 70.890625 178.472656 77.160156 183.84375 83.488281 189.128906 C 85.726562 190.996094 86.554688 192.511719 85.746094 195.6875 C 84.734375 199.671875 85.054688 203.992188 84.777344 208.597656 C 77.199219 208.09375 69.128906 207.558594 60.707031 207.011719 Z M 60.707031 207.011719 "/>
<path style=" stroke:none;fill-rule:nonzero;fill:rgb(40.392157%,78.431374%,26.274511%);fill-opacity:1;" d="M 132.582031 145.085938 C 131.546875 143.050781 130.929688 140.996094 129.621094 139.582031 C 126.015625 135.675781 126.5625 131.339844 127.917969 126.945312 C 130.925781 117.191406 137.613281 111.214844 147.628906 109.742188 C 157.359375 108.3125 165.261719 112.058594 170.898438 120.191406 C 174.699219 125.683594 175.917969 126.140625 182.40625 124.550781 C 192.054688 122.183594 200.363281 124.734375 206.597656 132.402344 C 212.734375 139.949219 213.394531 148.457031 209.445312 157.371094 C 208.339844 159.867188 206.714844 161.40625 204.011719 161.894531 C 200.699219 162.496094 197.417969 163.261719 194.109375 163.875 C 184.753906 165.613281 182.246094 168.625 182.488281 178.179688 C 180.84375 178.472656 179.164062 178.769531 177.152344 179.128906 C 176.109375 176.867188 175.046875 174.648438 174.0625 172.398438 C 169.601562 162.230469 165.171875 152.050781 160.71875 141.882812 C 158.675781 137.214844 155.917969 135.660156 152.507812 137.210938 C 149.085938 138.769531 148.441406 141.710938 150.519531 146.492188 C 154.941406 156.675781 159.386719 166.847656 163.8125 177.027344 C 164.296875 178.136719 164.71875 179.273438 165.328125 180.792969 C 162.691406 181.269531 160.40625 181.863281 158.097656 182 C 157.359375 182.042969 156.203125 181.03125 155.828125 180.226562 C 151.878906 171.8125 145.609375 165.914062 137.132812 162.15625 C 136.160156 161.722656 135.398438 160.09375 135.140625 158.890625 C 134.1875 154.40625 133.484375 149.871094 132.582031 145.085938 Z M 132.582031 145.085938 "/>
<path style=" stroke:none;fill-rule:nonzero;fill:rgb(98.431373%,89.803922%,77.254903%);fill-opacity:1;" d="M 96.285156 199.300781 C 99.257812 189.742188 108.328125 184.898438 115.851562 189.78125 C 126.957031 196.984375 138.378906 197.0625 150.664062 194.640625 C 161.660156 192.476562 172.824219 191.164062 184.492188 189.386719 C 185.65625 196.78125 186.800781 204.078125 187.988281 211.640625 C 183.050781 211.640625 178.46875 211.75 173.886719 211.621094 C 150.183594 210.960938 126.480469 210.28125 102.777344 209.511719 C 97.511719 209.34375 96.242188 207.875 96.039062 202.585938 C 96 201.59375 96.136719 200.59375 96.285156 199.300781 Z M 96.285156 199.300781 "/>
<path style=" stroke:none;fill-rule:nonzero;fill:rgb(65.098041%,29.019609%,18.82353%);fill-opacity:1;" d="M 297.34375 208.550781 C 299.449219 205.582031 301.976562 202.734375 304.339844 199.757812 C 316.886719 183.941406 320.269531 166.253906 315.015625 146.53125 C 332.203125 158.851562 339.285156 184.386719 330.921875 204.085938 C 330.417969 205.273438 328.792969 206.679688 327.59375 206.773438 C 317.636719 207.550781 307.660156 208.039062 297.34375 208.550781 Z M 297.34375 208.550781 "/>
<path style=" stroke:none;fill-rule:nonzero;fill:rgb(64.313728%,29.019609%,18.431373%);fill-opacity:1;" d="M 198.5625 205.15625 C 208.570312 204.546875 218.09375 206.519531 227.199219 211.085938 C 218.121094 211.332031 208.964844 211.332031 199.324219 211.332031 C 199.089844 209.574219 198.820312 207.527344 198.5625 205.15625 Z M 198.5625 205.15625 "/>
</g>
</svg>
