<svg version="1.1" id="Layer_1" xmlns="http://www.w3.org/2000/svg" xmlns:xlink="http://www.w3.org/1999/xlink" x="0px" y="0px"
	 width="100%" viewBox="0 0 432 336" enable-background="new 0 0 432 336" xml:space="preserve">
<path fill="#000000" opacity="1.000000" stroke="none" 
	d="
M1.000000,319.416656 
	C11.077035,320.961731 21.234756,319.616638 31.354261,319.659576 
	C34.294636,319.672058 34.512089,317.510803 33.277794,315.431671 
	C28.532322,307.438049 27.894989,298.412292 26.709007,289.550171 
	C26.134884,285.260162 24.540699,282.823486 19.749437,283.050720 
	C17.131584,283.174866 14.463079,282.513031 11.835605,282.092133 
	C6.744507,281.276550 4.398420,278.420563 4.350408,273.162079 
	C4.306641,268.368652 7.506378,266.971283 11.447327,266.425934 
	C13.751616,266.107056 16.072948,265.861908 18.394930,265.730072 
	C24.139307,265.403809 25.318068,264.219543 25.650396,258.004242 
	C26.110369,249.401627 28.578735,241.491501 32.379440,233.699387 
	C36.792969,224.650864 44.070808,220.793976 53.357723,219.884399 
	C63.097630,218.930450 72.663979,220.289490 81.801598,223.813538 
	C89.302681,226.706451 90.203278,234.174805 92.069473,240.514267 
	C93.988907,247.034637 94.631699,253.923798 94.261017,260.791290 
	C94.038864,264.907043 96.122635,266.614563 99.925400,266.635010 
	C105.423164,266.664581 110.923447,266.665771 116.418915,266.528870 
	C120.209465,266.434479 122.010323,264.682953 121.878128,260.518250 
	C121.750183,256.487671 121.525276,252.445740 120.346947,248.687546 
	C116.018959,234.883804 117.942360,221.365265 122.082916,208.060379 
	C123.944580,202.078278 129.195343,198.588394 134.456314,195.535614 
	C137.491562,193.774338 140.645905,192.084015 144.121506,191.577255 
	C149.614563,190.776352 151.198502,187.697464 150.733139,182.504089 
	C149.079971,164.055359 153.421494,146.803116 161.952652,130.569839 
	C168.085419,118.900307 176.748398,110.207520 190.473434,107.834557 
	C197.671799,106.590019 197.676376,101.223137 193.053345,94.356293 
	C190.956375,91.241531 190.301819,88.901207 191.961517,85.789070 
	C193.102112,83.650299 193.284561,81.409012 193.146103,79.021263 
	C192.324066,64.844528 203.974609,54.711136 217.663971,57.881660 
	C221.383957,58.743225 225.003891,59.975677 228.847137,60.323566 
	C231.118973,60.529213 232.323410,61.428726 231.951035,64.246529 
	C231.121506,70.523598 232.121918,76.674332 233.613373,82.847900 
	C234.851334,87.972191 235.805908,93.335670 230.149017,97.202789 
	C227.030472,99.334694 227.585190,103.072769 231.432434,105.247337 
	C237.350128,108.592178 242.267868,113.443970 249.891144,114.102486 
	C261.027191,115.064415 266.028442,123.287010 268.942017,133.246124 
	C270.383789,138.174377 272.208374,143.070068 274.518372,147.648148 
	C279.153656,156.834366 280.534973,166.520798 280.344849,176.636520 
	C280.189636,184.895660 280.793549,185.361694 288.638062,187.689774 
	C292.773468,188.917099 296.724854,190.750992 300.826141,192.109222 
	C312.648651,196.024521 322.728058,217.008743 320.174500,232.157516 
	C318.715637,240.812088 318.091675,249.604309 316.877106,258.304565 
	C316.315765,262.325409 318.054993,263.936188 321.759369,263.975159 
	C329.751465,264.059265 337.745544,263.772491 345.728882,264.542816 
	C349.754608,264.931244 351.501801,262.306396 351.806641,258.773712 
	C352.536194,250.319565 352.941467,241.837082 353.697662,233.385712 
	C354.463470,224.827087 359.079926,221.511948 367.574036,220.583664 
	C377.119141,219.540527 386.434509,219.733414 395.861450,221.256607 
	C401.833160,222.221527 404.992950,225.750992 406.242950,231.243774 
	C408.160675,239.670349 411.018402,247.896149 411.948517,256.530212 
	C412.410889,260.822449 414.718475,261.989655 418.716766,261.890625 
	C423.254272,261.778351 427.968048,259.554565 432.670349,262.818359 
	C433.000000,268.022095 433.000000,273.044189 432.573364,278.629395 
	C428.186646,279.509216 424.213745,280.189453 420.269775,280.050354 
	C415.374237,279.877655 413.917114,281.933594 413.149994,286.641663 
	C411.156464,298.876953 412.329010,312.047638 403.669952,322.552643 
	C403.558014,322.688446 403.836060,323.145691 404.059296,323.859924 
	C413.603668,324.982147 423.298126,324.686188 433.000000,324.000000 
	C433.000000,325.066681 433.000000,326.133331 432.600586,327.498413 
	C427.572906,326.920929 422.896606,327.362885 418.248932,327.400787 
	C401.438965,327.537811 384.632385,327.777832 367.852844,326.376465 
	C364.791473,326.120819 360.848969,326.079773 360.382568,322.734558 
	C359.609161,317.187164 356.487122,312.548737 355.607941,307.107239 
	C354.303772,299.035156 353.510040,290.968750 353.564484,282.779510 
	C353.606079,276.527588 352.346954,275.280518 346.264801,275.459259 
	C338.274719,275.694122 330.304535,275.778809 322.309967,275.477905 
	C316.273682,275.250763 314.216034,277.387268 313.420685,283.242096 
	C312.952911,286.685608 312.604187,290.177307 311.734009,293.525757 
	C310.692291,297.534393 311.575623,300.192108 315.475433,302.038757 
	C320.884705,304.600220 326.160980,307.449677 331.433685,310.288239 
	C333.060455,311.164001 334.523499,312.407898 334.134308,314.629242 
	C333.790039,316.594269 332.196136,317.270111 330.571198,317.698425 
	C327.193817,318.588623 323.733490,318.984192 320.265839,319.437073 
	C312.053467,320.509705 304.042969,318.317780 295.915680,318.339722 
	C289.871185,318.356049 288.712646,316.812683 287.571320,310.975677 
	C286.258789,304.262878 289.444885,298.645905 290.706665,292.556671 
	C291.911987,286.740051 290.740570,285.022888 284.864929,284.079163 
	C280.854675,283.435059 276.782104,282.622559 274.218872,279.239807 
	C272.102448,276.446655 269.491913,275.898529 266.371490,275.903564 
	C236.217850,275.952148 206.064133,275.973663 175.910446,276.004883 
	C173.899673,276.006958 171.597824,275.801575 170.282059,277.470795 
	C166.557648,282.195648 161.489624,283.106415 155.994324,283.083344 
	C152.504410,283.068695 151.375778,285.135010 151.338394,288.223328 
	C151.309540,290.606018 152.016312,292.811798 152.920670,294.976624 
	C154.538040,298.848236 154.823669,302.996918 155.498245,307.075500 
	C156.420944,312.654236 153.457870,314.954742 148.570404,315.919525 
	C140.407227,317.530914 132.180313,318.656982 123.898331,319.441010 
	C119.741760,319.834564 115.602203,320.033020 111.476852,319.271973 
	C108.949326,318.805695 106.500961,318.042206 105.813972,315.137238 
	C105.087715,312.066193 106.793243,310.041290 109.165634,308.493927 
	C110.414391,307.679443 111.764763,307.004761 113.116432,306.366882 
	C117.934647,304.093109 122.795738,301.909180 127.593521,299.593658 
	C129.707397,298.573486 131.924057,297.377045 131.748184,294.541840 
	C131.404205,288.996765 130.095734,283.688873 127.162613,278.893768 
	C125.904129,276.836426 123.891724,275.856964 121.603889,276.367065 
	C115.200714,277.794769 108.652008,276.969086 102.220856,277.858032 
	C94.951759,278.862823 93.701065,279.827332 93.458931,287.200836 
	C93.230293,294.163177 91.360573,300.661530 89.052383,307.090454 
	C84.264458,320.426178 76.929840,324.625671 62.914455,322.776794 
	C58.863331,322.242371 54.718330,320.024078 50.675831,321.812927 
	C47.439175,323.245178 44.242172,323.182129 40.929329,323.215698 
	C27.617195,323.350586 14.289215,322.700470 1.000000,324.000000 
	C1.000000,322.611115 1.000000,321.222198 1.000000,319.416656 
M220.168045,235.378769 
	C217.000488,235.485626 213.954346,233.562302 210.804260,234.469315 
	C197.805298,238.212143 184.798004,239.182907 171.501221,235.878189 
	C166.673279,234.678268 163.067291,238.196640 163.206543,243.156525 
	C163.313843,246.979050 163.466141,250.741043 162.665756,254.565842 
	C161.304764,261.069855 163.710419,264.167175 170.488831,265.042328 
	C173.446793,265.424225 176.453827,265.633057 179.434738,265.597595 
	C207.041275,265.269196 234.620483,263.603546 262.240143,263.888245 
	C272.372070,263.992676 273.075226,263.395966 273.250580,253.437698 
	C273.360046,247.222198 271.311218,241.694641 267.225983,237.002884 
	C263.900055,233.183228 259.995483,237.113022 256.402740,236.371902 
	C255.287109,236.141769 254.079987,236.386047 252.916565,236.351776 
	C242.279587,236.038513 231.643036,235.711716 220.168045,235.378769 
M215.334381,176.171005 
	C223.710983,177.689163 231.907974,177.156982 239.820526,173.872482 
	C245.513855,171.509201 248.557404,164.122375 245.701279,158.973129 
	C241.481583,151.365509 238.072861,143.530182 236.915466,134.824722 
	C236.757355,133.635452 237.052490,132.071487 235.320312,131.399811 
	C232.980865,133.453827 233.385727,136.567825 232.421616,139.129532 
	C230.191711,145.054688 221.583130,150.848694 215.568390,150.259735 
	C205.692245,149.292694 199.027939,143.761795 197.545410,135.930603 
	C196.747787,131.717377 197.102325,126.973167 193.743408,123.549728 
	C190.696625,124.406502 191.171997,126.615814 191.171585,128.540466 
	C191.170319,134.363297 191.374466,140.190430 191.209000,146.007645 
	C191.071365,150.846069 190.864578,156.103195 187.663742,159.807602 
	C181.622620,166.799088 180.761810,175.917114 176.750214,183.690140 
	C176.313278,184.536804 176.254517,185.618393 176.181564,186.602966 
	C176.093643,187.789780 176.220474,189.013184 177.566925,189.507797 
	C178.609741,189.890884 179.460449,189.369705 180.299438,188.738724 
	C182.227005,187.289062 182.760971,185.751999 182.146133,183.170197 
	C180.573120,176.564651 184.685181,171.713959 191.483551,171.721268 
	C193.464203,171.723389 195.475861,171.931366 197.418991,172.317978 
	C203.124069,173.453049 208.801834,174.725357 215.334381,176.171005 
M158.725830,252.680511 
	C159.886551,249.314560 157.853577,247.635986 155.186111,246.749130 
	C153.711914,246.258972 152.010986,247.268890 151.663269,248.816910 
	C151.070450,251.456146 151.483322,254.520615 153.583282,256.039459 
	C156.092468,257.854248 157.100998,254.816132 158.725830,252.680511 
M249.044434,172.544983 
	C246.185532,172.192261 245.265823,173.801468 246.402435,175.999298 
	C247.533585,178.186600 248.515717,180.690552 251.090286,182.474014 
	C252.707321,178.630203 250.546204,175.901642 249.044434,172.544983 
z"/>
</svg>