<svg version="1.1" id="Layer_1" xmlns="http://www.w3.org/2000/svg" xmlns:xlink="http://www.w3.org/1999/xlink" x="0px" y="0px"
	 width="100%" viewBox="0 0 400 480" enable-background="new 0 0 400 480" xml:space="preserve">
<path fill="#000000" opacity="1.000000" stroke="none" 
	d="
M290.584167,426.849518 
	C274.831604,427.722778 259.542786,428.657471 244.241104,429.270142 
	C230.260681,429.829865 216.265793,430.023102 202.278503,430.420685 
	C199.441193,430.501312 196.902802,430.931061 194.667526,433.333710 
	C192.473206,435.692383 188.932800,436.030823 185.826523,436.228638 
	C173.902985,436.987885 162.284866,435.922913 151.227356,430.661224 
	C145.414124,427.895020 138.774277,429.457062 132.574844,428.394165 
	C129.337860,427.839172 125.931282,428.068756 122.846794,425.136749 
	C126.468788,421.688324 131.135315,421.838531 135.029373,421.888000 
	C144.744080,422.011536 149.055435,418.059875 153.173492,408.730682 
	C160.497635,392.138245 162.472610,374.987183 164.459290,357.543488 
	C164.752945,354.964996 163.699417,353.518707 161.716003,352.214661 
	C157.955475,349.742218 154.237488,347.156860 151.321182,343.679657 
	C141.428268,331.884003 142.459778,313.868835 153.642227,301.729004 
	C157.270737,297.789856 161.360916,294.362305 165.634033,291.173798 
	C175.287354,283.970703 179.288193,273.871460 180.593262,262.379944 
	C180.816528,260.414185 180.789276,258.399384 179.905090,256.491913 
	C175.138687,246.209412 176.089340,235.382324 177.031525,224.588882 
	C177.179520,222.893387 177.524261,221.299988 176.548218,219.782471 
	C168.472443,207.226440 166.463959,192.789093 163.901611,178.552582 
	C163.415741,175.852936 162.739578,173.374084 161.189117,171.154480 
	C154.744904,161.929260 151.687943,151.454498 149.664017,140.551620 
	C148.982742,136.881653 148.744247,132.954529 145.999954,129.950531 
	C143.606689,130.343460 142.645828,132.277710 141.291031,133.635422 
	C115.291695,159.690567 78.721786,153.576797 64.099098,119.784386 
	C52.058914,91.960022 53.666389,64.266068 71.864151,39.242970 
	C87.238075,18.102852 104.165512,13.256230 129.927017,20.137562 
	C141.090469,23.119509 147.742935,32.642673 153.356018,42.291679 
	C158.876633,51.781746 162.098114,62.092457 162.258530,73.129997 
	C162.328629,77.953125 166.568985,78.583824 169.038116,80.952309 
	C180.225784,91.683914 195.431412,90.153618 208.958633,93.585785 
	C220.701447,96.565208 232.644196,98.832138 244.572372,101.096428 
	C249.995636,102.125900 252.378723,100.862999 254.380203,95.951820 
	C259.153290,84.239815 266.243378,74.458740 278.372711,69.119461 
	C299.948975,59.621700 324.234344,67.909225 335.320068,88.742958 
	C347.498627,111.630493 345.149475,139.116699 328.728516,158.415543 
	C318.325836,170.641342 304.888153,176.191406 288.649567,173.765472 
	C283.605255,173.011902 279.680511,175.835892 279.655243,182.338821 
	C279.596008,197.589249 273.912903,210.906723 267.071320,223.970993 
	C265.195709,227.552536 264.764526,231.388016 265.585693,235.150803 
	C268.794159,249.852539 264.708496,263.065308 258.032532,275.929779 
	C254.030441,283.641785 248.966766,290.609802 243.180786,297.774445 
	C249.009430,300.326080 254.746353,299.653168 260.160553,300.618134 
	C270.758301,302.506958 280.892853,305.630249 290.253326,310.919220 
	C301.256958,317.136627 303.974396,325.076874 299.510437,336.993073 
	C294.289703,350.929382 286.147278,363.021454 275.987701,373.797882 
	C271.497620,378.560577 267.798340,383.843109 264.803802,389.650024 
	C263.591370,392.001190 263.957611,393.935120 265.531158,396.080963 
	C270.090302,402.298187 276.109039,405.998444 283.579254,407.715179 
	C288.843719,408.925049 294.016510,410.330322 294.549103,417.349335 
	C294.741455,419.884399 297.504944,419.574554 299.456879,419.628052 
	C303.566864,419.740692 307.539337,420.356689 311.361481,422.363495 
	C305.074432,426.586426 297.865295,425.792847 290.584167,426.849518 
M148.091492,57.347305 
	C148.926559,54.446068 151.705444,50.819378 145.089386,50.386169 
	C146.131348,53.106251 147.069077,55.554195 148.156067,58.848415 
	C151.022934,74.647232 150.669617,90.278854 145.359772,105.560768 
	C143.766098,110.147476 141.611481,114.539284 139.433334,119.682785 
	C141.314148,119.134270 142.150665,118.785202 143.107269,117.895676 
	C146.247086,114.976006 144.406097,110.805717 146.041122,107.612907 
	C148.582657,102.649872 151.445694,97.410645 153.113373,92.530617 
	C156.873871,81.526443 155.635452,69.662903 152.255936,58.101135 
	C150.570862,59.050785 149.207230,59.296825 148.091492,57.347305 
M222.193726,152.400528 
	C230.521912,149.236343 239.004822,148.692841 247.663467,150.843231 
	C249.205307,151.226151 250.960175,152.391815 252.276260,150.687073 
	C253.313522,149.343506 252.375000,147.851028 251.907806,146.428085 
	C249.251892,138.338867 247.082397,130.108276 247.764587,121.521721 
	C248.134659,116.863541 246.318161,115.136391 241.908691,114.267899 
	C220.249847,110.001968 198.644424,105.464233 177.028244,100.983337 
	C174.873840,100.536743 172.939301,99.905334 171.204758,102.147980 
	C169.494644,104.359055 169.198471,106.354050 170.152786,109.037148 
	C172.847488,116.613365 176.507690,123.657158 180.851562,130.393784 
	C186.305817,138.852432 190.940506,147.649399 191.275070,158.040710 
	C191.332581,159.826797 192.183807,161.125900 193.231140,162.482849 
	C199.458908,170.551712 205.085846,178.959641 207.443008,189.100311 
	C207.938705,191.232864 209.379349,192.562759 211.234283,193.459442 
	C212.367020,194.007019 213.602112,195.117828 214.885178,193.946991 
	C216.160706,192.783020 215.391159,191.484955 214.702713,190.332932 
	C211.040314,184.204193 210.571228,177.420013 210.747284,170.550735 
	C210.950470,162.622833 214.325806,156.500931 222.193726,152.400528 
M168.608459,92.138222 
	C168.390808,90.401093 167.724823,89.236794 166.356873,91.299927 
	C164.166351,94.603691 161.523407,97.584381 160.193954,101.503616 
	C158.569626,106.292191 159.503189,112.229202 156.832230,115.893311 
	C153.768753,120.095901 154.787292,123.489098 155.389206,127.390160 
	C157.944092,143.948868 162.730179,159.524353 175.127472,171.722977 
	C176.832428,173.400589 177.648346,175.558228 177.515732,177.988754 
	C176.303177,179.219788 174.453949,177.311462 173.279190,179.080856 
	C175.291046,192.127258 176.530319,205.450653 186.848495,215.666458 
	C189.538605,218.329895 191.579147,222.174240 186.171677,224.960495 
	C184.987244,225.570801 184.526520,227.086838 184.444839,228.435730 
	C184.001389,235.758514 183.577850,243.070053 186.688034,250.051819 
	C190.971100,259.666443 197.283783,261.561829 205.647614,255.238403 
	C223.023911,242.101135 223.799820,219.111893 212.106827,203.596786 
	C208.688522,199.061096 206.763733,199.259552 203.734833,203.863998 
	C203.270615,204.569672 202.792435,205.250946 201.403091,205.122589 
	C199.347504,202.219955 200.234726,198.636078 200.037430,195.319061 
	C199.422760,184.984818 194.249496,176.416870 188.099289,168.949326 
	C185.338852,165.597641 183.561768,163.024902 183.591354,158.891235 
	C183.603012,157.263000 183.103760,155.617554 182.738251,154.002335 
	C180.380615,143.583969 174.186768,134.924881 169.751556,125.452675 
	C164.963760,115.227432 158.718613,104.726631 168.454666,93.755402 
	C168.638321,93.548431 168.563828,93.112358 168.608459,92.138222 
M210.465927,417.686523 
	C212.629776,417.676056 214.793991,417.687042 216.957428,417.651306 
	C224.571060,417.525574 225.427231,416.708008 225.631241,408.916046 
	C225.775940,403.390228 227.316956,398.309143 231.039215,394.251099 
	C239.932266,384.555695 246.219193,373.710236 247.081726,360.276947 
	C247.313919,356.660583 250.480804,353.904358 250.266403,350.258942 
	C249.668610,349.925964 249.363419,349.604248 249.101532,349.636292 
	C247.958420,349.776245 246.808792,349.945679 245.695724,350.235596 
	C234.228165,353.222687 222.724365,355.780487 210.752609,353.697998 
	C208.270172,353.266174 207.692810,354.997528 207.168701,356.886169 
	C205.504807,362.882080 202.886307,368.438599 199.004074,373.316101 
	C196.001251,377.088715 192.648483,380.587616 189.721573,384.414886 
	C180.171143,396.903290 179.555679,404.650513 186.924667,415.068085 
	C188.710876,417.593262 190.819427,418.924500 194.043869,418.641174 
	C199.178711,418.189911 204.336411,417.998383 210.465927,417.686523 
M255.121719,355.720123 
	C253.686951,357.794342 252.163223,360.007996 252.430740,362.559753 
	C253.327652,371.115601 249.331482,377.979309 245.337845,384.956787 
	C243.931259,387.414307 241.774567,389.742462 242.040924,392.770477 
	C243.408981,393.795563 244.660873,393.834534 245.679123,393.299835 
	C250.484344,390.776581 255.768951,389.022644 258.872162,383.938202 
	C263.565765,376.247925 269.400116,369.418671 275.368988,362.679596 
	C283.271729,353.757050 289.397644,343.736420 293.147888,332.325592 
	C295.476196,325.241211 294.827637,322.511353 288.643799,318.378052 
	C281.068512,313.314697 272.367340,310.897858 263.706451,308.527191 
	C260.942810,307.770721 258.468567,308.583130 256.982117,311.435120 
	C253.355515,318.393341 250.345779,325.594482 248.531219,333.236633 
	C247.727768,336.620392 248.895493,338.723999 252.828629,338.662537 
	C259.239990,338.562286 265.409302,337.220001 271.133301,334.487701 
	C273.923981,333.155548 276.530853,332.641449 279.796661,333.042694 
	C278.253418,337.259125 275.867279,341.266388 271.935638,342.261353 
	C264.316681,344.189514 260.295197,349.948853 255.121719,355.720123 
M182.871384,381.470459 
	C184.722702,378.912598 186.438721,376.242310 188.452469,373.819458 
	C193.151642,368.165649 197.595627,362.355408 200.134750,355.372437 
	C200.872086,353.344604 202.624374,351.228241 200.865982,349.043182 
	C198.983093,347.795135 197.871246,350.841034 196.095810,349.513855 
	C195.555710,347.543671 197.137207,346.531372 198.128265,345.311218 
	C201.478317,341.186737 205.156036,337.301636 208.223724,332.980865 
	C212.889496,326.409180 212.394104,318.392120 207.476196,313.270905 
	C202.023392,307.592712 195.388214,306.921509 187.918777,311.123260 
	C183.391541,313.669922 180.160049,317.457733 177.795181,321.886719 
	C175.565109,326.063293 175.495407,330.415710 178.480194,334.383759 
	C185.398392,333.505280 185.560425,327.776642 186.805267,322.760742 
	C189.009979,326.794495 188.163803,330.841919 188.724182,334.694031 
	C188.841644,335.501495 188.205139,336.219482 187.291962,336.505280 
	C178.792679,339.165680 175.489761,346.216553 173.181030,353.802673 
	C169.536987,365.776428 169.896118,378.433411 167.355942,390.618164 
	C166.905670,392.777985 165.330612,395.920166 169.452026,396.447601 
	C172.680435,396.860779 176.007019,397.554871 177.465607,392.927673 
	C178.652451,389.162476 180.776596,385.692688 182.871384,381.470459 
M265.433167,113.372940 
	C264.572968,112.583710 264.113739,111.086739 262.428680,111.463478 
	C262.844818,115.688087 265.552765,118.185684 268.325714,120.575096 
	C271.552856,123.355896 272.038696,126.371986 270.350830,130.342270 
	C267.165619,137.834656 264.423553,145.514908 261.463287,153.103821 
	C260.661926,155.158188 259.846985,157.110779 261.522522,159.177521 
	C264.216705,162.500763 264.534943,166.437134 264.296631,170.522232 
	C263.972015,176.086502 262.531921,181.657059 265.135925,187.169250 
	C265.945709,188.883408 265.254517,191.054886 264.387878,192.959183 
	C263.219727,195.526031 262.377899,198.178925 262.109924,201.067566 
	C261.764343,204.792923 260.152588,207.881210 257.182465,210.499619 
	C252.972244,214.211258 253.554153,218.180923 258.538177,221.985352 
	C262.449768,215.381027 264.338959,207.912567 268.029785,201.169510 
	C271.917419,194.066910 273.251801,185.519592 272.045807,176.976990 
	C271.573822,173.633713 272.135284,169.754700 274.893402,167.785904 
	C278.309998,165.347061 278.711639,162.284882 278.796692,158.794113 
	C279.083557,147.018204 278.451508,135.246582 280.520569,123.493973 
	C281.690247,116.850029 276.960907,109.529320 272.061584,107.862831 
	C270.382019,107.291527 268.716553,107.065750 267.457092,108.531563 
	C266.148560,110.054504 267.472931,111.280075 268.218597,112.537430 
	C269.383636,114.501869 271.697937,116.006523 271.030212,119.082581 
	C267.693909,118.625999 267.449493,115.574272 265.433167,113.372940 
M254.890884,200.348724 
	C252.383469,199.262207 252.774567,194.826630 248.046204,195.880295 
	C250.559982,192.652985 254.154953,193.967590 255.944473,191.880753 
	C255.372330,190.163300 252.690552,190.153046 253.261475,187.895355 
	C260.101807,187.188248 260.106750,187.186096 257.347656,180.833862 
	C256.445282,178.756287 255.988846,176.692368 257.624969,174.763016 
	C258.976257,173.169495 258.689972,171.378372 258.437897,169.552109 
	C257.929871,165.871506 255.695374,164.102081 252.139786,163.643295 
	C247.202759,163.006256 241.828888,162.594437 239.180466,167.511002 
	C236.404831,172.663757 232.198654,177.332916 231.997589,183.727386 
	C231.960709,184.900787 231.483826,186.385040 230.058182,186.785965 
	C228.411362,186.967239 227.978271,184.194931 225.972580,185.493851 
	C224.924637,187.063446 225.961838,188.954727 225.275864,190.973450 
	C228.250931,191.350647 229.605209,193.386536 231.128036,195.668472 
	C236.133636,203.169449 244.059006,205.197021 252.387512,205.557434 
	C254.583878,205.652496 258.804474,204.854385 254.890884,200.348724 
M233.377899,206.111176 
	C231.314865,204.129654 229.602737,201.930038 228.766510,199.124084 
	C228.322830,197.635254 227.623413,196.205704 225.716370,196.459106 
	C223.830276,196.709717 223.501068,198.269836 223.405701,199.810959 
	C223.084610,204.999817 222.994263,209.970215 227.530167,213.940796 
	C231.411636,217.338501 234.034973,221.899918 236.905792,226.170502 
	C239.592499,230.167252 242.090759,234.290222 244.727020,238.321625 
	C245.539688,239.564377 246.437439,240.959702 248.233932,240.642029 
	C250.321701,240.272842 250.493896,238.459793 250.752289,236.814163 
	C251.241745,233.696747 251.048325,230.647095 250.147827,227.491287 
	C247.652466,228.864258 249.173401,231.587570 247.092560,233.233078 
	C246.508957,229.736832 244.860168,226.472626 245.798477,223.344788 
	C247.655930,217.153122 243.909760,214.179932 239.862885,211.122711 
	C237.874619,209.620697 235.893127,208.109680 233.377899,206.111176 
M101.439323,79.873596 
	C96.488800,79.872101 91.705742,78.774208 86.920662,77.674080 
	C84.020462,77.007286 81.469719,77.542221 80.499443,80.652039 
	C79.819565,82.831116 80.955917,85.561531 83.272186,84.263168 
	C88.415222,81.380264 92.946793,84.010666 97.648605,84.744324 
	C101.594162,85.359985 103.143471,84.476540 101.439323,79.873596 
M309.367157,78.236633 
	C315.017517,80.279892 318.328217,85.588882 323.343872,88.513359 
	C319.539429,81.326683 313.142303,77.855644 305.356140,75.493706 
	C306.225098,77.359413 307.792419,77.169624 309.367157,78.236633 
M295.383331,114.162819 
	C295.918701,117.035881 299.556183,119.397491 296.122467,123.127647 
	C299.921234,122.965538 300.889435,120.974007 300.508911,118.466187 
	C300.124878,115.935356 299.706635,113.066521 296.670349,112.100174 
	C295.868896,111.845100 295.093689,112.519981 295.383331,114.162819 
z"/>
<path fill="#000000" opacity="1.000000" stroke="none" 
	d="
M204.454163,233.069107 
	C199.723099,226.179947 199.737122,219.218506 202.491547,211.484497 
	C204.543686,213.953461 203.887604,216.556839 204.316345,218.876343 
	C205.123703,223.244095 205.885849,227.620239 206.656967,231.994629 
	C206.996979,233.923492 207.035706,235.449081 204.454163,233.069107 
z"/>
<path fill="#000000" opacity="1.000000" stroke="none" 
	d="
M187.815094,189.764984 
	C192.006058,194.992065 194.812027,200.657883 197.536118,206.577652 
	C195.361511,207.579971 193.660568,205.083588 192.360107,207.872482 
	C190.328690,201.860519 189.375137,196.256149 186.585922,191.305084 
	C186.155182,190.540543 186.281525,189.668365 187.815094,189.764984 
z"/>
<path fill="#000000" opacity="1.000000" stroke="none" 
	d="
M265.699982,367.678406 
	C263.023743,371.478821 260.007477,374.275146 255.527664,376.157806 
	C257.184784,371.224762 263.822601,364.345398 267.340454,363.513306 
	C268.169312,365.290131 266.563843,366.172882 265.699982,367.678406 
z"/>
<path fill="#000000" opacity="1.000000" stroke="none" 
	d="
M243.336487,179.411102 
	C243.298294,177.112823 241.107346,177.408951 240.141769,176.488556 
	C243.170380,173.302551 250.600662,172.780655 253.194366,175.338516 
	C254.439896,176.566864 253.821655,177.744751 253.173904,178.910767 
	C252.040787,180.950500 250.418335,182.325226 247.962173,181.662476 
	C246.404587,181.242188 244.967239,180.376205 243.336487,179.411102 
z"/>
</svg>