<svg version="1.1" id="Layer_1" xmlns="http://www.w3.org/2000/svg" xmlns:xlink="http://www.w3.org/1999/xlink" x="0px" y="0px"
	 width="100%" viewBox="0 0 480 448" enable-background="new 0 0 480 448" xml:space="preserve">
<path fill="#000000" opacity="1.000000" stroke="none" 
	d="
M82.484581,91.461052 
	C100.670265,89.535172 116.285179,100.036789 123.150604,118.513222 
	C125.236122,124.125839 127.410034,129.725815 128.337479,135.687286 
	C128.806351,138.701141 130.260925,139.412598 132.801392,137.756454 
	C136.549133,135.313278 140.882919,134.675781 145.122620,133.997650 
	C149.185425,133.347794 153.174408,133.651978 155.520813,137.981567 
	C156.663528,140.090088 158.518158,140.868225 160.953018,140.721848 
	C172.916702,140.002609 184.885712,139.372238 196.852570,138.705353 
	C198.376297,138.620438 199.952728,138.547577 200.424789,136.667633 
	C200.876434,134.869019 200.083649,133.498291 198.922501,132.156601 
	C192.669998,124.931862 188.331223,102.104553 191.784821,93.307831 
	C197.102676,79.762634 208.298096,74.336403 221.782501,72.772774 
	C228.071426,72.043533 234.432541,72.463913 240.364456,75.306969 
	C248.469162,79.191383 251.549225,84.736053 250.540771,93.733116 
	C250.448990,94.551880 250.211365,95.570137 250.569809,96.190437 
	C254.552856,103.083176 252.098389,110.867218 253.693893,118.078850 
	C254.360443,121.091698 253.654175,124.043098 252.959198,126.967468 
	C252.122910,130.486343 250.922272,133.939285 250.855881,137.374817 
	C252.056686,138.865189 253.468536,138.642471 254.763229,138.646103 
	C265.595398,138.676514 276.427643,138.664291 287.259888,138.682434 
	C289.140289,138.685577 290.935913,138.560593 292.200775,136.885284 
	C298.116455,129.050034 311.112610,130.623154 316.547974,136.853806 
	C321.822815,142.900421 328.112213,141.518173 334.413849,141.558945 
	C337.053162,141.576019 337.295441,139.309372 337.725555,137.307327 
	C339.750214,127.882401 341.504028,118.396835 345.608398,109.537346 
	C349.031311,102.148857 353.637573,95.723801 359.922974,90.552208 
	C365.318726,86.112595 371.157898,83.407730 378.549103,83.404091 
	C388.859222,83.399010 399.161926,82.259842 409.461334,83.818832 
	C426.386902,86.380798 435.173340,98.001137 441.117188,112.524200 
	C444.721832,121.331802 446.979858,130.574188 447.288544,140.142548 
	C447.405090,143.754105 449.139923,144.580215 452.305084,144.698303 
	C459.756165,144.976303 462.487549,147.956116 462.314362,155.177109 
	C462.124298,163.101059 459.298615,166.544174 452.175690,166.253235 
	C447.568329,166.065018 446.148132,168.084457 445.341309,172.095108 
	C442.613556,185.654419 438.016327,198.399353 428.133759,208.619156 
	C421.351349,215.632980 413.417572,219.630783 403.329468,219.498734 
	C392.997528,219.363480 382.686523,219.002686 372.393066,218.252090 
	C362.878876,217.558334 356.725586,211.337402 351.421234,204.325989 
	C343.159943,193.406067 339.286926,180.747971 337.738007,167.284851 
	C337.433899,164.641617 337.032837,162.009598 336.723938,159.366867 
	C336.419525,156.762650 334.890808,155.486588 332.377747,155.511536 
	C330.020599,155.534912 328.959686,157.055756 328.340515,159.219574 
	C326.452637,165.817276 326.961151,172.250656 328.850342,178.790146 
	C331.341248,187.412567 333.878082,196.026245 335.667542,204.847305 
	C337.906372,215.883636 334.590881,225.562576 328.904907,234.727295 
	C327.638794,236.767990 325.761078,238.192780 323.220642,238.376633 
	C314.890808,238.979416 307.450134,237.294388 301.340240,230.957703 
	C297.133484,226.594833 292.373352,222.765503 287.148529,218.055878 
	C285.462311,226.775208 282.604492,234.319809 285.721863,242.382095 
	C286.498932,244.391769 287.520538,245.723999 289.638580,246.486771 
	C310.496246,253.998199 318.664856,276.518707 307.635651,296.531342 
	C305.927887,299.630127 305.717377,302.010925 307.033417,305.305725 
	C311.905884,317.504120 310.713348,330.149780 309.008942,342.755005 
	C307.970673,350.433929 307.828949,357.395172 313.152130,364.381439 
	C317.714600,370.369354 318.609863,378.621490 319.940582,386.081116 
	C320.786194,390.821472 322.811279,391.761780 326.841278,391.685791 
	C334.684265,391.537903 342.436646,392.669525 350.184052,393.729095 
	C351.782288,393.947662 353.522949,394.008789 354.602783,396.062805 
	C350.711182,398.923706 346.062256,398.510529 341.818909,398.625214 
	C325.681854,399.061554 310.010620,403.949463 293.791077,403.409058 
	C289.463623,403.264862 285.434814,402.628143 281.218079,401.102051 
	C275.781708,399.134552 269.680908,400.543518 263.866943,400.519409 
	C230.557205,400.381134 197.246307,400.757751 163.941376,399.576691 
	C150.302719,399.093079 136.657730,399.026337 123.089203,397.338440 
	C120.974335,397.075348 118.806160,397.093170 116.983047,394.836853 
	C121.065811,391.818268 125.747978,391.745972 130.205872,391.767059 
	C134.358398,391.786652 136.799881,390.403137 137.955292,386.397919 
	C138.941315,382.979828 141.507202,380.798798 144.596664,379.303986 
	C147.290451,378.000641 149.993484,376.503326 152.865662,375.821899 
	C161.277710,373.826172 164.692856,365.928192 170.733536,361.162415 
	C171.991989,360.169556 170.995590,358.678772 170.598419,357.434113 
	C168.036942,349.407043 164.198502,342.045807 158.706482,335.651764 
	C150.295792,325.859711 144.674515,314.647644 141.363388,302.250000 
	C139.606033,295.669983 136.146683,289.695953 135.242493,282.770264 
	C134.007919,273.314117 136.981049,266.327881 145.064026,261.109375 
	C159.570160,251.744003 175.443390,248.878448 192.359467,250.226288 
	C195.342987,250.464005 198.347534,250.660309 201.334366,250.579666 
	C205.332138,250.471695 207.336426,247.914352 205.313995,244.757996 
	C200.636566,237.458115 197.654221,229.206528 192.317352,222.298279 
	C189.767960,218.998230 187.253586,218.408249 183.992691,221.332794 
	C179.634842,225.241165 174.877502,228.596115 169.420059,230.858002 
	C163.126282,233.466522 159.863113,232.648804 155.207474,227.646942 
	C144.342834,215.974304 137.935089,202.115479 134.654449,186.642776 
	C133.446976,180.947968 131.983917,175.306976 130.610138,169.648071 
	C130.269867,168.246384 130.173569,166.638351 128.244904,166.129959 
	C126.654358,167.602448 126.712990,169.668793 126.245430,171.552078 
	C123.224495,183.720322 118.190895,194.818741 109.091576,203.760757 
	C103.838669,208.922821 97.606232,211.517776 90.200851,211.422913 
	C81.536186,211.311905 72.847641,210.945755 64.209106,211.417068 
	C51.718437,212.098526 42.940506,206.269211 35.753815,196.862564 
	C29.506117,188.684982 26.440586,179.254013 24.768845,169.303375 
	C24.225576,166.069702 23.465317,163.571075 20.442219,161.468353 
	C14.851897,157.579987 15.278905,146.623459 21.001766,142.937683 
	C23.635580,141.241379 24.131065,138.925293 24.705807,136.295410 
	C27.697277,122.607193 32.358864,109.894676 43.100483,99.950195 
	C49.782715,93.763855 57.608807,92.244072 66.034836,91.846558 
	C71.359230,91.595375 76.696487,91.616676 82.484581,91.461052 
M94.725441,158.388062 
	C95.111221,161.698288 95.700478,161.958939 99.423988,160.431595 
	C98.763268,158.094116 96.654137,158.450531 94.788803,157.330017 
	C91.814972,153.151749 92.421310,148.317978 93.429741,142.458282 
	C87.102303,148.852646 88.500916,156.087494 94.725441,158.388062 
M247.495636,126.365410 
	C245.628128,128.107956 242.898727,129.443069 244.987442,132.827423 
	C245.540283,133.723236 244.926697,134.905548 243.849945,135.244247 
	C239.493729,136.614502 235.194580,135.463150 229.861862,135.772629 
	C232.717194,132.551224 236.436478,133.855438 237.738190,131.531204 
	C238.675430,127.769249 232.140167,128.933365 234.195633,124.580185 
	C235.065964,124.870018 235.807312,125.219269 236.586304,125.359734 
	C241.670547,126.276550 243.109177,124.687920 241.498001,119.800117 
	C240.716263,117.428528 239.796127,115.127792 239.534073,112.600937 
	C239.321869,110.554855 240.011398,109.289398 242.075272,109.131584 
	C244.612198,108.937592 246.939972,108.393883 246.896164,105.312050 
	C246.844345,101.666985 246.959106,97.080574 243.426407,95.470505 
	C236.256836,92.202896 228.503799,90.746674 220.577286,92.941582 
	C217.555679,93.778282 215.949844,95.730202 217.314621,98.950798 
	C219.136993,103.251259 218.434052,106.989883 215.490707,110.548157 
	C214.095840,112.234421 213.564468,114.392784 213.317154,116.584412 
	C213.093704,118.564301 212.888809,120.572189 211.424484,121.512596 
	C208.994965,122.255089 209.342651,119.319923 207.313721,119.511665 
	C207.569305,121.918076 208.023712,124.345367 206.305725,126.575859 
	C210.941193,126.800163 211.112106,126.919846 212.125916,130.294571 
	C214.951172,139.699173 228.157059,149.218445 237.828049,148.864685 
	C241.635818,148.725388 244.064865,147.199539 244.733795,143.136917 
	C245.677902,137.403015 246.895020,131.714066 248.280167,125.284981 
	C248.617966,121.936768 249.862564,118.375092 246.224380,115.111938 
	C244.068985,119.861343 248.245544,122.525726 247.495636,126.365410 
M265.987152,193.506683 
	C268.484406,190.431580 269.194763,187.222260 265.604919,183.140915 
	C270.584076,184.357361 274.262299,185.803253 278.297333,185.723053 
	C282.224670,185.644989 286.317444,184.948334 290.351593,186.565445 
	C289.031403,188.948029 287.092957,188.341034 285.587860,188.714935 
	C278.225891,190.543793 277.196899,193.726562 282.329987,199.296265 
	C283.341095,200.393356 284.423737,201.491669 285.661774,202.301422 
	C292.900177,207.035690 294.894836,217.016190 303.652527,220.256714 
	C304.250946,220.478134 304.511169,221.627853 304.917419,222.352158 
	C307.562958,227.068634 311.868896,229.431854 316.928009,230.496399 
	C319.833740,231.107834 322.946838,230.849152 324.196472,227.655823 
	C327.039551,220.390533 329.959290,213.133499 328.041687,204.946823 
	C325.573700,194.410141 322.489594,184.064484 319.196289,173.769104 
	C318.597931,171.898560 317.254425,169.569260 318.678864,168.066040 
	C321.119263,165.490662 320.476807,162.503250 320.840973,159.623367 
	C321.077667,157.751266 320.988281,155.929184 319.059601,154.812576 
	C317.382111,153.841354 315.901123,154.263794 314.423950,155.312378 
	C312.565735,156.631409 311.916962,158.343933 312.510254,160.530640 
	C313.027496,162.437088 313.867859,164.329727 312.514282,166.660263 
	C307.815674,165.526840 307.789581,168.747559 308.134857,172.016052 
	C309.331940,183.347794 308.914795,194.559006 306.568878,205.752075 
	C305.831512,209.270218 305.924683,213.045502 306.892120,216.658188 
	C307.141205,217.588303 307.586609,218.609604 305.634430,219.397705 
	C300.487427,214.079300 300.208557,207.427628 301.028687,200.597107 
	C301.466766,196.948456 301.909576,193.325668 301.746521,189.652344 
	C301.622742,186.864182 300.215393,185.711792 297.461334,186.497528 
	C296.369324,186.809067 295.369598,187.617569 294.059052,186.957993 
	C292.501160,184.938950 293.247406,182.870193 294.313354,180.966553 
	C295.353394,179.109146 295.804321,177.367081 295.009247,175.282196 
	C290.751770,164.118835 280.846802,152.706467 264.711853,159.187302 
	C262.857452,159.932144 260.804779,161.323547 258.649719,159.471741 
	C258.599304,155.958923 262.869934,156.110382 264.002747,153.345154 
	C261.762115,152.130310 259.735992,151.444916 258.109863,153.731384 
	C257.063019,155.203384 255.721893,155.444489 254.198151,155.339844 
	C251.410263,155.148376 250.234177,156.685883 249.023071,159.030518 
	C244.070328,168.618881 233.941864,170.952240 225.009323,177.161926 
	C225.184830,171.197495 228.829330,170.360611 231.435440,168.721313 
	C235.739563,166.013977 235.890427,163.950256 231.677414,160.572067 
	C226.684204,163.437134 226.419571,170.290451 221.619461,173.407288 
	C220.505569,172.194397 220.903061,171.236954 221.050812,170.251572 
	C221.675888,166.082718 223.342728,162.279282 225.106262,158.513580 
	C226.057816,156.481750 225.655273,154.982132 223.629333,153.964676 
	C221.728104,153.009842 220.596497,154.117676 219.312698,155.348862 
	C218.267456,156.351288 218.928268,158.454147 216.426010,158.912216 
	C214.502106,152.553757 212.464859,146.192215 209.291275,139.369751 
	C204.126602,149.976013 210.636459,158.718521 211.603180,168.070206 
	C209.053070,166.329437 207.318375,164.106552 205.156555,162.436615 
	C203.278625,160.985977 200.728561,158.812012 198.475769,160.603806 
	C195.099930,163.288803 192.699692,161.630325 189.920212,160.026382 
	C183.812561,156.501892 181.462875,157.134308 177.407959,163.086746 
	C174.925095,166.731461 173.444626,170.772583 172.546982,175.033752 
	C172.133194,176.998032 172.268906,178.943222 173.188950,180.871933 
	C174.462387,183.541443 175.908981,183.845139 177.839493,181.001678 
	C178.473785,182.871231 178.911774,184.117828 179.320511,185.373947 
	C182.583740,195.402435 187.563461,204.313126 196.260483,210.665237 
	C202.394958,215.145721 208.955887,216.996017 216.623505,212.950027 
	C215.153656,206.856552 213.626953,200.734848 215.611496,194.334503 
	C216.640594,203.057678 219.153534,211.105865 225.707596,217.252441 
	C223.613174,219.248535 222.206177,217.909698 220.788193,217.244339 
	C219.388458,216.587540 217.938507,215.903580 216.554047,216.962463 
	C213.755508,219.102890 210.421661,219.393555 207.154068,219.906021 
	C203.611038,220.461700 203.090881,222.124893 204.868729,225.085373 
	C207.952011,230.219727 210.902573,235.433960 213.892258,240.624222 
	C214.838898,242.267654 215.935394,243.108307 218.093353,243.437531 
	C226.763657,244.760208 234.732819,249.042496 243.698303,249.489532 
	C236.054825,253.129944 228.460983,248.438080 221.160843,249.312363 
	C219.620102,253.071167 221.309189,254.475906 224.027130,255.421783 
	C230.112381,257.539551 236.427231,258.383850 242.728546,257.489655 
	C252.781235,256.063110 262.120667,252.386642 270.789001,247.698303 
	C270.729065,245.729614 268.553589,245.976440 268.942139,244.284073 
	C270.482025,242.268661 274.575256,240.778549 272.780121,237.667877 
	C270.208984,233.212540 266.775848,238.968246 263.197235,237.936584 
	C265.481476,233.696442 269.617737,230.494919 269.221710,224.818924 
	C265.098846,225.057938 261.993927,228.765442 257.750427,227.618484 
	C258.421417,224.921646 261.119812,224.689178 262.340332,222.958710 
	C263.471558,221.354843 265.409851,219.790924 264.286346,217.697159 
	C262.902344,215.117920 260.603394,216.855164 258.986542,217.531708 
	C252.260544,220.346130 245.339645,221.758423 238.048325,221.338898 
	C232.742035,221.033600 228.769867,218.928085 227.170441,215.380142 
	C227.707214,215.380142 228.199799,215.272049 228.624741,215.395950 
	C239.199219,218.479187 248.417084,216.381546 255.604111,207.820831 
	C259.233063,203.498291 262.303436,198.706833 265.987152,193.506683 
M263.657349,312.025726 
	C263.685394,308.994843 261.303619,308.320038 259.153076,307.421478 
	C251.799759,304.349091 244.079437,304.598633 236.519424,305.727295 
	C222.885147,307.762817 209.400589,308.225433 195.918365,304.810181 
	C190.884048,303.534943 189.419357,305.001312 190.603394,310.211823 
	C191.941742,316.101196 192.372543,322.010345 192.279617,328.029541 
	C192.160675,335.733398 193.590134,343.258179 195.677643,350.647003 
	C196.074280,352.050873 196.653564,353.653931 197.675110,354.591095 
	C206.244156,362.452118 208.620087,372.960052 210.187073,383.747803 
	C210.622147,386.742920 211.887161,387.682709 214.686234,387.719727 
	C235.490540,387.995148 256.295013,388.290222 277.096405,388.724335 
	C280.751251,388.800568 282.549011,387.046204 283.786407,383.966064 
	C285.211945,380.417450 284.123535,376.651611 284.860046,373.103455 
	C287.897797,358.469940 281.714783,346.676086 273.026154,335.986481 
	C267.414795,329.082794 264.251648,321.594910 263.657349,312.025726 
M197.583878,292.082428 
	C199.145615,290.197906 199.653824,288.028351 199.678162,285.595123 
	C199.765152,276.888824 196.341614,269.421143 191.547195,262.483887 
	C189.598724,259.664520 186.774826,257.564575 183.245270,257.523224 
	C169.552063,257.362762 156.934814,260.822327 146.251083,269.729340 
	C142.650528,272.731079 141.669479,276.748230 142.910141,281.470856 
	C144.258057,286.601776 147.465164,290.666565 149.891220,295.186157 
	C151.151352,297.533691 153.461334,299.869934 150.802277,302.833893 
	C150.424072,303.255463 150.600098,304.495392 150.916443,305.170685 
	C155.648117,315.271301 160.415390,325.358917 168.323517,333.512451 
	C169.653259,334.883453 171.141403,335.987305 173.153168,335.519165 
	C182.128036,333.430817 184.263870,335.881897 183.715988,324.151489 
	C183.646179,322.656555 183.753052,321.151031 183.640228,319.660828 
	C182.883438,309.665894 179.078918,301.372772 170.276169,295.888000 
	C167.382858,294.085266 164.638779,292.962982 161.947296,296.346283 
	C161.026367,297.503937 159.579514,298.255188 157.646408,296.533386 
	C159.908600,291.460510 160.396057,286.089752 157.019196,280.750977 
	C160.384445,281.721436 162.997681,283.304688 165.817657,283.887421 
	C173.536407,285.482361 180.833099,287.898041 187.597076,292.078247 
	C190.395752,293.807831 193.749512,294.839233 197.583878,292.082428 
M303.151337,333.711609 
	C304.226044,324.859589 304.072357,316.169434 300.471771,307.761993 
	C298.116455,302.262299 296.081604,296.623871 293.966675,291.023621 
	C293.235168,289.086517 293.026886,287.667999 294.511108,285.334869 
	C300.477692,275.955719 294.156799,261.264343 283.526489,258.635681 
	C269.849976,255.253754 255.115341,269.050598 257.688263,282.974426 
	C258.134705,285.390472 257.780670,288.499512 261.044373,289.724518 
	C262.605164,289.016998 261.106445,286.632019 263.339111,286.031036 
	C265.667450,290.282593 269.619873,292.921692 273.759918,295.344818 
	C282.444763,300.428040 280.840698,309.996124 283.885986,317.548218 
	C280.431122,313.959930 278.776398,309.509521 277.120117,305.047211 
	C276.586426,303.609436 275.704681,302.255554 273.893036,302.435181 
	C271.948456,302.627991 271.682922,304.359375 271.542694,305.792633 
	C270.932800,312.027191 271.216431,318.140656 275.159607,323.435364 
	C279.030945,328.633545 283.208771,333.603210 286.553589,339.187439 
	C289.251068,343.690857 293.596893,342.999512 297.697021,342.288757 
	C301.874146,341.564575 303.257416,338.536163 303.151337,333.711609 
M152.485916,147.101013 
	C151.526505,145.810501 151.047958,143.913879 147.767120,143.712646 
	C151.065857,146.673187 150.179230,148.695770 148.357193,151.079834 
	C146.552185,153.441620 144.070435,154.704056 141.817337,156.359268 
	C136.934845,159.946136 135.648041,163.405151 137.306198,169.243423 
	C139.939606,178.515335 142.575790,187.788055 145.368088,197.012802 
	C147.885681,205.329987 151.641342,212.794785 160.087280,216.768265 
	C161.179474,217.282104 162.768768,217.753159 162.393814,219.563492 
	C161.194839,225.352371 164.455841,224.502792 167.865875,223.195343 
	C171.492126,221.804977 174.456085,219.346054 177.334641,216.825699 
	C178.333847,215.950867 179.172989,214.798553 177.901733,213.213043 
	C175.554169,212.148712 173.032516,215.030075 169.948334,213.123947 
	C175.488068,206.774429 176.548904,200.391861 170.030380,194.216705 
	C168.988129,193.229340 168.318008,191.498672 166.461090,192.077225 
	C164.771439,192.603668 164.647888,194.267975 164.252335,195.708008 
	C163.364273,198.941071 163.182327,202.462189 160.789474,205.346359 
	C159.062347,203.706848 159.688705,201.951508 159.725586,200.423233 
	C159.966415,190.443054 156.765167,181.483749 151.908875,172.962570 
	C150.925201,171.236526 150.107361,169.533737 147.340958,171.089752 
	C147.507965,166.597046 146.881378,163.058502 141.045395,163.405685 
	C144.200974,159.770172 147.748856,158.173874 150.802444,155.989334 
	C154.062820,153.656830 155.331940,151.257568 152.485916,147.101013 
M171.371918,154.953415 
	C168.015793,154.060959 164.653381,154.931213 161.558975,155.750275 
	C158.512054,156.556747 155.400711,159.573166 155.790115,162.472137 
	C156.523468,167.931595 159.139206,172.969513 164.873367,177.745758 
	C166.170395,169.159317 168.942749,162.536514 172.386902,156.185226 
	C172.470001,156.031937 172.097107,155.631363 171.371918,154.953415 
M363.754730,118.321808 
	C360.621033,127.936661 358.045929,137.646500 358.256378,147.912903 
	C360.232849,148.350449 361.702179,149.144760 363.447174,148.516846 
	C364.251312,138.474487 366.193115,128.739441 369.373535,119.244698 
	C370.341675,116.354408 370.442200,113.454414 367.714355,111.134583 
	C365.182983,112.735443 365.115631,115.462646 363.754730,118.321808 
M61.763519,127.324333 
	C62.139137,119.884727 68.063553,114.560165 69.036827,107.356926 
	C56.725048,118.761299 54.911110,134.004211 53.542149,149.891632 
	C55.541500,149.174118 56.826729,150.481369 58.439182,150.628754 
	C59.011681,142.885483 60.086563,135.491760 61.763519,127.324333 
M299.844727,145.466843 
	C302.045654,143.626114 307.361816,146.101776 306.980774,139.550430 
	C304.374420,142.922806 302.158630,138.375122 299.545135,140.341110 
	C292.140686,145.911026 293.130280,157.013794 301.476440,161.069061 
	C304.392334,162.485855 305.911255,161.494522 306.292633,158.456406 
	C306.760468,154.729156 304.800354,152.443359 301.527863,151.246613 
	C298.735809,150.225571 297.695618,148.765457 299.844727,145.466843 
M381.267944,121.028000 
	C383.138214,115.697365 383.138214,115.697365 378.815247,112.549789 
	C374.420532,121.979401 372.526672,131.928741 371.476868,141.795425 
	C378.652374,139.176086 378.892151,132.716843 379.861725,126.608208 
	C380.120087,124.980324 380.637848,123.393616 381.267944,121.028000 
M432.679260,154.128189 
	C438.337250,154.087952 444.219025,152.511093 449.152618,156.908325 
	C450.766296,152.444550 448.452240,150.054474 443.551117,151.437180 
	C439.108917,152.690384 434.941193,153.552246 430.564819,151.543900 
	C429.975037,151.273254 429.321198,151.825195 429.066650,152.646759 
	C429.171082,154.609802 430.658234,154.242554 432.679260,154.128189 
M103.744873,149.302673 
	C109.557480,148.003815 115.738220,151.612198 122.685768,147.745575 
	C114.639030,147.745575 107.914101,147.745575 101.108292,147.745575 
	C101.362015,149.472107 102.222092,149.418777 103.744873,149.302673 
M419.102936,146.859283 
	C415.832336,149.209427 416.028870,152.107941 417.484222,155.219604 
	C418.431549,152.506485 420.192963,150.009613 419.102936,146.859283 
z"/>
<path fill="#000000" opacity="1.000000" stroke="none" 
	d="
M241.585480,241.379379 
	C236.146652,241.433609 231.155457,241.618332 226.458878,239.316238 
	C223.345093,237.789932 220.920456,235.792694 219.782043,231.475830 
	C225.120895,232.014725 228.828674,235.433640 233.328384,236.607574 
	C237.772354,237.766968 242.599655,237.089813 246.871460,239.331558 
	C245.767349,241.667664 243.782669,241.232986 241.585480,241.379379 
z"/>
<path fill="#000000" opacity="1.000000" stroke="none" 
	d="
M213.992035,175.370285 
	C212.252838,177.002258 210.788681,176.025543 209.457672,175.063858 
	C205.618317,172.289810 202.119003,169.156296 199.596237,164.995956 
	C205.587936,166.709946 210.389420,170.034332 213.992035,175.370285 
z"/>
<path fill="#000000" opacity="1.000000" stroke="none" 
	d="
M242.858505,211.311005 
	C241.539505,211.020157 239.588425,211.651138 240.140579,209.831192 
	C240.850540,207.491150 242.823380,205.985718 245.436005,206.211975 
	C246.733795,206.324356 247.309814,207.576538 246.978943,208.866455 
	C246.491837,210.765564 245.686569,212.390747 242.858505,211.311005 
z"/>
<path fill="#000000" opacity="1.000000" stroke="none" 
	d="
M165.480469,314.385437 
	C164.366989,311.110352 163.045517,308.281799 163.497086,304.960907 
	C168.382812,310.627747 169.419586,317.830383 171.477722,324.641602 
	C168.157516,322.085968 167.091721,318.301270 165.480469,314.385437 
z"/>
<path fill="#000000" opacity="1.000000" stroke="none" 
	d="
M286.609741,288.752563 
	C287.185181,286.381073 287.698547,284.395172 288.211914,282.409241 
	C289.566406,287.454254 289.971252,292.255768 285.548035,297.098999 
	C284.988556,293.641205 285.930817,291.408844 286.609741,288.752563 
z"/>
<path fill="#000000" opacity="1.000000" stroke="none" 
	d="
M291.477844,307.040588 
	C290.417908,303.860596 288.375885,301.249390 289.290955,297.301392 
	C292.346802,300.983032 293.815643,304.587128 294.101685,308.716522 
	C292.430328,309.271515 292.189087,308.079620 291.477844,307.040588 
z"/>
<path fill="#000000" opacity="1.000000" stroke="none" 
	d="
M232.338562,115.393707 
	C225.357361,119.478470 223.930679,112.974052 220.734695,109.958679 
	C223.430695,107.303284 233.643707,106.663315 236.175156,108.941872 
	C237.499374,110.133789 237.188797,111.239166 236.027771,112.290092 
	C234.923782,113.289375 233.786942,114.252403 232.338562,115.393707 
z"/>
</svg>